<?xml version="1.0" encoding="utf-8" standalone="no"?>
<!DOCTYPE svg PUBLIC "-//W3C//DTD SVG 1.1//EN"
  "http://www.w3.org/Graphics/SVG/1.1/DTD/svg11.dtd">
<!-- Created with matplotlib (https://matplotlib.org/) -->
<svg height="302.183452pt" version="1.1" viewBox="0 0 508.588075 302.183452" width="508.588075pt" xmlns="http://www.w3.org/2000/svg" xmlns:xlink="http://www.w3.org/1999/xlink">
 <metadata>
  <rdf:RDF xmlns:cc="http://creativecommons.org/ns#" xmlns:dc="http://purl.org/dc/elements/1.1/" xmlns:rdf="http://www.w3.org/1999/02/22-rdf-syntax-ns#">
   <cc:Work>
    <dc:type rdf:resource="http://purl.org/dc/dcmitype/StillImage"/>
    <dc:date>2020-12-18T18:19:53.790158</dc:date>
    <dc:format>image/svg+xml</dc:format>
    <dc:creator>
     <cc:Agent>
      <dc:title>Matplotlib v3.3.3, https://matplotlib.org/</dc:title>
     </cc:Agent>
    </dc:creator>
   </cc:Work>
  </rdf:RDF>
 </metadata>
 <defs>
  <style type="text/css">*{stroke-linecap:butt;stroke-linejoin:round;}</style>
 </defs>
 <g id="figure_1">
  <g id="patch_1">
   <path d="M 0 302.183452 
L 508.588075 302.183452 
L 508.588075 0 
L 0 0 
z
" style="fill:#ffffff;"/>
  </g>
  <g id="axes_1">
   <g id="patch_2">
    <path d="M 38.125311 243.26218 
L 138.834607 243.26218 
L 138.834607 21.50218 
L 38.125311 21.50218 
z
" style="fill:#ffffff;"/>
   </g>
   <g id="matplotlib.axis_1">
    <g id="xtick_1">
     <g id="line2d_1">
      <path clip-path="url(#p63dbf650d6)" d="M 45.318832 243.26218 
L 45.318832 21.50218 
" style="fill:none;stroke:#b0b0b0;stroke-dasharray:2.96,1.28;stroke-dashoffset:0;stroke-width:0.8;"/>
     </g>
     <g id="line2d_2">
      <defs>
       <path d="M 0 0 
L 0 3.5 
" id="ma7856c80af" style="stroke:#000000;stroke-width:0.8;"/>
      </defs>
      <g>
       <use style="stroke:#000000;stroke-width:0.8;" x="45.318832" xlink:href="#ma7856c80af" y="243.26218"/>
      </g>
     </g>
     <g id="text_1">
      <!-- Chest -->
      <g transform="translate(47.809492 275.22416)rotate(-90)scale(0.1 -0.1)">
       <defs>
        <path d="M 62.09375 67.015625 
C 62.09375 68.796875 62 68.90625 61.40625 68.90625 
C 61 68.90625 60.90625 68.796875 60.203125 67.609375 
L 55.796875 59.25 
C 50.90625 65.421875 44.90625 69 37.203125 69 
C 20.09375 69 4.59375 54 4.59375 33.5625 
C 4.59375 12.90625 20.09375 -2 37.296875 -2 
C 52.59375 -2 62.09375 11.40625 62.09375 22.828125 
C 62.09375 23.8125 62.09375 24.21875 61.203125 24.21875 
C 60.40625 24.21875 60.40625 23.921875 60.296875 23.03125 
C 59.5 9.140625 49.5 0.59375 38.703125 0.59375 
C 28.5 0.59375 12.203125 7.734375 12.203125 33.546875 
C 12.203125 59.453125 28.796875 66.40625 38.5 66.40625 
C 49.796875 66.40625 58 56.6875 59.90625 42.890625 
C 60.09375 41.6875 60.09375 41.484375 61 41.484375 
C 62.09375 41.484375 62.09375 41.6875 62.09375 43.484375 
z
" id="CMR17-67"/>
        <path d="M 41.5 30.203125 
C 41.5 35.296875 40.5 43.59375 28.703125 43.59375 
C 20.5 43.59375 16.5 37 15.296875 33.703125 
L 15.203125 33.703125 
L 15.203125 68.6875 
L 3.296875 67.59375 
L 3.296875 65 
C 9.203125 65 10.09375 64.40625 10.09375 59.640625 
L 10.09375 6.65625 
C 10.09375 2.875 9.703125 2.390625 3.296875 2.390625 
L 3.296875 -0.203125 
C 5.703125 0 10.09375 0 12.703125 0 
C 15.296875 0 19.796875 0 22.203125 -0.203125 
L 22.203125 2.390625 
C 15.796875 2.390625 15.40625 2.78125 15.40625 6.6875 
L 15.40625 25.90625 
C 15.40625 35.109375 21 42 28 42 
C 35.40625 42 36.203125 35.40625 36.203125 30.59375 
L 36.203125 6.6875 
C 36.203125 2.875 35.796875 2.390625 29.40625 2.390625 
L 29.40625 -0.203125 
C 31.796875 0 36.203125 0 38.796875 0 
C 41.40625 0 45.90625 0 48.296875 -0.203125 
L 48.296875 2.390625 
C 41.90625 2.390625 41.5 2.78125 41.5 6.6875 
z
" id="CMR17-104"/>
        <path d="M 38.09375 23 
C 38.5 23.40625 38.5 23.609375 38.5 24.625 
C 38.5 34.96875 33.09375 44 21.703125 44 
C 11.09375 44 2.703125 33.890625 2.703125 21.609375 
C 2.703125 8.609375 12.203125 -1 22.796875 -1 
C 34 -1 38.40625 9.484375 38.40625 11.5625 
C 38.40625 12.25 37.796875 12.25 37.59375 12.25 
C 36.90625 12.25 36.796875 12.046875 36.40625 10.875 
C 34.203125 4.140625 28.703125 0.796875 23.5 0.796875 
C 19.203125 0.796875 14.90625 3.171875 12.203125 7.5 
C 9.09375 12.546875 9.09375 18.375 9.09375 23 
z
M 9.203125 24.5 
C 9.90625 39.140625 17.59375 42.40625 21.59375 42.40625 
C 28.40625 42.40625 33 35.890625 33.09375 24.5 
z
" id="CMR17-101"/>
        <path d="M 30.90625 42.140625 
C 30.90625 43.953125 30.796875 44.046875 30.203125 44.046875 
C 29.796875 44.046875 29.703125 43.953125 28.5 42.453125 
C 28.203125 42.046875 27.296875 41.03125 27 40.640625 
C 23.796875 44.046875 19.296875 44.046875 17.59375 44.046875 
C 6.5 44.046875 2.5 38.234375 2.5 32.4375 
C 2.5 23.40625 12.703125 21.328125 15.59375 20.703125 
C 21.90625 19.421875 24.09375 19.015625 26.203125 17.203125 
C 27.5 16.015625 29.703125 13.8125 29.703125 10.21875 
C 29.703125 6 27.296875 0.59375 18.09375 0.59375 
C 9.40625 0.59375 6.296875 7.1875 4.5 15.953125 
C 4.203125 17.34375 4.203125 17.453125 3.40625 17.453125 
C 2.59375 17.453125 2.5 17.34375 2.5 15.359375 
L 2.5 0.984375 
C 2.5 -0.796875 2.59375 -0.90625 3.203125 -0.90625 
C 3.703125 -0.90625 3.796875 -0.796875 4.296875 0 
C 4.90625 0.890625 6.40625 3.296875 7 4.3125 
C 9 1.609375 12.5 -1 18.09375 -1 
C 28 -1 33.296875 4.421875 33.296875 12.25 
C 33.296875 17.375 30.59375 20.078125 29.296875 21.28125 
C 26.296875 24.390625 22.796875 25.09375 18.59375 25.890625 
C 13.09375 27.109375 6.09375 28.515625 6.09375 34.640625 
C 6.09375 37.234375 7.5 42.765625 17.59375 42.765625 
C 28.296875 42.765625 28.90625 32.71875 29.09375 29.5 
C 29.203125 29 29.703125 28.890625 30 28.890625 
C 30.90625 28.890625 30.90625 29.203125 30.90625 30.90625 
z
" id="CMR17-115"/>
        <path d="M 15.09375 40 
L 29.09375 40 
L 29.09375 42.578125 
L 15.09375 42.578125 
L 15.09375 61 
L 13.296875 61 
C 13.09375 50.703125 9.59375 41.6875 1.09375 41.6875 
L 1.09375 40 
L 9.796875 40 
L 9.796875 12.046875 
C 9.796875 10.15625 9.796875 -1 21.40625 -1 
C 27.296875 -1 30.703125 4.78125 30.703125 12.140625 
L 30.703125 17.8125 
L 28.90625 17.8125 
L 28.90625 12.234375 
C 28.90625 5.375 26.203125 0.796875 22 0.796875 
C 19.09375 0.796875 15.09375 2.78125 15.09375 11.84375 
z
" id="CMR17-116"/>
       </defs>
       <use transform="scale(0.996264)" xlink:href="#CMR17-67"/>
       <use transform="translate(66.509881 0)scale(0.996264)" xlink:href="#CMR17-104"/>
       <use transform="translate(117.40525 0)scale(0.996264)" xlink:href="#CMR17-101"/>
       <use transform="translate(157.890911 0)scale(0.996264)" xlink:href="#CMR17-115"/>
       <use transform="translate(193.692248 0)scale(0.996264)" xlink:href="#CMR17-116"/>
      </g>
     </g>
    </g>
    <g id="xtick_2">
     <g id="line2d_3">
      <path clip-path="url(#p63dbf650d6)" d="M 59.705874 243.26218 
L 59.705874 21.50218 
" style="fill:none;stroke:#b0b0b0;stroke-dasharray:2.96,1.28;stroke-dashoffset:0;stroke-width:0.8;"/>
     </g>
     <g id="line2d_4">
      <g>
       <use style="stroke:#000000;stroke-width:0.8;" x="59.705874" xlink:href="#ma7856c80af" y="243.26218"/>
      </g>
     </g>
     <g id="text_2">
      <!-- Other -->
      <g transform="translate(62.196534 275.74999)rotate(-90)scale(0.1 -0.1)">
       <defs>
        <path d="M 67.296875 33.359375 
C 67.296875 53.703125 52.59375 69 36 69 
C 19 69 4.59375 53.5 4.59375 33.359375 
C 4.59375 13.203125 19.203125 -2 35.90625 -2 
C 53 -2 67.296875 13.5 67.296875 33.359375 
z
M 36 -0.203125 
C 24.59375 -0.203125 12.203125 11.109375 12.203125 34.640625 
C 12.203125 58.0625 25.796875 67.203125 35.90625 67.203125 
C 46.5 67.203125 59.703125 57.78125 59.703125 34.640625 
C 59.703125 10.71875 47 -0.203125 36 -0.203125 
z
" id="CMR17-79"/>
        <path d="M 15 23.390625 
C 15 33 19.09375 42 26.59375 42 
C 27.296875 42 28 41.90625 28.703125 41.59375 
C 28.703125 41.59375 26.5 40.890625 26.5 38.3125 
C 26.5 35.90625 28.40625 34.90625 29.90625 34.90625 
C 31.09375 34.90625 33.296875 35.609375 33.296875 38.40625 
C 33.296875 41.609375 30.09375 43.59375 26.703125 43.59375 
C 19.09375 43.59375 15.796875 36.203125 14.796875 32.703125 
L 14.703125 32.703125 
L 14.703125 43.59375 
L 3.09375 42.5 
L 3.09375 39.90625 
C 9 39.90625 9.90625 39.296875 9.90625 34.5 
L 9.90625 6.6875 
C 9.90625 2.875 9.5 2.390625 3.09375 2.390625 
L 3.09375 -0.203125 
C 5.5 0 10.09375 0 12.703125 0 
C 15.59375 0 20.703125 0 23.40625 -0.203125 
L 23.40625 2.390625 
C 16.203125 2.390625 15 2.390625 15 6.875 
z
" id="CMR17-114"/>
       </defs>
       <use transform="scale(0.996264)" xlink:href="#CMR17-79"/>
       <use transform="translate(71.714788 0)scale(0.996264)" xlink:href="#CMR17-116"/>
       <use transform="translate(106.995556 0)scale(0.996264)" xlink:href="#CMR17-104"/>
       <use transform="translate(157.890926 0)scale(0.996264)" xlink:href="#CMR17-101"/>
       <use transform="translate(198.376586 0)scale(0.996264)" xlink:href="#CMR17-114"/>
      </g>
     </g>
    </g>
    <g id="xtick_3">
     <g id="line2d_5">
      <path clip-path="url(#p63dbf650d6)" d="M 74.092917 243.26218 
L 74.092917 21.50218 
" style="fill:none;stroke:#b0b0b0;stroke-dasharray:2.96,1.28;stroke-dashoffset:0;stroke-width:0.8;"/>
     </g>
     <g id="line2d_6">
      <g>
       <use style="stroke:#000000;stroke-width:0.8;" x="74.092917" xlink:href="#ma7856c80af" y="243.26218"/>
      </g>
     </g>
     <g id="text_3">
      <!-- Head -->
      <g transform="translate(76.583577 272.678166)rotate(-90)scale(0.1 -0.1)">
       <defs>
        <path d="M 56.09375 61.015625 
C 56.09375 65.5 57.203125 65.5 64.09375 65.5 
L 64.09375 68 
C 61.203125 68 55.90625 68 52.796875 68 
C 49.703125 68 44.40625 68 41.5 68 
L 41.5 65.5 
C 48.40625 65.5 49.5 65.5 49.5 61 
L 49.5 36.578125 
L 19.703125 36.578125 
L 19.703125 61 
C 19.703125 65.5 20.796875 65.5 27.703125 65.5 
L 27.703125 68 
C 24.796875 68 19.5 68 16.40625 68 
C 13.296875 68 8 68 5.09375 68 
L 5.09375 65.5 
C 12 65.5 13.09375 65.5 13.09375 61.015625 
L 13.09375 6.984375 
C 13.09375 2.5 12 2.5 5.09375 2.5 
L 5.09375 0 
C 8 0 13.296875 0 16.40625 0 
C 19.5 0 24.796875 0 27.703125 0 
L 27.703125 2.5 
C 20.796875 2.5 19.703125 2.5 19.703125 6.96875 
L 19.703125 34 
L 49.5 34 
L 49.5 6.96875 
C 49.5 2.5 48.40625 2.5 41.5 2.5 
L 41.5 0 
C 44.40625 0 49.703125 0 52.796875 0 
C 55.90625 0 61.203125 0 64.09375 0 
L 64.09375 2.5 
C 57.203125 2.5 56.09375 2.5 56.09375 6.984375 
z
" id="CMR17-72"/>
        <path d="M 36 25.828125 
C 36 32.375 36 35.84375 31.796875 39.734375 
C 28.09375 43 23.796875 44 20.40625 44 
C 12.5 44 6.796875 37.609375 6.796875 30.796875 
C 6.796875 27 9.796875 27 10.40625 27 
C 11.703125 27 14 27.78125 14 30.53125 
C 14 33 12.09375 34.078125 10.40625 34.078125 
C 10 34.078125 9.5 33.96875 9.203125 33.875 
C 11.296875 40.5 16.703125 42.40625 20.203125 42.40625 
C 25.203125 42.40625 30.703125 37.953125 30.703125 29.453125 
L 30.703125 25 
C 24.796875 25 17.703125 24.203125 12.09375 21.203125 
C 5.796875 17.703125 4 12.703125 4 8.90625 
C 4 1.203125 13 -1 18.296875 -1 
C 23.796875 -1 28.90625 2.171875 31.09375 7.984375 
C 31.296875 3.640625 34.09375 -0.28125 38.5 -0.28125 
C 40.59375 -0.28125 45.90625 1.09375 45.90625 8.859375 
L 45.90625 14.375 
L 44.09375 14.375 
L 44.09375 8.78125 
C 44.09375 2.78125 41.40625 2 40.09375 2 
C 36 2 36 7.15625 36 11.53125 
z
M 30.703125 13.59375 
C 30.703125 4.953125 24.5 0.59375 19 0.59375 
C 14 0.59375 10.09375 4.296875 10.09375 8.90625 
C 10.09375 11.890625 11.40625 17.1875 17.203125 20.390625 
C 22 23.09375 27.5 23.5 30.703125 23.5 
z
" id="CMR17-97"/>
        <path d="M 29.203125 67.59375 
L 29.203125 65 
C 35.09375 65 36 64.40625 36 59.6875 
L 36 36.640625 
C 35.59375 37.140625 31.5 43.59375 23.40625 43.59375 
C 13.203125 43.59375 3.296875 34.5 3.296875 21.3125 
C 3.296875 8.203125 12.59375 -1 22.40625 -1 
C 30.90625 -1 35.296875 5.265625 35.796875 5.9375 
L 35.796875 -0.984375 
L 47.90625 -0.984375 
L 47.90625 2 
C 42 2 41.09375 2.59375 41.09375 7.390625 
L 41.09375 68.6875 
z
M 35.796875 11.796875 
C 35.796875 8.796875 34 6.09375 31.703125 4.09375 
C 28.296875 1.09375 24.90625 0.59375 23 0.59375 
C 20.09375 0.59375 9.703125 2.09375 9.703125 21.1875 
C 9.703125 40.8125 21.296875 42 23.90625 42 
C 28.5 42 32.203125 39.40625 34.5 35.796875 
C 35.796875 33.703125 35.796875 33.40625 35.796875 31.609375 
z
" id="CMR17-100"/>
       </defs>
       <use transform="scale(0.996264)" xlink:href="#CMR17-72"/>
       <use transform="translate(69.07243 0)scale(0.996264)" xlink:href="#CMR17-101"/>
       <use transform="translate(109.55809 0)scale(0.996264)" xlink:href="#CMR17-97"/>
       <use transform="translate(155.248567 0)scale(0.996264)" xlink:href="#CMR17-100"/>
      </g>
     </g>
    </g>
    <g id="xtick_4">
     <g id="line2d_7">
      <path clip-path="url(#p63dbf650d6)" d="M 88.479959 243.26218 
L 88.479959 21.50218 
" style="fill:none;stroke:#b0b0b0;stroke-dasharray:2.96,1.28;stroke-dashoffset:0;stroke-width:0.8;"/>
     </g>
     <g id="line2d_8">
      <g>
       <use style="stroke:#000000;stroke-width:0.8;" x="88.479959" xlink:href="#ma7856c80af" y="243.26218"/>
      </g>
     </g>
     <g id="text_4">
      <!-- Left arm -->
      <g transform="translate(90.970619 288.341687)rotate(-90)scale(0.1 -0.1)">
       <defs>
        <path d="M 54.203125 25.234375 
L 52.40625 25.234375 
C 51.59375 15.359375 50.296875 2.59375 33.203125 2.59375 
L 23.90625 2.59375 
C 19.90625 2.59375 19.703125 3.078125 19.703125 6.46875 
L 19.703125 60.90625 
C 19.703125 64.515625 19.90625 65.5 27.5 65.5 
L 29.703125 65.5 
L 29.703125 68 
C 25.59375 68 20.796875 68 16.703125 68 
C 13.59375 68 8 68 5.09375 68 
L 5.09375 65.5 
C 12 65.5 13.09375 65.5 13.09375 61.015625 
L 13.09375 7.0625 
C 13.09375 2.59375 12 2.59375 5.09375 2.59375 
L 5.09375 0 
L 51.796875 0 
z
" id="CMR17-76"/>
        <path d="M 15.296875 40 
L 26.703125 40 
L 26.703125 42.578125 
L 15.09375 42.578125 
L 15.09375 54.59375 
C 15.09375 62.84375 19.296875 68 23.59375 68 
C 24.90625 68 26.40625 67.609375 27.40625 66.90625 
C 26.59375 66.703125 24.5 66.015625 24.5 63.546875 
C 24.5 60.953125 26.5 60.15625 27.90625 60.15625 
C 29.296875 60.15625 31.296875 60.953125 31.296875 63.546875 
C 31.296875 67.3125 27.703125 69.59375 23.703125 69.59375 
C 18 69.59375 10.203125 64.9375 10.203125 54.390625 
L 10.203125 42.578125 
L 2.203125 42.578125 
L 2.203125 40 
L 10.203125 40 
L 10.203125 6.671875 
C 10.203125 2.875 9.796875 2.390625 3.40625 2.390625 
L 3.40625 -0.203125 
C 5.796875 0 10.40625 0 13 0 
C 15.90625 0 21 0 23.703125 -0.203125 
L 23.703125 2.390625 
C 16.5 2.390625 15.296875 2.390625 15.296875 6.859375 
z
" id="CMR17-102"/>
        <path d="M 67.59375 30.203125 
C 67.59375 35.1875 66.703125 43.59375 54.796875 43.59375 
C 48 43.59375 43.296875 39 41.5 33.609375 
L 41.40625 33.609375 
C 40.203125 41.8125 34.296875 43.59375 28.703125 43.59375 
C 20.796875 43.59375 16.703125 37.5 15.203125 33.5 
L 15.09375 33.5 
L 15.09375 43.59375 
L 3.296875 42.5 
L 3.296875 39.90625 
C 9.203125 39.90625 10.09375 39.296875 10.09375 34.5 
L 10.09375 6.6875 
C 10.09375 2.875 9.703125 2.390625 3.296875 2.390625 
L 3.296875 -0.203125 
C 5.703125 0 10.09375 0 12.703125 0 
C 15.296875 0 19.796875 0 22.203125 -0.203125 
L 22.203125 2.390625 
C 15.796875 2.390625 15.40625 2.78125 15.40625 6.6875 
L 15.40625 25.90625 
C 15.40625 35.109375 21 42 28 42 
C 35.40625 42 36.203125 35.40625 36.203125 30.59375 
L 36.203125 6.6875 
C 36.203125 2.875 35.796875 2.390625 29.40625 2.390625 
L 29.40625 -0.203125 
C 31.796875 0 36.203125 0 38.796875 0 
C 41.40625 0 45.90625 0 48.296875 -0.203125 
L 48.296875 2.390625 
C 41.90625 2.390625 41.5 2.78125 41.5 6.6875 
L 41.5 25.90625 
C 41.5 35.109375 47.09375 42 54.09375 42 
C 61.5 42 62.296875 35.40625 62.296875 30.59375 
L 62.296875 6.6875 
C 62.296875 2.875 61.90625 2.390625 55.5 2.390625 
L 55.5 -0.203125 
C 57.90625 0 62.296875 0 64.90625 0 
C 67.5 0 72 0 74.40625 -0.203125 
L 74.40625 2.390625 
C 68 2.390625 67.59375 2.78125 67.59375 6.6875 
z
" id="CMR17-109"/>
       </defs>
       <use transform="scale(0.996264)" xlink:href="#CMR17-76"/>
       <use transform="translate(57.381408 0)scale(0.996264)" xlink:href="#CMR17-101"/>
       <use transform="translate(97.867068 0)scale(0.996264)" xlink:href="#CMR17-102"/>
       <use transform="translate(125.340581 0)scale(0.996264)" xlink:href="#CMR17-116"/>
       <use transform="translate(190.697315 0)scale(0.996264)" xlink:href="#CMR17-97"/>
       <use transform="translate(236.387792 0)scale(0.996264)" xlink:href="#CMR17-114"/>
       <use transform="translate(271.66856 0)scale(0.996264)" xlink:href="#CMR17-109"/>
      </g>
     </g>
    </g>
    <g id="xtick_5">
     <g id="line2d_9">
      <path clip-path="url(#p63dbf650d6)" d="M 102.867001 243.26218 
L 102.867001 21.50218 
" style="fill:none;stroke:#b0b0b0;stroke-dasharray:2.96,1.28;stroke-dashoffset:0;stroke-width:0.8;"/>
     </g>
     <g id="line2d_10">
      <g>
       <use style="stroke:#000000;stroke-width:0.8;" x="102.867001" xlink:href="#ma7856c80af" y="243.26218"/>
      </g>
     </g>
     <g id="text_5">
      <!-- Pelvis -->
      <g transform="translate(105.357661 275.916024)rotate(-90)scale(0.1 -0.1)">
       <defs>
        <path d="M 19.796875 31.90625 
L 35.796875 31.90625 
C 48.703125 31.90625 58.09375 40.28125 58.09375 49.75 
C 58.09375 59.234375 48.90625 68 35.796875 68 
L 5.203125 68 
L 5.203125 65.40625 
C 12.09375 65.40625 13.203125 65.40625 13.203125 60.921875 
L 13.203125 6.96875 
C 13.203125 2.5 12.09375 2.5 5.203125 2.5 
L 5.203125 0 
C 8.09375 0 13.40625 0 16.5 0 
C 19.59375 0 24.90625 0 27.796875 0 
L 27.796875 2.5 
C 20.90625 2.5 19.796875 2.5 19.796875 6.96875 
z
M 19.59375 34 
L 19.59375 61.53125 
C 19.59375 64.921875 19.796875 65.40625 23.796875 65.40625 
L 33.90625 65.40625 
C 46.796875 65.40625 50.5 58.03125 50.5 49.75 
C 50.5 40.6875 46.09375 34 33.90625 34 
z
" id="CMR17-80"/>
        <path d="M 15.296875 68.6875 
L 3.40625 67.59375 
L 3.40625 65 
C 9.296875 65 10.203125 64.40625 10.203125 59.640625 
L 10.203125 6.65625 
C 10.203125 2.875 9.796875 2.390625 3.40625 2.390625 
L 3.40625 -0.203125 
C 5.796875 0 10.203125 0 12.703125 0 
C 15.296875 0 19.703125 0 22.09375 -0.203125 
L 22.09375 2.390625 
C 15.703125 2.390625 15.296875 2.78125 15.296875 6.65625 
z
" id="CMR17-108"/>
        <path d="M 39.09375 33.796875 
C 40 36 41.59375 40 47.40625 40 
L 47.40625 42.59375 
C 45.5 42.59375 43 42.59375 41.09375 42.59375 
C 39 42.59375 35.703125 42.59375 33.703125 42.6875 
L 33.703125 40.09375 
C 36.203125 39.890625 37.59375 38.703125 37.59375 36.109375 
C 37.59375 35.203125 37.59375 35 37 33.609375 
L 26 5.890625 
L 14.09375 35.71875 
C 13.5 37.015625 13.5 37.203125 13.5 37.609375 
C 13.5 40 16.796875 40 18.296875 40 
L 18.296875 42.6875 
C 15.90625 42.59375 11.5 42.59375 9 42.59375 
C 6.296875 42.59375 3.203125 42.59375 1 42.6875 
L 1 40 
C 4.796875 40 6.90625 40 8.09375 36.90625 
L 22.59375 0.6875 
C 23.203125 -0.796875 23.296875 -1 24.203125 -1 
C 25.09375 -1 25.203125 -0.796875 25.796875 0.6875 
z
" id="CMR17-118"/>
        <path d="M 15.5 61.078125 
C 15.5 63.265625 13.703125 65.15625 11.40625 65.15625 
C 9.203125 65.15625 7.296875 63.375 7.296875 61.078125 
C 7.296875 58.890625 9.09375 57 11.40625 57 
C 13.59375 57 15.5 58.796875 15.5 61.078125 
z
M 3.796875 42.28125 
L 3.796875 39.703125 
C 9.40625 39.703125 10.203125 39.09375 10.203125 34.328125 
L 10.203125 6.671875 
C 10.203125 2.875 9.796875 2.390625 3.40625 2.390625 
L 3.40625 -0.203125 
C 5.796875 0 10.09375 0 12.59375 0 
C 15 0 19.09375 0 21.40625 -0.203125 
L 21.40625 2.390625 
C 15.5 2.390625 15.296875 2.984375 15.296875 6.5625 
L 15.296875 43.375 
z
" id="CMR17-105"/>
       </defs>
       <use transform="scale(0.996264)" xlink:href="#CMR17-80"/>
       <use transform="translate(59.983847 0)scale(0.996264)" xlink:href="#CMR17-101"/>
       <use transform="translate(100.469507 0)scale(0.996264)" xlink:href="#CMR17-108"/>
       <use transform="translate(125.340566 0)scale(0.996264)" xlink:href="#CMR17-118"/>
       <use transform="translate(173.633481 0)scale(0.996264)" xlink:href="#CMR17-105"/>
       <use transform="translate(198.50454 0)scale(0.996264)" xlink:href="#CMR17-115"/>
      </g>
     </g>
    </g>
    <g id="xtick_6">
     <g id="line2d_11">
      <path clip-path="url(#p63dbf650d6)" d="M 117.254044 243.26218 
L 117.254044 21.50218 
" style="fill:none;stroke:#b0b0b0;stroke-dasharray:2.96,1.28;stroke-dashoffset:0;stroke-width:0.8;"/>
     </g>
     <g id="line2d_12">
      <g>
       <use style="stroke:#000000;stroke-width:0.8;" x="117.254044" xlink:href="#ma7856c80af" y="243.26218"/>
      </g>
     </g>
     <g id="text_6">
      <!-- Right leg -->
      <g transform="translate(119.744704 289.974434)rotate(-90)scale(0.1 -0.1)">
       <defs>
        <path d="M 39.203125 33.53125 
C 48.703125 35.4375 56.703125 41.8125 56.703125 49.78125 
C 56.703125 59.140625 46.09375 67.59375 32.09375 67.59375 
L 5.203125 67.59375 
L 5.203125 65 
C 12.09375 65 13.203125 65 13.203125 60.515625 
L 13.203125 6.484375 
C 13.203125 2 12.09375 2 5.203125 2 
L 5.203125 -0.40625 
C 8.09375 -0.40625 13.296875 -0.40625 16.40625 -0.40625 
C 19.5 -0.40625 24.703125 -0.40625 27.59375 -0.40625 
L 27.59375 2 
C 20.703125 2 19.59375 2 19.59375 6.515625 
L 19.59375 33 
L 31.296875 33 
C 37 33 40.203125 30.6875 41.59375 29.390625 
C 45.59375 25.5 45.59375 22.796875 45.59375 16 
C 45.59375 9.296875 45.59375 5.890625 48.59375 2.5 
C 52.40625 -1.59375 57.5 -2 59.703125 -2 
C 67.09375 -2 68.203125 6.1875 68.203125 7.859375 
C 68.203125 8.4375 68.203125 9.140625 67.296875 9.140625 
C 66.5 9.140625 66.40625 8.546875 66.40625 8.15625 
C 65.90625 1.75 63 -0.40625 59.90625 -0.40625 
C 54.40625 -0.40625 53.796875 5.859375 53.203125 11.9375 
C 52.90625 14.03125 52.703125 15.515625 52.5 17.703125 
C 51.90625 22.6875 51.09375 29.953125 39.203125 33.53125 
z
M 31 34.59375 
L 19.59375 34.59375 
L 19.59375 61.140625 
C 19.59375 64.515625 19.796875 65 23.796875 65 
L 31.09375 65 
C 39.40625 65 49.09375 62.140625 49.09375 49.84375 
C 49.09375 37.0625 38.5 34.59375 31 34.59375 
z
" id="CMR17-82"/>
        <path d="M 11.09375 18.1875 
C 13 16.6875 16.296875 15 20.296875 15 
C 28.203125 15 35 21.203125 35 29.5 
C 35 32.09375 34.203125 36.09375 31.203125 39.203125 
C 34 42.0625 38.09375 43 40.40625 43 
C 40.796875 43 41.40625 43 41.90625 42.71875 
C 41.5 42.625 40.59375 42.234375 40.59375 40.703125 
C 40.59375 39.484375 41.5 38.609375 42.796875 38.609375 
C 44.296875 38.609375 45.09375 39.578125 45.09375 40.84375 
C 45.09375 42.671875 43.59375 44.59375 40.40625 44.59375 
C 36.40625 44.59375 32.90625 42.78125 30.09375 40.3125 
C 27.09375 43.015625 23.5 44 20.296875 44 
C 12.40625 44 5.59375 37.796875 5.59375 29.5 
C 5.59375 23.78125 8.90625 20.1875 9.90625 19.1875 
C 6.90625 15.6875 6.90625 11.609375 6.90625 11.109375 
C 6.90625 8.515625 7.90625 4.71875 11.296875 2.625 
C 6.09375 1.328125 2 -2.640625 2 -7.59375 
C 2 -14.734375 11.5 -20 22.90625 -20 
C 33.90625 -20 43.796875 -14.9375 43.796875 -7.484375 
C 43.796875 6 29 6 21.296875 6 
C 19 6 14.90625 6 14.40625 6.109375 
C 11.296875 6.609375 9.203125 9.40625 9.203125 12.90625 
C 9.203125 13.796875 9.203125 16 11.09375 18.1875 
z
M 20.296875 16.6875 
C 11.5 16.6875 11.5 27.5 11.5 29.515625 
C 11.5 31.5 11.5 42.3125 20.296875 42.3125 
C 29.09375 42.3125 29.09375 31.5 29.09375 29.515625 
C 29.09375 27.5 29.09375 16.6875 20.296875 16.6875 
z
M 22.90625 -18.296875 
C 12.90625 -18.296875 6 -13.046875 6 -7.59375 
C 6 -4.515625 7.703125 -1.640625 9.90625 -0.0625 
C 12.40625 1.625 13.40625 1.625 20.203125 1.625 
C 28.40625 1.625 39.796875 1.625 39.796875 -7.59375 
C 39.796875 -13.046875 32.90625 -18.296875 22.90625 -18.296875 
z
" id="CMR17-103"/>
       </defs>
       <use transform="scale(0.996264)" xlink:href="#CMR17-82"/>
       <use transform="translate(67.791102 0)scale(0.996264)" xlink:href="#CMR17-105"/>
       <use transform="translate(92.66216 0)scale(0.996264)" xlink:href="#CMR17-103"/>
       <use transform="translate(138.352638 0)scale(0.996264)" xlink:href="#CMR17-104"/>
       <use transform="translate(186.645553 0)scale(0.996264)" xlink:href="#CMR17-116"/>
       <use transform="translate(252.002288 0)scale(0.996264)" xlink:href="#CMR17-108"/>
       <use transform="translate(276.873346 0)scale(0.996264)" xlink:href="#CMR17-101"/>
       <use transform="translate(317.359007 0)scale(0.996264)" xlink:href="#CMR17-103"/>
      </g>
     </g>
    </g>
    <g id="xtick_7">
     <g id="line2d_13">
      <path clip-path="url(#p63dbf650d6)" d="M 131.641086 243.26218 
L 131.641086 21.50218 
" style="fill:none;stroke:#b0b0b0;stroke-dasharray:2.96,1.28;stroke-dashoffset:0;stroke-width:0.8;"/>
     </g>
     <g id="line2d_14">
      <g>
       <use style="stroke:#000000;stroke-width:0.8;" x="131.641086" xlink:href="#ma7856c80af" y="243.26218"/>
      </g>
     </g>
     <g id="text_7">
      <!-- Right arm -->
      <g transform="translate(134.131746 294.983452)rotate(-90)scale(0.1 -0.1)">
       <use transform="scale(0.996264)" xlink:href="#CMR17-82"/>
       <use transform="translate(67.791102 0)scale(0.996264)" xlink:href="#CMR17-105"/>
       <use transform="translate(92.66216 0)scale(0.996264)" xlink:href="#CMR17-103"/>
       <use transform="translate(138.352638 0)scale(0.996264)" xlink:href="#CMR17-104"/>
       <use transform="translate(186.645553 0)scale(0.996264)" xlink:href="#CMR17-116"/>
       <use transform="translate(252.002288 0)scale(0.996264)" xlink:href="#CMR17-97"/>
       <use transform="translate(297.692765 0)scale(0.996264)" xlink:href="#CMR17-114"/>
       <use transform="translate(332.973532 0)scale(0.996264)" xlink:href="#CMR17-109"/>
      </g>
     </g>
    </g>
   </g>
   <g id="matplotlib.axis_2">
    <g id="ytick_1">
     <g id="line2d_15">
      <path clip-path="url(#p63dbf650d6)" d="M 38.125311 243.26218 
L 138.834607 243.26218 
" style="fill:none;stroke:#b0b0b0;stroke-dasharray:2.96,1.28;stroke-dashoffset:0;stroke-width:0.8;"/>
     </g>
     <g id="line2d_16">
      <defs>
       <path d="M 0 0 
L -3.5 0 
" id="mf16360b296" style="stroke:#000000;stroke-width:0.8;"/>
      </defs>
      <g>
       <use style="stroke:#000000;stroke-width:0.8;" x="38.125311" xlink:href="#mf16360b296" y="243.26218"/>
      </g>
     </g>
     <g id="text_8">
      <!-- $\mathdefault{0}$ -->
      <g transform="translate(26.143975 246.721429)scale(0.1 -0.1)">
       <defs>
        <path d="M 42 31.640625 
C 42 37.75 41.90625 48.125 37.703125 56.109375 
C 34 63.109375 28.09375 65.59375 22.90625 65.59375 
C 18.09375 65.59375 12 63.40625 8.203125 56.203125 
C 4.203125 48.71875 3.796875 39.4375 3.796875 31.640625 
C 3.796875 25.953125 3.90625 17.28125 7 9.671875 
C 11.296875 -0.609375 19 -2 22.90625 -2 
C 27.5 -2 34.5 -0.109375 38.59375 9.375 
C 41.59375 16.28125 42 24.359375 42 31.640625 
z
M 22.90625 -0.40625 
C 16.5 -0.40625 12.703125 5.078125 11.296875 12.6875 
C 10.203125 18.5625 10.203125 27.15625 10.203125 32.75 
C 10.203125 40.4375 10.203125 46.828125 11.5 52.921875 
C 13.40625 61.390625 19 64 22.90625 64 
C 27 64 32.296875 61.296875 34.203125 53.125 
C 35.5 47.4375 35.59375 40.734375 35.59375 32.75 
C 35.59375 26.25 35.59375 18.265625 34.40625 12.375 
C 32.296875 1.484375 26.40625 -0.40625 22.90625 -0.40625 
z
" id="CMR17-48"/>
       </defs>
       <use transform="scale(0.996264)" xlink:href="#CMR17-48"/>
      </g>
     </g>
    </g>
    <g id="ytick_2">
     <g id="line2d_17">
      <path clip-path="url(#p63dbf650d6)" d="M 38.125311 206.364297 
L 138.834607 206.364297 
" style="fill:none;stroke:#b0b0b0;stroke-dasharray:2.96,1.28;stroke-dashoffset:0;stroke-width:0.8;"/>
     </g>
     <g id="line2d_18">
      <g>
       <use style="stroke:#000000;stroke-width:0.8;" x="38.125311" xlink:href="#mf16360b296" y="206.364297"/>
      </g>
     </g>
     <g id="text_9">
      <!-- $\mathdefault{10}$ -->
      <g transform="translate(21.16264 209.823547)scale(0.1 -0.1)">
       <defs>
        <path d="M 26.59375 63.40625 
C 26.59375 65.5 26.5 65.5 25.09375 65.5 
C 21.203125 61.1875 15.296875 59.796875 9.703125 59.796875 
C 9.40625 59.796875 8.90625 59.796875 8.796875 59.5 
C 8.703125 59.296875 8.703125 59.09375 8.703125 57 
C 11.796875 57 17 57.59375 21 59.984375 
L 21 7.203125 
C 21 3.6875 20.796875 2.5 12.203125 2.5 
L 9.203125 2.5 
L 9.203125 0 
C 14 0 19 0 23.796875 0 
C 28.59375 0 33.59375 0 38.40625 0 
L 38.40625 2.5 
L 35.40625 2.5 
C 26.796875 2.5 26.59375 3.59375 26.59375 7.15625 
z
" id="CMR17-49"/>
       </defs>
       <use transform="scale(0.996264)" xlink:href="#CMR17-49"/>
       <use transform="translate(45.690477 0)scale(0.996264)" xlink:href="#CMR17-48"/>
      </g>
     </g>
    </g>
    <g id="ytick_3">
     <g id="line2d_19">
      <path clip-path="url(#p63dbf650d6)" d="M 38.125311 169.466415 
L 138.834607 169.466415 
" style="fill:none;stroke:#b0b0b0;stroke-dasharray:2.96,1.28;stroke-dashoffset:0;stroke-width:0.8;"/>
     </g>
     <g id="line2d_20">
      <g>
       <use style="stroke:#000000;stroke-width:0.8;" x="38.125311" xlink:href="#mf16360b296" y="169.466415"/>
      </g>
     </g>
     <g id="text_10">
      <!-- $\mathdefault{20}$ -->
      <g transform="translate(21.16264 172.925664)scale(0.1 -0.1)">
       <defs>
        <path d="M 41.703125 15.453125 
L 39.90625 15.453125 
C 38.90625 8.375 38.09375 7.171875 37.703125 6.5625 
C 37.203125 5.765625 30 5.765625 28.59375 5.765625 
L 9.40625 5.765625 
C 13 9.671875 20 16.75 28.5 24.953125 
C 34.59375 30.734375 41.703125 37.53125 41.703125 47.421875 
C 41.703125 59.21875 32.296875 66 21.796875 66 
C 10.796875 66 4.09375 56.3125 4.09375 47.34375 
C 4.09375 43.4375 7 42.9375 8.203125 42.9375 
C 9.203125 42.9375 12.203125 43.546875 12.203125 47.03125 
C 12.203125 50.109375 9.59375 51 8.203125 51 
C 7.59375 51 7 50.90625 6.59375 50.703125 
C 8.5 59.21875 14.296875 63.40625 20.40625 63.40625 
C 29.09375 63.40625 34.796875 56.515625 34.796875 47.421875 
C 34.796875 38.734375 29.703125 31.25 24 24.75 
L 4.09375 2.28125 
L 4.09375 0 
L 39.296875 0 
z
" id="CMR17-50"/>
       </defs>
       <use transform="scale(0.996264)" xlink:href="#CMR17-50"/>
       <use transform="translate(45.690477 0)scale(0.996264)" xlink:href="#CMR17-48"/>
      </g>
     </g>
    </g>
    <g id="ytick_4">
     <g id="line2d_21">
      <path clip-path="url(#p63dbf650d6)" d="M 38.125311 132.568533 
L 138.834607 132.568533 
" style="fill:none;stroke:#b0b0b0;stroke-dasharray:2.96,1.28;stroke-dashoffset:0;stroke-width:0.8;"/>
     </g>
     <g id="line2d_22">
      <g>
       <use style="stroke:#000000;stroke-width:0.8;" x="38.125311" xlink:href="#mf16360b296" y="132.568533"/>
      </g>
     </g>
     <g id="text_11">
      <!-- $\mathdefault{30}$ -->
      <g transform="translate(21.16264 136.027782)scale(0.1 -0.1)">
       <defs>
        <path d="M 22.09375 33.703125 
C 31 33.703125 34.90625 25.96875 34.90625 17.03125 
C 34.90625 5 28.5 0.390625 22.703125 0.390625 
C 17.40625 0.390625 8.796875 3.03125 6.09375 10.828125 
C 6.59375 10.625 7.09375 10.625 7.59375 10.625 
C 10 10.625 11.796875 12.21875 11.796875 14.8125 
C 11.796875 17.703125 9.59375 19 7.59375 19 
C 5.90625 19 3.296875 18.203125 3.296875 14.46875 
C 3.296875 5.234375 12.296875 -2 22.90625 -2 
C 34 -2 42.5 6.71875 42.5 16.953125 
C 42.5 26.671875 34.5 33.703125 25 34.796875 
C 32.59375 36.375 39.90625 43.0625 39.90625 52.015625 
C 39.90625 59.6875 32 65.296875 23 65.296875 
C 13.90625 65.296875 5.90625 59.828125 5.90625 52.015625 
C 5.90625 48.59375 8.5 48 9.796875 48 
C 11.90625 48 13.703125 49.296875 13.703125 51.890625 
C 13.703125 54.46875 11.90625 55.765625 9.796875 55.765625 
C 9.40625 55.765625 8.90625 55.765625 8.5 55.578125 
C 11.40625 61.859375 19.296875 63 22.796875 63 
C 26.296875 63 32.90625 61.328125 32.90625 51.875 
C 32.90625 49.109375 32.5 44.1875 29.09375 39.84375 
C 26.09375 36 22.703125 36 19.40625 35.6875 
C 18.90625 35.6875 16.59375 35.453125 16.203125 35.453125 
C 15.5 35.359375 15.09375 35.265625 15.09375 34.5 
C 15.09375 33.796875 15.203125 33.703125 17.203125 33.703125 
z
" id="CMR17-51"/>
       </defs>
       <use transform="scale(0.996264)" xlink:href="#CMR17-51"/>
       <use transform="translate(45.690477 0)scale(0.996264)" xlink:href="#CMR17-48"/>
      </g>
     </g>
    </g>
    <g id="ytick_5">
     <g id="line2d_23">
      <path clip-path="url(#p63dbf650d6)" d="M 38.125311 95.67065 
L 138.834607 95.67065 
" style="fill:none;stroke:#b0b0b0;stroke-dasharray:2.96,1.28;stroke-dashoffset:0;stroke-width:0.8;"/>
     </g>
     <g id="line2d_24">
      <g>
       <use style="stroke:#000000;stroke-width:0.8;" x="38.125311" xlink:href="#mf16360b296" y="95.67065"/>
      </g>
     </g>
     <g id="text_12">
      <!-- $\mathdefault{40}$ -->
      <g transform="translate(21.16264 99.1299)scale(0.1 -0.1)">
       <defs>
        <path d="M 33.59375 64.40625 
C 33.59375 66.5 33.5 66.5 31.703125 66.5 
L 2 19.59375 
L 2 17 
L 27.796875 17 
L 27.796875 7.140625 
C 27.796875 3.5 27.59375 2.5 20.59375 2.5 
L 18.703125 2.5 
L 18.703125 0 
C 21.90625 0 27.296875 0 30.703125 0 
C 34.09375 0 39.5 0 42.703125 0 
L 42.703125 2.5 
L 40.796875 2.5 
C 33.796875 2.5 33.59375 3.5 33.59375 7.140625 
L 33.59375 17 
L 43.796875 17 
L 43.796875 19.59375 
L 33.59375 19.59375 
z
M 28.09375 57.859375 
L 28.09375 19.59375 
L 4 19.59375 
z
" id="CMR17-52"/>
       </defs>
       <use transform="scale(0.996264)" xlink:href="#CMR17-52"/>
       <use transform="translate(45.690477 0)scale(0.996264)" xlink:href="#CMR17-48"/>
      </g>
     </g>
    </g>
    <g id="ytick_6">
     <g id="line2d_25">
      <path clip-path="url(#p63dbf650d6)" d="M 38.125311 58.772768 
L 138.834607 58.772768 
" style="fill:none;stroke:#b0b0b0;stroke-dasharray:2.96,1.28;stroke-dashoffset:0;stroke-width:0.8;"/>
     </g>
     <g id="line2d_26">
      <g>
       <use style="stroke:#000000;stroke-width:0.8;" x="38.125311" xlink:href="#mf16360b296" y="58.772768"/>
      </g>
     </g>
     <g id="text_13">
      <!-- $\mathdefault{50}$ -->
      <g transform="translate(21.16264 62.232017)scale(0.1 -0.1)">
       <defs>
        <path d="M 11.40625 57.6875 
C 12.40625 57.28125 16.5 56 20.703125 56 
C 30 56 35.09375 61.109375 38 64.0625 
C 38 64.953125 38 65.5 37.40625 65.5 
C 37.296875 65.5 37.09375 65.5 36.296875 65.046875 
C 32.796875 63.40625 28.703125 62.078125 23.703125 62.078125 
C 20.703125 62.078125 16.203125 62.484375 11.296875 64.671875 
C 10.203125 65.171875 10 65.171875 9.90625 65.171875 
C 9.40625 65.171875 9.296875 65.0625 9.296875 63.078125 
L 9.296875 34.421875 
C 9.296875 32.640625 9.296875 32.140625 10.296875 32.140625 
C 10.796875 32.140625 11 32.34375 11.5 33.03125 
C 14.703125 37.515625 19.09375 39.40625 24.09375 39.40625 
C 27.59375 39.40625 35.09375 37.21875 35.09375 20.140625 
C 35.09375 16.953125 35.09375 11.171875 32.09375 6.578125 
C 29.59375 2.484375 25.703125 0.390625 21.40625 0.390625 
C 14.796875 0.390625 8.09375 5 6.296875 12.71875 
C 6.703125 12.609375 7.5 12.421875 7.90625 12.421875 
C 9.203125 12.421875 11.703125 13.125 11.703125 16.21875 
C 11.703125 18.90625 9.796875 20 7.90625 20 
C 5.59375 20 4.09375 18.59375 4.09375 15.796875 
C 4.09375 7.09375 11 -2 21.59375 -2 
C 31.90625 -2 41.703125 6.875 41.703125 19.75 
C 41.703125 31.71875 33.90625 41 24.203125 41 
C 19.09375 41 14.796875 39.109375 11.40625 35.53125 
z
" id="CMR17-53"/>
       </defs>
       <use transform="scale(0.996264)" xlink:href="#CMR17-53"/>
       <use transform="translate(45.690477 0)scale(0.996264)" xlink:href="#CMR17-48"/>
      </g>
     </g>
    </g>
    <g id="ytick_7">
     <g id="line2d_27">
      <path clip-path="url(#p63dbf650d6)" d="M 38.125311 21.874886 
L 138.834607 21.874886 
" style="fill:none;stroke:#b0b0b0;stroke-dasharray:2.96,1.28;stroke-dashoffset:0;stroke-width:0.8;"/>
     </g>
     <g id="line2d_28">
      <g>
       <use style="stroke:#000000;stroke-width:0.8;" x="38.125311" xlink:href="#mf16360b296" y="21.874886"/>
      </g>
     </g>
     <g id="text_14">
      <!-- $\mathdefault{60}$ -->
      <g transform="translate(21.16264 25.334135)scale(0.1 -0.1)">
       <defs>
        <path d="M 10.59375 34 
C 10.59375 57.65625 21.796875 63 28.296875 63 
C 30.40625 63 35.5 62.640625 37.5 59 
C 35.90625 59 32.90625 59 32.90625 55.515625 
C 32.90625 52.828125 35.09375 51.921875 36.5 51.921875 
C 37.40625 51.921875 40.09375 52.3125 40.09375 55.625 
C 40.09375 61.78125 35.09375 65.296875 28.203125 65.296875 
C 16.296875 65.296875 3.796875 52.96875 3.796875 31 
C 3.796875 3.953125 15.09375 -2 23.09375 -2 
C 32.796875 -2 42 6.671875 42 20.046875 
C 42 32.515625 33.90625 41.59375 23.703125 41.59375 
C 17.59375 41.59375 13.09375 37.609375 10.59375 30.625 
z
M 23.09375 0.390625 
C 10.796875 0.390625 10.796875 18.75 10.796875 22.4375 
C 10.796875 29.625 14.203125 40 23.5 40 
C 25.203125 40 30.09375 40 33.40625 33.125 
C 35.203125 29.21875 35.203125 25.140625 35.203125 20.140625 
C 35.203125 14.75 35.203125 10.78125 33.09375 6.78125 
C 30.90625 2.671875 27.703125 0.390625 23.09375 0.390625 
z
" id="CMR17-54"/>
       </defs>
       <use transform="scale(0.996264)" xlink:href="#CMR17-54"/>
       <use transform="translate(45.690477 0)scale(0.996264)" xlink:href="#CMR17-48"/>
      </g>
     </g>
    </g>
    <g id="text_15">
     <!-- Viewing time [pct] -->
     <g transform="translate(14.67198 172.786298)rotate(-90)scale(0.1 -0.1)">
      <defs>
       <path d="M 59 58.515625 
C 59.90625 60.71875 61.5 65 68.203125 65 
L 68.203125 67.6875 
C 65.90625 67.484375 63.296875 67.484375 60.796875 67.484375 
C 58.40625 67.484375 54.296875 67.484375 52 67.6875 
L 52 65 
C 57 65 57.203125 61.5 57.203125 60.90625 
C 57.203125 59.796875 56.90625 59.109375 56.59375 58.3125 
L 36.90625 6.96875 
L 16.296875 60.71875 
C 16 61.421875 15.796875 61.921875 15.796875 62.40625 
C 15.796875 65 19.796875 65 21.90625 65 
L 21.90625 67.484375 
C 18.703125 67.484375 14 67.484375 10.703125 67.484375 
C 8.09375 67.484375 3.40625 67.484375 1 67.6875 
L 1 65 
C 6.796875 65 7.90625 64.609375 9.09375 61.421875 
L 32.90625 -0.40625 
C 33.40625 -1.796875 33.5 -2 34.59375 -2 
C 35.703125 -2 35.796875 -1.796875 36.296875 -0.40625 
z
" id="CMR17-86"/>
       <path d="M 58.203125 34.109375 
C 60.203125 40 64.203125 40 65.703125 40 
L 65.703125 42.6875 
C 63.703125 42.6875 61.703125 42.6875 59.703125 42.6875 
C 57.796875 42.6875 53.5 42.6875 51.796875 42.78125 
L 51.796875 40 
C 54.90625 40 56.59375 38.203125 56.59375 35.71875 
C 56.59375 35.015625 56.40625 34.125 56.203125 33.4375 
L 46.796875 6.359375 
L 36.59375 35.546875 
C 36.40625 36.234375 36.09375 37.03125 36.09375 37.421875 
C 36.09375 40 39.5 40 41.09375 40 
L 41.09375 42.78125 
C 38.796875 42.6875 34.59375 42.6875 32.203125 42.6875 
C 29.703125 42.6875 27.09375 42.6875 24.796875 42.78125 
L 24.796875 40 
C 30.296875 40 30.296875 39.796875 32.40625 33.578125 
L 23.203125 7.046875 
L 13.296875 35.640625 
C 12.796875 36.921875 12.796875 37.125 12.796875 37.421875 
C 12.796875 40 16.203125 40 17.796875 40 
L 17.796875 42.78125 
C 15.40625 42.6875 11.203125 42.6875 8.703125 42.6875 
C 6.5 42.6875 3.09375 42.6875 1 42.78125 
L 1 40 
C 5.40625 40 6.5 39.703125 7.59375 36.421875 
L 19.90625 0.765625 
C 20.296875 -0.515625 20.59375 -0.8125 21.40625 -0.8125 
C 22.09375 -0.8125 22.5 -0.609375 23 0.875 
L 33.296875 30.9375 
L 43.703125 0.875 
C 44.203125 -0.609375 44.59375 -0.8125 45.296875 -0.8125 
C 46.09375 -0.8125 46.40625 -0.515625 46.796875 0.78125 
z
" id="CMR17-119"/>
       <path d="M 41.5 30.203125 
C 41.5 35.296875 40.5 43.59375 28.703125 43.59375 
C 20.796875 43.59375 16.703125 37.5 15.203125 33.5 
L 15.09375 33.5 
L 15.09375 43.59375 
L 3.296875 42.5 
L 3.296875 39.90625 
C 9.203125 39.90625 10.09375 39.296875 10.09375 34.5 
L 10.09375 6.6875 
C 10.09375 2.875 9.703125 2.390625 3.296875 2.390625 
L 3.296875 -0.203125 
C 5.703125 0 10.09375 0 12.703125 0 
C 15.296875 0 19.796875 0 22.203125 -0.203125 
L 22.203125 2.390625 
C 15.796875 2.390625 15.40625 2.78125 15.40625 6.6875 
L 15.40625 25.90625 
C 15.40625 35.109375 21 42 28 42 
C 35.40625 42 36.203125 35.40625 36.203125 30.59375 
L 36.203125 6.6875 
C 36.203125 2.875 35.796875 2.390625 29.40625 2.390625 
L 29.40625 -0.203125 
C 31.796875 0 36.203125 0 38.796875 0 
C 41.40625 0 45.90625 0 48.296875 -0.203125 
L 48.296875 2.390625 
C 41.90625 2.390625 41.5 2.78125 41.5 6.6875 
z
" id="CMR17-110"/>
       <path d="M 23.5 -25 
L 23.5 -21.515625 
L 14.09375 -21.515625 
L 14.09375 71 
L 23.5 71 
L 23.5 74.484375 
L 10.59375 74.484375 
L 10.59375 -25 
z
" id="CMR17-91"/>
       <path d="M 22 -16.609375 
C 15.59375 -16.609375 15.203125 -16.203125 15.203125 -12.328125 
L 15.203125 6.28125 
C 18.09375 2.09375 22.296875 -0.59375 27.59375 -0.59375 
C 37.59375 -0.59375 47.703125 8.171875 47.703125 21.6875 
C 47.703125 34.234375 39 43.78125 28.703125 43.78125 
C 22.703125 43.78125 17.796875 40.5 15 36.53125 
L 15 43.78125 
L 3.09375 42.6875 
L 3.09375 40.109375 
C 9 40.109375 9.90625 39.5 9.90625 34.734375 
L 9.90625 -12.328125 
C 9.90625 -16.109375 9.5 -16.609375 3.09375 -16.609375 
L 3.09375 -19.1875 
C 5.5 -19 9.90625 -19 12.5 -19 
C 15.09375 -19 19.59375 -19 22 -19.1875 
z
M 15.203125 31.4375 
C 15.203125 32.84375 15.203125 34.921875 19.09375 38.609375 
C 19.59375 39.015625 23 42 28 42 
C 35.296875 42 41.296875 32.9375 41.296875 21.59375 
C 41.296875 10.25 34.90625 1 27 1 
C 23.40625 1 19.5 2.6875 16.5 7.375 
C 15.203125 9.5625 15.203125 10.15625 15.203125 11.75 
z
" id="CMR17-112"/>
       <path d="M 34.90625 35 
C 33 35 30.203125 35 30.203125 31.515625 
C 30.203125 28.71875 32.5 27.921875 33.796875 27.921875 
C 34.5 27.921875 37.40625 28.234375 37.40625 31.625 
C 37.40625 38.546875 30.59375 43.796875 22.90625 43.796875 
C 12.296875 43.796875 3.296875 34.03125 3.296875 21.296875 
C 3.296875 8.0625 12.703125 -1 22.90625 -1 
C 35.296875 -1 38.40625 10.578125 38.40625 11.6875 
C 38.40625 12.09375 38.296875 12.390625 37.59375 12.390625 
C 36.90625 12.390625 36.796875 12.296875 36.40625 10.984375 
C 33.796875 2.8125 28.09375 0.796875 23.796875 0.796875 
C 17.40625 0.796875 9.703125 6.671875 9.703125 21.390625 
C 9.703125 36.53125 17.09375 42 23 42 
C 26.90625 42 32.703125 40.203125 34.90625 35 
z
" id="CMR17-99"/>
       <path d="M 14.296875 74.484375 
L 1.40625 74.484375 
L 1.40625 71 
L 10.796875 71 
L 10.796875 -21.515625 
L 1.40625 -21.515625 
L 1.40625 -25 
L 14.296875 -25 
z
" id="CMR17-93"/>
      </defs>
      <use transform="scale(0.996264)" xlink:href="#CMR17-86"/>
      <use transform="translate(69.07243 0)scale(0.996264)" xlink:href="#CMR17-105"/>
      <use transform="translate(93.943488 0)scale(0.996264)" xlink:href="#CMR17-101"/>
      <use transform="translate(134.429149 0)scale(0.996264)" xlink:href="#CMR17-119"/>
      <use transform="translate(200.939029 0)scale(0.996264)" xlink:href="#CMR17-105"/>
      <use transform="translate(225.810088 0)scale(0.996264)" xlink:href="#CMR17-110"/>
      <use transform="translate(276.705458 0)scale(0.996264)" xlink:href="#CMR17-103"/>
      <use transform="translate(352.471901 0)scale(0.996264)" xlink:href="#CMR17-116"/>
      <use transform="translate(387.752669 0)scale(0.996264)" xlink:href="#CMR17-105"/>
      <use transform="translate(412.623727 0)scale(0.996264)" xlink:href="#CMR17-109"/>
      <use transform="translate(489.543317 0)scale(0.996264)" xlink:href="#CMR17-101"/>
      <use transform="translate(560.104944 0)scale(0.996264)" xlink:href="#CMR17-91"/>
      <use transform="translate(584.976002 0)scale(0.996264)" xlink:href="#CMR17-112"/>
      <use transform="translate(638.473811 0)scale(0.996264)" xlink:href="#CMR17-99"/>
      <use transform="translate(678.959471 0)scale(0.996264)" xlink:href="#CMR17-116"/>
      <use transform="translate(714.240239 0)scale(0.996264)" xlink:href="#CMR17-93"/>
     </g>
    </g>
   </g>
   <g id="patch_3">
    <path clip-path="url(#p63dbf650d6)" d="M 41.722071 243.26218 
L 48.915592 243.26218 
L 48.915592 78.029239 
L 41.722071 78.029239 
z
" style="fill:#909090;"/>
   </g>
   <g id="patch_4">
    <path clip-path="url(#p63dbf650d6)" d="M 56.109114 243.26218 
L 63.302635 243.26218 
L 63.302635 110.951592 
L 56.109114 110.951592 
z
" style="fill:#909090;"/>
   </g>
   <g id="patch_5">
    <path clip-path="url(#p63dbf650d6)" d="M 70.496156 243.26218 
L 77.689677 243.26218 
L 77.689677 190.46218 
L 70.496156 190.46218 
z
" style="fill:#909090;"/>
   </g>
   <g id="patch_6">
    <path clip-path="url(#p63dbf650d6)" d="M 84.883198 243.26218 
L 92.07672 243.26218 
L 92.07672 231.149239 
L 84.883198 231.149239 
z
" style="fill:#909090;"/>
   </g>
   <g id="patch_7">
    <path clip-path="url(#p63dbf650d6)" d="M 99.270241 243.26218 
L 106.463762 243.26218 
L 106.463762 240.466886 
L 99.270241 240.466886 
z
" style="fill:#909090;"/>
   </g>
   <g id="patch_8">
    <path clip-path="url(#p63dbf650d6)" d="M 113.657283 243.26218 
L 120.850804 243.26218 
L 120.850804 240.466886 
L 113.657283 240.466886 
z
" style="fill:#909090;"/>
   </g>
   <g id="patch_9">
    <path clip-path="url(#p63dbf650d6)" d="M 128.044325 243.26218 
L 135.237847 243.26218 
L 135.237847 242.330415 
L 128.044325 242.330415 
z
" style="fill:#909090;"/>
   </g>
   <g id="patch_10">
    <path d="M 38.125311 243.26218 
L 38.125311 21.50218 
" style="fill:none;stroke:#000000;stroke-linecap:square;stroke-linejoin:miter;stroke-width:0.8;"/>
   </g>
   <g id="patch_11">
    <path d="M 138.834607 243.26218 
L 138.834607 21.50218 
" style="fill:none;stroke:#000000;stroke-linecap:square;stroke-linejoin:miter;stroke-width:0.8;"/>
   </g>
   <g id="patch_12">
    <path d="M 38.125311 243.26218 
L 138.834607 243.26218 
" style="fill:none;stroke:#000000;stroke-linecap:square;stroke-linejoin:miter;stroke-width:0.8;"/>
   </g>
   <g id="patch_13">
    <path d="M 38.125311 21.50218 
L 138.834607 21.50218 
" style="fill:none;stroke:#000000;stroke-linecap:square;stroke-linejoin:miter;stroke-width:0.8;"/>
   </g>
   <g id="text_16">
    <!-- Algorithmic Labeling -->
    <g transform="translate(34.099033 15.50218)scale(0.12 -0.12)">
     <defs>
      <path d="M 36.296875 68.40625 
C 35.796875 69.703125 35.59375 70 34.59375 70 
C 33.59375 70 33.40625 69.703125 32.90625 68.40625 
L 11.703125 8.84375 
C 9.796875 3.484375 5.796875 2.390625 2.296875 2.390625 
L 2.296875 -0.203125 
C 4.09375 0 8.09375 0 10 0 
C 12.5 0 16.5 0 18.90625 -0.203125 
L 18.90625 2.390625 
C 14.203125 2.390625 13.5 5.640625 13.5 6.859375 
C 13.5 7.765625 13.703125 8.28125 13.90625 8.890625 
L 19.203125 24 
L 45.40625 24 
L 51.40625 6.90625 
C 51.90625 5.703125 51.90625 5.5 51.90625 5.109375 
C 51.90625 2.390625 47.59375 2.390625 45.703125 2.390625 
L 45.703125 0 
C 48.59375 0 53.796875 0 56.90625 0 
C 59.5 0 64.5 0 66.90625 -0.203125 
L 66.90625 2.390625 
C 61.59375 2.390625 59.796875 2.390625 58.5 6.046875 
z
M 32.296875 60.828125 
L 44.5 26.59375 
L 20.09375 26.59375 
z
" id="CMR17-65"/>
      <path d="M 43.09375 21.1875 
C 43.09375 34 33.796875 44 22.90625 44 
C 12 44 2.703125 34 2.703125 21.1875 
C 2.703125 8.609375 12 -1 22.90625 -1 
C 33.796875 -1 43.09375 8.609375 43.09375 21.1875 
z
M 22.90625 0.796875 
C 18.203125 0.796875 14.203125 3.59375 11.90625 7.5 
C 9.40625 11.984375 9.09375 17.59375 9.09375 22 
C 9.09375 26.203125 9.296875 31.40625 11.90625 35.90625 
C 13.90625 39.203125 17.796875 42.40625 22.90625 42.40625 
C 27.40625 42.40625 31.203125 39.90625 33.59375 36.40625 
C 36.703125 31.703125 36.703125 25.109375 36.703125 22 
C 36.703125 18.09375 36.5 12.109375 33.796875 7.296875 
C 31 2.703125 26.703125 0.796875 22.90625 0.796875 
z
" id="CMR17-111"/>
      <path d="M 15 68.6875 
L 3.09375 67.59375 
L 3.09375 65 
C 9 65 9.90625 64.40625 9.90625 59.640625 
L 9.90625 -0.203125 
L 11.703125 -0.203125 
L 14.59375 6.890625 
C 17.5 2.203125 21.796875 -1 27.59375 -1 
C 37.59375 -1 47.703125 7.8125 47.703125 21.40625 
C 47.703125 34.1875 38.703125 43.59375 28.59375 43.59375 
C 22.40625 43.59375 18 40.296875 15 36.40625 
z
M 15.203125 31.3125 
C 15.203125 33.09375 15.203125 33.40625 16.59375 35.5 
C 20.5 41.515625 26.09375 42 28 42 
C 31 42 41.296875 40.390625 41.296875 21.5 
C 41.296875 1.6875 29.5 0.59375 27.09375 0.59375 
C 24 0.59375 19.5 1.78125 16.296875 7.59375 
C 15.203125 9.5 15.203125 9.703125 15.203125 11.484375 
z
" id="CMR17-98"/>
     </defs>
     <use transform="scale(0.996264)" xlink:href="#CMR17-65"/>
     <use transform="translate(69.07243 0)scale(0.996264)" xlink:href="#CMR17-108"/>
     <use transform="translate(93.943488 0)scale(0.996264)" xlink:href="#CMR17-103"/>
     <use transform="translate(139.633965 0)scale(0.996264)" xlink:href="#CMR17-111"/>
     <use transform="translate(185.324443 0)scale(0.996264)" xlink:href="#CMR17-114"/>
     <use transform="translate(220.60521 0)scale(0.996264)" xlink:href="#CMR17-105"/>
     <use transform="translate(245.476269 0)scale(0.996264)" xlink:href="#CMR17-116"/>
     <use transform="translate(280.757037 0)scale(0.996264)" xlink:href="#CMR17-104"/>
     <use transform="translate(331.652406 0)scale(0.996264)" xlink:href="#CMR17-109"/>
     <use transform="translate(408.571996 0)scale(0.996264)" xlink:href="#CMR17-105"/>
     <use transform="translate(433.443055 0)scale(0.996264)" xlink:href="#CMR17-99"/>
     <use transform="translate(504.004682 0)scale(0.996264)" xlink:href="#CMR17-76"/>
     <use transform="translate(561.386089 0)scale(0.996264)" xlink:href="#CMR17-97"/>
     <use transform="translate(607.076567 0)scale(0.996264)" xlink:href="#CMR17-98"/>
     <use transform="translate(660.574375 0)scale(0.996264)" xlink:href="#CMR17-101"/>
     <use transform="translate(701.060035 0)scale(0.996264)" xlink:href="#CMR17-108"/>
     <use transform="translate(725.931094 0)scale(0.996264)" xlink:href="#CMR17-105"/>
     <use transform="translate(750.802152 0)scale(0.996264)" xlink:href="#CMR17-110"/>
     <use transform="translate(801.697522 0)scale(0.996264)" xlink:href="#CMR17-103"/>
    </g>
   </g>
  </g>
  <g id="axes_2">
   <g id="patch_14">
    <path d="M 158.976467 243.26218 
L 259.685763 243.26218 
L 259.685763 21.50218 
L 158.976467 21.50218 
z
" style="fill:#ffffff;"/>
   </g>
   <g id="matplotlib.axis_3">
    <g id="xtick_8">
     <g id="line2d_29">
      <path clip-path="url(#p1053af4efa)" d="M 166.169988 243.26218 
L 166.169988 21.50218 
" style="fill:none;stroke:#b0b0b0;stroke-dasharray:2.96,1.28;stroke-dashoffset:0;stroke-width:0.8;"/>
     </g>
     <g id="line2d_30">
      <g>
       <use style="stroke:#000000;stroke-width:0.8;" x="166.169988" xlink:href="#ma7856c80af" y="243.26218"/>
      </g>
     </g>
     <g id="text_17">
      <!-- Chest -->
      <g transform="translate(168.660648 275.22416)rotate(-90)scale(0.1 -0.1)">
       <use transform="scale(0.996264)" xlink:href="#CMR17-67"/>
       <use transform="translate(66.509881 0)scale(0.996264)" xlink:href="#CMR17-104"/>
       <use transform="translate(117.40525 0)scale(0.996264)" xlink:href="#CMR17-101"/>
       <use transform="translate(157.890911 0)scale(0.996264)" xlink:href="#CMR17-115"/>
       <use transform="translate(193.692248 0)scale(0.996264)" xlink:href="#CMR17-116"/>
      </g>
     </g>
    </g>
    <g id="xtick_9">
     <g id="line2d_31">
      <path clip-path="url(#p1053af4efa)" d="M 180.55703 243.26218 
L 180.55703 21.50218 
" style="fill:none;stroke:#b0b0b0;stroke-dasharray:2.96,1.28;stroke-dashoffset:0;stroke-width:0.8;"/>
     </g>
     <g id="line2d_32">
      <g>
       <use style="stroke:#000000;stroke-width:0.8;" x="180.55703" xlink:href="#ma7856c80af" y="243.26218"/>
      </g>
     </g>
     <g id="text_18">
      <!-- Head -->
      <g transform="translate(183.04769 272.678166)rotate(-90)scale(0.1 -0.1)">
       <use transform="scale(0.996264)" xlink:href="#CMR17-72"/>
       <use transform="translate(69.07243 0)scale(0.996264)" xlink:href="#CMR17-101"/>
       <use transform="translate(109.55809 0)scale(0.996264)" xlink:href="#CMR17-97"/>
       <use transform="translate(155.248567 0)scale(0.996264)" xlink:href="#CMR17-100"/>
      </g>
     </g>
    </g>
    <g id="xtick_10">
     <g id="line2d_33">
      <path clip-path="url(#p1053af4efa)" d="M 194.944073 243.26218 
L 194.944073 21.50218 
" style="fill:none;stroke:#b0b0b0;stroke-dasharray:2.96,1.28;stroke-dashoffset:0;stroke-width:0.8;"/>
     </g>
     <g id="line2d_34">
      <g>
       <use style="stroke:#000000;stroke-width:0.8;" x="194.944073" xlink:href="#ma7856c80af" y="243.26218"/>
      </g>
     </g>
     <g id="text_19">
      <!-- Other -->
      <g transform="translate(197.434733 275.74999)rotate(-90)scale(0.1 -0.1)">
       <use transform="scale(0.996264)" xlink:href="#CMR17-79"/>
       <use transform="translate(71.714788 0)scale(0.996264)" xlink:href="#CMR17-116"/>
       <use transform="translate(106.995556 0)scale(0.996264)" xlink:href="#CMR17-104"/>
       <use transform="translate(157.890926 0)scale(0.996264)" xlink:href="#CMR17-101"/>
       <use transform="translate(198.376586 0)scale(0.996264)" xlink:href="#CMR17-114"/>
      </g>
     </g>
    </g>
    <g id="xtick_11">
     <g id="line2d_35">
      <path clip-path="url(#p1053af4efa)" d="M 209.331115 243.26218 
L 209.331115 21.50218 
" style="fill:none;stroke:#b0b0b0;stroke-dasharray:2.96,1.28;stroke-dashoffset:0;stroke-width:0.8;"/>
     </g>
     <g id="line2d_36">
      <g>
       <use style="stroke:#000000;stroke-width:0.8;" x="209.331115" xlink:href="#ma7856c80af" y="243.26218"/>
      </g>
     </g>
     <g id="text_20">
      <!-- Left arm -->
      <g transform="translate(211.821775 288.341687)rotate(-90)scale(0.1 -0.1)">
       <use transform="scale(0.996264)" xlink:href="#CMR17-76"/>
       <use transform="translate(57.381408 0)scale(0.996264)" xlink:href="#CMR17-101"/>
       <use transform="translate(97.867068 0)scale(0.996264)" xlink:href="#CMR17-102"/>
       <use transform="translate(125.340581 0)scale(0.996264)" xlink:href="#CMR17-116"/>
       <use transform="translate(190.697315 0)scale(0.996264)" xlink:href="#CMR17-97"/>
       <use transform="translate(236.387792 0)scale(0.996264)" xlink:href="#CMR17-114"/>
       <use transform="translate(271.66856 0)scale(0.996264)" xlink:href="#CMR17-109"/>
      </g>
     </g>
    </g>
    <g id="xtick_12">
     <g id="line2d_37">
      <path clip-path="url(#p1053af4efa)" d="M 223.718157 243.26218 
L 223.718157 21.50218 
" style="fill:none;stroke:#b0b0b0;stroke-dasharray:2.96,1.28;stroke-dashoffset:0;stroke-width:0.8;"/>
     </g>
     <g id="line2d_38">
      <g>
       <use style="stroke:#000000;stroke-width:0.8;" x="223.718157" xlink:href="#ma7856c80af" y="243.26218"/>
      </g>
     </g>
     <g id="text_21">
      <!-- Right arm -->
      <g transform="translate(226.208817 294.983452)rotate(-90)scale(0.1 -0.1)">
       <use transform="scale(0.996264)" xlink:href="#CMR17-82"/>
       <use transform="translate(67.791102 0)scale(0.996264)" xlink:href="#CMR17-105"/>
       <use transform="translate(92.66216 0)scale(0.996264)" xlink:href="#CMR17-103"/>
       <use transform="translate(138.352638 0)scale(0.996264)" xlink:href="#CMR17-104"/>
       <use transform="translate(186.645553 0)scale(0.996264)" xlink:href="#CMR17-116"/>
       <use transform="translate(252.002288 0)scale(0.996264)" xlink:href="#CMR17-97"/>
       <use transform="translate(297.692765 0)scale(0.996264)" xlink:href="#CMR17-114"/>
       <use transform="translate(332.973532 0)scale(0.996264)" xlink:href="#CMR17-109"/>
      </g>
     </g>
    </g>
    <g id="xtick_13">
     <g id="line2d_39">
      <path clip-path="url(#p1053af4efa)" d="M 238.1052 243.26218 
L 238.1052 21.50218 
" style="fill:none;stroke:#b0b0b0;stroke-dasharray:2.96,1.28;stroke-dashoffset:0;stroke-width:0.8;"/>
     </g>
     <g id="line2d_40">
      <g>
       <use style="stroke:#000000;stroke-width:0.8;" x="238.1052" xlink:href="#ma7856c80af" y="243.26218"/>
      </g>
     </g>
     <g id="text_22">
      <!-- Pelvis -->
      <g transform="translate(240.59586 275.916024)rotate(-90)scale(0.1 -0.1)">
       <use transform="scale(0.996264)" xlink:href="#CMR17-80"/>
       <use transform="translate(59.983847 0)scale(0.996264)" xlink:href="#CMR17-101"/>
       <use transform="translate(100.469507 0)scale(0.996264)" xlink:href="#CMR17-108"/>
       <use transform="translate(125.340566 0)scale(0.996264)" xlink:href="#CMR17-118"/>
       <use transform="translate(173.633481 0)scale(0.996264)" xlink:href="#CMR17-105"/>
       <use transform="translate(198.50454 0)scale(0.996264)" xlink:href="#CMR17-115"/>
      </g>
     </g>
    </g>
    <g id="xtick_14">
     <g id="line2d_41">
      <path clip-path="url(#p1053af4efa)" d="M 252.492242 243.26218 
L 252.492242 21.50218 
" style="fill:none;stroke:#b0b0b0;stroke-dasharray:2.96,1.28;stroke-dashoffset:0;stroke-width:0.8;"/>
     </g>
     <g id="line2d_42">
      <g>
       <use style="stroke:#000000;stroke-width:0.8;" x="252.492242" xlink:href="#ma7856c80af" y="243.26218"/>
      </g>
     </g>
     <g id="text_23">
      <!-- Right leg -->
      <g transform="translate(254.982902 289.974434)rotate(-90)scale(0.1 -0.1)">
       <use transform="scale(0.996264)" xlink:href="#CMR17-82"/>
       <use transform="translate(67.791102 0)scale(0.996264)" xlink:href="#CMR17-105"/>
       <use transform="translate(92.66216 0)scale(0.996264)" xlink:href="#CMR17-103"/>
       <use transform="translate(138.352638 0)scale(0.996264)" xlink:href="#CMR17-104"/>
       <use transform="translate(186.645553 0)scale(0.996264)" xlink:href="#CMR17-116"/>
       <use transform="translate(252.002288 0)scale(0.996264)" xlink:href="#CMR17-108"/>
       <use transform="translate(276.873346 0)scale(0.996264)" xlink:href="#CMR17-101"/>
       <use transform="translate(317.359007 0)scale(0.996264)" xlink:href="#CMR17-103"/>
      </g>
     </g>
    </g>
   </g>
   <g id="matplotlib.axis_4">
    <g id="ytick_8">
     <g id="line2d_43">
      <path clip-path="url(#p1053af4efa)" d="M 158.976467 243.26218 
L 259.685763 243.26218 
" style="fill:none;stroke:#b0b0b0;stroke-dasharray:2.96,1.28;stroke-dashoffset:0;stroke-width:0.8;"/>
     </g>
     <g id="line2d_44">
      <g>
       <use style="stroke:#000000;stroke-width:0.8;" x="158.976467" xlink:href="#mf16360b296" y="243.26218"/>
      </g>
     </g>
    </g>
    <g id="ytick_9">
     <g id="line2d_45">
      <path clip-path="url(#p1053af4efa)" d="M 158.976467 206.364297 
L 259.685763 206.364297 
" style="fill:none;stroke:#b0b0b0;stroke-dasharray:2.96,1.28;stroke-dashoffset:0;stroke-width:0.8;"/>
     </g>
     <g id="line2d_46">
      <g>
       <use style="stroke:#000000;stroke-width:0.8;" x="158.976467" xlink:href="#mf16360b296" y="206.364297"/>
      </g>
     </g>
    </g>
    <g id="ytick_10">
     <g id="line2d_47">
      <path clip-path="url(#p1053af4efa)" d="M 158.976467 169.466415 
L 259.685763 169.466415 
" style="fill:none;stroke:#b0b0b0;stroke-dasharray:2.96,1.28;stroke-dashoffset:0;stroke-width:0.8;"/>
     </g>
     <g id="line2d_48">
      <g>
       <use style="stroke:#000000;stroke-width:0.8;" x="158.976467" xlink:href="#mf16360b296" y="169.466415"/>
      </g>
     </g>
    </g>
    <g id="ytick_11">
     <g id="line2d_49">
      <path clip-path="url(#p1053af4efa)" d="M 158.976467 132.568533 
L 259.685763 132.568533 
" style="fill:none;stroke:#b0b0b0;stroke-dasharray:2.96,1.28;stroke-dashoffset:0;stroke-width:0.8;"/>
     </g>
     <g id="line2d_50">
      <g>
       <use style="stroke:#000000;stroke-width:0.8;" x="158.976467" xlink:href="#mf16360b296" y="132.568533"/>
      </g>
     </g>
    </g>
    <g id="ytick_12">
     <g id="line2d_51">
      <path clip-path="url(#p1053af4efa)" d="M 158.976467 95.67065 
L 259.685763 95.67065 
" style="fill:none;stroke:#b0b0b0;stroke-dasharray:2.96,1.28;stroke-dashoffset:0;stroke-width:0.8;"/>
     </g>
     <g id="line2d_52">
      <g>
       <use style="stroke:#000000;stroke-width:0.8;" x="158.976467" xlink:href="#mf16360b296" y="95.67065"/>
      </g>
     </g>
    </g>
    <g id="ytick_13">
     <g id="line2d_53">
      <path clip-path="url(#p1053af4efa)" d="M 158.976467 58.772768 
L 259.685763 58.772768 
" style="fill:none;stroke:#b0b0b0;stroke-dasharray:2.96,1.28;stroke-dashoffset:0;stroke-width:0.8;"/>
     </g>
     <g id="line2d_54">
      <g>
       <use style="stroke:#000000;stroke-width:0.8;" x="158.976467" xlink:href="#mf16360b296" y="58.772768"/>
      </g>
     </g>
    </g>
    <g id="ytick_14">
     <g id="line2d_55">
      <path clip-path="url(#p1053af4efa)" d="M 158.976467 21.874886 
L 259.685763 21.874886 
" style="fill:none;stroke:#b0b0b0;stroke-dasharray:2.96,1.28;stroke-dashoffset:0;stroke-width:0.8;"/>
     </g>
     <g id="line2d_56">
      <g>
       <use style="stroke:#000000;stroke-width:0.8;" x="158.976467" xlink:href="#mf16360b296" y="21.874886"/>
      </g>
     </g>
    </g>
   </g>
   <g id="patch_15">
    <path clip-path="url(#p1053af4efa)" d="M 162.573227 243.26218 
L 169.766748 243.26218 
L 169.766748 32.06218 
L 162.573227 32.06218 
z
" style="fill:#909090;"/>
   </g>
   <g id="patch_16">
    <path clip-path="url(#p1053af4efa)" d="M 176.96027 243.26218 
L 184.153791 243.26218 
L 184.153791 171.516297 
L 176.96027 171.516297 
z
" style="fill:#909090;"/>
   </g>
   <g id="patch_17">
    <path clip-path="url(#p1053af4efa)" d="M 191.347312 243.26218 
L 198.540833 243.26218 
L 198.540833 192.636297 
L 191.347312 192.636297 
z
" style="fill:#909090;"/>
   </g>
   <g id="patch_18">
    <path clip-path="url(#p1053af4efa)" d="M 205.734354 243.26218 
L 212.927876 243.26218 
L 212.927876 225.55865 
L 205.734354 225.55865 
z
" style="fill:#909090;"/>
   </g>
   <g id="patch_19">
    <path clip-path="url(#p1053af4efa)" d="M 220.121397 243.26218 
L 227.314918 243.26218 
L 227.314918 233.633945 
L 220.121397 233.633945 
z
" style="fill:#909090;"/>
   </g>
   <g id="patch_20">
    <path clip-path="url(#p1053af4efa)" d="M 234.508439 243.26218 
L 241.70196 243.26218 
L 241.70196 238.913945 
L 234.508439 238.913945 
z
" style="fill:#909090;"/>
   </g>
   <g id="patch_21">
    <path clip-path="url(#p1053af4efa)" d="M 248.895481 243.26218 
L 256.089003 243.26218 
L 256.089003 239.535121 
L 248.895481 239.535121 
z
" style="fill:#909090;"/>
   </g>
   <g id="patch_22">
    <path d="M 158.976467 243.26218 
L 158.976467 21.50218 
" style="fill:none;stroke:#000000;stroke-linecap:square;stroke-linejoin:miter;stroke-width:0.8;"/>
   </g>
   <g id="patch_23">
    <path d="M 259.685763 243.26218 
L 259.685763 21.50218 
" style="fill:none;stroke:#000000;stroke-linecap:square;stroke-linejoin:miter;stroke-width:0.8;"/>
   </g>
   <g id="patch_24">
    <path d="M 158.976467 243.26218 
L 259.685763 243.26218 
" style="fill:none;stroke:#000000;stroke-linecap:square;stroke-linejoin:miter;stroke-width:0.8;"/>
   </g>
   <g id="patch_25">
    <path d="M 158.976467 21.50218 
L 259.685763 21.50218 
" style="fill:none;stroke:#000000;stroke-linecap:square;stroke-linejoin:miter;stroke-width:0.8;"/>
   </g>
   <g id="text_24">
    <!-- Rater 1 -->
    <g transform="translate(190.066056 15.50218)scale(0.12 -0.12)">
     <use transform="scale(0.996264)" xlink:href="#CMR17-82"/>
     <use transform="translate(67.791102 0)scale(0.996264)" xlink:href="#CMR17-97"/>
     <use transform="translate(113.481579 0)scale(0.996264)" xlink:href="#CMR17-116"/>
     <use transform="translate(148.762347 0)scale(0.996264)" xlink:href="#CMR17-101"/>
     <use transform="translate(189.248007 0)scale(0.996264)" xlink:href="#CMR17-114"/>
     <use transform="translate(254.604741 0)scale(0.996264)" xlink:href="#CMR17-49"/>
    </g>
   </g>
  </g>
  <g id="axes_3">
   <g id="patch_26">
    <path d="M 279.827623 243.26218 
L 380.536919 243.26218 
L 380.536919 21.50218 
L 279.827623 21.50218 
z
" style="fill:#ffffff;"/>
   </g>
   <g id="matplotlib.axis_5">
    <g id="xtick_15">
     <g id="line2d_57">
      <path clip-path="url(#p949ddf8650)" d="M 287.021144 243.26218 
L 287.021144 21.50218 
" style="fill:none;stroke:#b0b0b0;stroke-dasharray:2.96,1.28;stroke-dashoffset:0;stroke-width:0.8;"/>
     </g>
     <g id="line2d_58">
      <g>
       <use style="stroke:#000000;stroke-width:0.8;" x="287.021144" xlink:href="#ma7856c80af" y="243.26218"/>
      </g>
     </g>
     <g id="text_25">
      <!-- Chest -->
      <g transform="translate(289.511804 275.22416)rotate(-90)scale(0.1 -0.1)">
       <use transform="scale(0.996264)" xlink:href="#CMR17-67"/>
       <use transform="translate(66.509881 0)scale(0.996264)" xlink:href="#CMR17-104"/>
       <use transform="translate(117.40525 0)scale(0.996264)" xlink:href="#CMR17-101"/>
       <use transform="translate(157.890911 0)scale(0.996264)" xlink:href="#CMR17-115"/>
       <use transform="translate(193.692248 0)scale(0.996264)" xlink:href="#CMR17-116"/>
      </g>
     </g>
    </g>
    <g id="xtick_16">
     <g id="line2d_59">
      <path clip-path="url(#p949ddf8650)" d="M 301.408186 243.26218 
L 301.408186 21.50218 
" style="fill:none;stroke:#b0b0b0;stroke-dasharray:2.96,1.28;stroke-dashoffset:0;stroke-width:0.8;"/>
     </g>
     <g id="line2d_60">
      <g>
       <use style="stroke:#000000;stroke-width:0.8;" x="301.408186" xlink:href="#ma7856c80af" y="243.26218"/>
      </g>
     </g>
     <g id="text_26">
      <!-- Head -->
      <g transform="translate(303.898846 272.678166)rotate(-90)scale(0.1 -0.1)">
       <use transform="scale(0.996264)" xlink:href="#CMR17-72"/>
       <use transform="translate(69.07243 0)scale(0.996264)" xlink:href="#CMR17-101"/>
       <use transform="translate(109.55809 0)scale(0.996264)" xlink:href="#CMR17-97"/>
       <use transform="translate(155.248567 0)scale(0.996264)" xlink:href="#CMR17-100"/>
      </g>
     </g>
    </g>
    <g id="xtick_17">
     <g id="line2d_61">
      <path clip-path="url(#p949ddf8650)" d="M 315.795229 243.26218 
L 315.795229 21.50218 
" style="fill:none;stroke:#b0b0b0;stroke-dasharray:2.96,1.28;stroke-dashoffset:0;stroke-width:0.8;"/>
     </g>
     <g id="line2d_62">
      <g>
       <use style="stroke:#000000;stroke-width:0.8;" x="315.795229" xlink:href="#ma7856c80af" y="243.26218"/>
      </g>
     </g>
     <g id="text_27">
      <!-- Left arm -->
      <g transform="translate(318.285889 288.341687)rotate(-90)scale(0.1 -0.1)">
       <use transform="scale(0.996264)" xlink:href="#CMR17-76"/>
       <use transform="translate(57.381408 0)scale(0.996264)" xlink:href="#CMR17-101"/>
       <use transform="translate(97.867068 0)scale(0.996264)" xlink:href="#CMR17-102"/>
       <use transform="translate(125.340581 0)scale(0.996264)" xlink:href="#CMR17-116"/>
       <use transform="translate(190.697315 0)scale(0.996264)" xlink:href="#CMR17-97"/>
       <use transform="translate(236.387792 0)scale(0.996264)" xlink:href="#CMR17-114"/>
       <use transform="translate(271.66856 0)scale(0.996264)" xlink:href="#CMR17-109"/>
      </g>
     </g>
    </g>
    <g id="xtick_18">
     <g id="line2d_63">
      <path clip-path="url(#p949ddf8650)" d="M 330.182271 243.26218 
L 330.182271 21.50218 
" style="fill:none;stroke:#b0b0b0;stroke-dasharray:2.96,1.28;stroke-dashoffset:0;stroke-width:0.8;"/>
     </g>
     <g id="line2d_64">
      <g>
       <use style="stroke:#000000;stroke-width:0.8;" x="330.182271" xlink:href="#ma7856c80af" y="243.26218"/>
      </g>
     </g>
     <g id="text_28">
      <!-- Other -->
      <g transform="translate(332.672931 275.74999)rotate(-90)scale(0.1 -0.1)">
       <use transform="scale(0.996264)" xlink:href="#CMR17-79"/>
       <use transform="translate(71.714788 0)scale(0.996264)" xlink:href="#CMR17-116"/>
       <use transform="translate(106.995556 0)scale(0.996264)" xlink:href="#CMR17-104"/>
       <use transform="translate(157.890926 0)scale(0.996264)" xlink:href="#CMR17-101"/>
       <use transform="translate(198.376586 0)scale(0.996264)" xlink:href="#CMR17-114"/>
      </g>
     </g>
    </g>
    <g id="xtick_19">
     <g id="line2d_65">
      <path clip-path="url(#p949ddf8650)" d="M 344.569313 243.26218 
L 344.569313 21.50218 
" style="fill:none;stroke:#b0b0b0;stroke-dasharray:2.96,1.28;stroke-dashoffset:0;stroke-width:0.8;"/>
     </g>
     <g id="line2d_66">
      <g>
       <use style="stroke:#000000;stroke-width:0.8;" x="344.569313" xlink:href="#ma7856c80af" y="243.26218"/>
      </g>
     </g>
     <g id="text_29">
      <!-- Right arm -->
      <g transform="translate(347.059973 294.983452)rotate(-90)scale(0.1 -0.1)">
       <use transform="scale(0.996264)" xlink:href="#CMR17-82"/>
       <use transform="translate(67.791102 0)scale(0.996264)" xlink:href="#CMR17-105"/>
       <use transform="translate(92.66216 0)scale(0.996264)" xlink:href="#CMR17-103"/>
       <use transform="translate(138.352638 0)scale(0.996264)" xlink:href="#CMR17-104"/>
       <use transform="translate(186.645553 0)scale(0.996264)" xlink:href="#CMR17-116"/>
       <use transform="translate(252.002288 0)scale(0.996264)" xlink:href="#CMR17-97"/>
       <use transform="translate(297.692765 0)scale(0.996264)" xlink:href="#CMR17-114"/>
       <use transform="translate(332.973532 0)scale(0.996264)" xlink:href="#CMR17-109"/>
      </g>
     </g>
    </g>
    <g id="xtick_20">
     <g id="line2d_67">
      <path clip-path="url(#p949ddf8650)" d="M 358.956356 243.26218 
L 358.956356 21.50218 
" style="fill:none;stroke:#b0b0b0;stroke-dasharray:2.96,1.28;stroke-dashoffset:0;stroke-width:0.8;"/>
     </g>
     <g id="line2d_68">
      <g>
       <use style="stroke:#000000;stroke-width:0.8;" x="358.956356" xlink:href="#ma7856c80af" y="243.26218"/>
      </g>
     </g>
     <g id="text_30">
      <!-- Right leg -->
      <g transform="translate(361.447016 289.974434)rotate(-90)scale(0.1 -0.1)">
       <use transform="scale(0.996264)" xlink:href="#CMR17-82"/>
       <use transform="translate(67.791102 0)scale(0.996264)" xlink:href="#CMR17-105"/>
       <use transform="translate(92.66216 0)scale(0.996264)" xlink:href="#CMR17-103"/>
       <use transform="translate(138.352638 0)scale(0.996264)" xlink:href="#CMR17-104"/>
       <use transform="translate(186.645553 0)scale(0.996264)" xlink:href="#CMR17-116"/>
       <use transform="translate(252.002288 0)scale(0.996264)" xlink:href="#CMR17-108"/>
       <use transform="translate(276.873346 0)scale(0.996264)" xlink:href="#CMR17-101"/>
       <use transform="translate(317.359007 0)scale(0.996264)" xlink:href="#CMR17-103"/>
      </g>
     </g>
    </g>
    <g id="xtick_21">
     <g id="line2d_69">
      <path clip-path="url(#p949ddf8650)" d="M 373.343398 243.26218 
L 373.343398 21.50218 
" style="fill:none;stroke:#b0b0b0;stroke-dasharray:2.96,1.28;stroke-dashoffset:0;stroke-width:0.8;"/>
     </g>
     <g id="line2d_70">
      <g>
       <use style="stroke:#000000;stroke-width:0.8;" x="373.343398" xlink:href="#ma7856c80af" y="243.26218"/>
      </g>
     </g>
     <g id="text_31">
      <!-- Pelvis -->
      <g transform="translate(375.834058 275.916024)rotate(-90)scale(0.1 -0.1)">
       <use transform="scale(0.996264)" xlink:href="#CMR17-80"/>
       <use transform="translate(59.983847 0)scale(0.996264)" xlink:href="#CMR17-101"/>
       <use transform="translate(100.469507 0)scale(0.996264)" xlink:href="#CMR17-108"/>
       <use transform="translate(125.340566 0)scale(0.996264)" xlink:href="#CMR17-118"/>
       <use transform="translate(173.633481 0)scale(0.996264)" xlink:href="#CMR17-105"/>
       <use transform="translate(198.50454 0)scale(0.996264)" xlink:href="#CMR17-115"/>
      </g>
     </g>
    </g>
   </g>
   <g id="matplotlib.axis_6">
    <g id="ytick_15">
     <g id="line2d_71">
      <path clip-path="url(#p949ddf8650)" d="M 279.827623 243.26218 
L 380.536919 243.26218 
" style="fill:none;stroke:#b0b0b0;stroke-dasharray:2.96,1.28;stroke-dashoffset:0;stroke-width:0.8;"/>
     </g>
     <g id="line2d_72">
      <g>
       <use style="stroke:#000000;stroke-width:0.8;" x="279.827623" xlink:href="#mf16360b296" y="243.26218"/>
      </g>
     </g>
    </g>
    <g id="ytick_16">
     <g id="line2d_73">
      <path clip-path="url(#p949ddf8650)" d="M 279.827623 206.364297 
L 380.536919 206.364297 
" style="fill:none;stroke:#b0b0b0;stroke-dasharray:2.96,1.28;stroke-dashoffset:0;stroke-width:0.8;"/>
     </g>
     <g id="line2d_74">
      <g>
       <use style="stroke:#000000;stroke-width:0.8;" x="279.827623" xlink:href="#mf16360b296" y="206.364297"/>
      </g>
     </g>
    </g>
    <g id="ytick_17">
     <g id="line2d_75">
      <path clip-path="url(#p949ddf8650)" d="M 279.827623 169.466415 
L 380.536919 169.466415 
" style="fill:none;stroke:#b0b0b0;stroke-dasharray:2.96,1.28;stroke-dashoffset:0;stroke-width:0.8;"/>
     </g>
     <g id="line2d_76">
      <g>
       <use style="stroke:#000000;stroke-width:0.8;" x="279.827623" xlink:href="#mf16360b296" y="169.466415"/>
      </g>
     </g>
    </g>
    <g id="ytick_18">
     <g id="line2d_77">
      <path clip-path="url(#p949ddf8650)" d="M 279.827623 132.568533 
L 380.536919 132.568533 
" style="fill:none;stroke:#b0b0b0;stroke-dasharray:2.96,1.28;stroke-dashoffset:0;stroke-width:0.8;"/>
     </g>
     <g id="line2d_78">
      <g>
       <use style="stroke:#000000;stroke-width:0.8;" x="279.827623" xlink:href="#mf16360b296" y="132.568533"/>
      </g>
     </g>
    </g>
    <g id="ytick_19">
     <g id="line2d_79">
      <path clip-path="url(#p949ddf8650)" d="M 279.827623 95.67065 
L 380.536919 95.67065 
" style="fill:none;stroke:#b0b0b0;stroke-dasharray:2.96,1.28;stroke-dashoffset:0;stroke-width:0.8;"/>
     </g>
     <g id="line2d_80">
      <g>
       <use style="stroke:#000000;stroke-width:0.8;" x="279.827623" xlink:href="#mf16360b296" y="95.67065"/>
      </g>
     </g>
    </g>
    <g id="ytick_20">
     <g id="line2d_81">
      <path clip-path="url(#p949ddf8650)" d="M 279.827623 58.772768 
L 380.536919 58.772768 
" style="fill:none;stroke:#b0b0b0;stroke-dasharray:2.96,1.28;stroke-dashoffset:0;stroke-width:0.8;"/>
     </g>
     <g id="line2d_82">
      <g>
       <use style="stroke:#000000;stroke-width:0.8;" x="279.827623" xlink:href="#mf16360b296" y="58.772768"/>
      </g>
     </g>
    </g>
    <g id="ytick_21">
     <g id="line2d_83">
      <path clip-path="url(#p949ddf8650)" d="M 279.827623 21.874886 
L 380.536919 21.874886 
" style="fill:none;stroke:#b0b0b0;stroke-dasharray:2.96,1.28;stroke-dashoffset:0;stroke-width:0.8;"/>
     </g>
     <g id="line2d_84">
      <g>
       <use style="stroke:#000000;stroke-width:0.8;" x="279.827623" xlink:href="#mf16360b296" y="21.874886"/>
      </g>
     </g>
    </g>
   </g>
   <g id="patch_27">
    <path clip-path="url(#p949ddf8650)" d="M 283.424383 243.26218 
L 290.617904 243.26218 
L 290.617904 74.923356 
L 283.424383 74.923356 
z
" style="fill:#909090;"/>
   </g>
   <g id="patch_28">
    <path clip-path="url(#p949ddf8650)" d="M 297.811426 243.26218 
L 305.004947 243.26218 
L 305.004947 161.888062 
L 297.811426 161.888062 
z
" style="fill:#909090;"/>
   </g>
   <g id="patch_29">
    <path clip-path="url(#p949ddf8650)" d="M 312.198468 243.26218 
L 319.391989 243.26218 
L 319.391989 185.18218 
L 312.198468 185.18218 
z
" style="fill:#909090;"/>
   </g>
   <g id="patch_30">
    <path clip-path="url(#p949ddf8650)" d="M 326.58551 243.26218 
L 333.779032 243.26218 
L 333.779032 200.711592 
L 326.58551 200.711592 
z
" style="fill:#909090;"/>
   </g>
   <g id="patch_31">
    <path clip-path="url(#p949ddf8650)" d="M 340.972553 243.26218 
L 348.166074 243.26218 
L 348.166074 230.217474 
L 340.972553 230.217474 
z
" style="fill:#909090;"/>
   </g>
   <g id="patch_32">
    <path clip-path="url(#p949ddf8650)" d="M 355.359595 243.26218 
L 362.553116 243.26218 
L 362.553116 239.845709 
L 355.359595 239.845709 
z
" style="fill:#909090;"/>
   </g>
   <g id="patch_33">
    <path clip-path="url(#p949ddf8650)" d="M 369.746637 243.26218 
L 376.940159 243.26218 
L 376.940159 241.088062 
L 369.746637 241.088062 
z
" style="fill:#909090;"/>
   </g>
   <g id="patch_34">
    <path d="M 279.827623 243.26218 
L 279.827623 21.50218 
" style="fill:none;stroke:#000000;stroke-linecap:square;stroke-linejoin:miter;stroke-width:0.8;"/>
   </g>
   <g id="patch_35">
    <path d="M 380.536919 243.26218 
L 380.536919 21.50218 
" style="fill:none;stroke:#000000;stroke-linecap:square;stroke-linejoin:miter;stroke-width:0.8;"/>
   </g>
   <g id="patch_36">
    <path d="M 279.827623 243.26218 
L 380.536919 243.26218 
" style="fill:none;stroke:#000000;stroke-linecap:square;stroke-linejoin:miter;stroke-width:0.8;"/>
   </g>
   <g id="patch_37">
    <path d="M 279.827623 21.50218 
L 380.536919 21.50218 
" style="fill:none;stroke:#000000;stroke-linecap:square;stroke-linejoin:miter;stroke-width:0.8;"/>
   </g>
   <g id="text_32">
    <!-- Rater 2 -->
    <g transform="translate(310.917212 15.50218)scale(0.12 -0.12)">
     <use transform="scale(0.996264)" xlink:href="#CMR17-82"/>
     <use transform="translate(67.791102 0)scale(0.996264)" xlink:href="#CMR17-97"/>
     <use transform="translate(113.481579 0)scale(0.996264)" xlink:href="#CMR17-116"/>
     <use transform="translate(148.762347 0)scale(0.996264)" xlink:href="#CMR17-101"/>
     <use transform="translate(189.248007 0)scale(0.996264)" xlink:href="#CMR17-114"/>
     <use transform="translate(254.604741 0)scale(0.996264)" xlink:href="#CMR17-50"/>
    </g>
   </g>
  </g>
  <g id="axes_4">
   <g id="patch_38">
    <path d="M 400.678779 243.26218 
L 501.388075 243.26218 
L 501.388075 21.50218 
L 400.678779 21.50218 
z
" style="fill:#ffffff;"/>
   </g>
   <g id="matplotlib.axis_7">
    <g id="xtick_22">
     <g id="line2d_85">
      <path clip-path="url(#pc02fa65597)" d="M 407.8723 243.26218 
L 407.8723 21.50218 
" style="fill:none;stroke:#b0b0b0;stroke-dasharray:2.96,1.28;stroke-dashoffset:0;stroke-width:0.8;"/>
     </g>
     <g id="line2d_86">
      <g>
       <use style="stroke:#000000;stroke-width:0.8;" x="407.8723" xlink:href="#ma7856c80af" y="243.26218"/>
      </g>
     </g>
     <g id="text_33">
      <!-- Chest -->
      <g transform="translate(410.36296 275.22416)rotate(-90)scale(0.1 -0.1)">
       <use transform="scale(0.996264)" xlink:href="#CMR17-67"/>
       <use transform="translate(66.509881 0)scale(0.996264)" xlink:href="#CMR17-104"/>
       <use transform="translate(117.40525 0)scale(0.996264)" xlink:href="#CMR17-101"/>
       <use transform="translate(157.890911 0)scale(0.996264)" xlink:href="#CMR17-115"/>
       <use transform="translate(193.692248 0)scale(0.996264)" xlink:href="#CMR17-116"/>
      </g>
     </g>
    </g>
    <g id="xtick_23">
     <g id="line2d_87">
      <path clip-path="url(#pc02fa65597)" d="M 422.259342 243.26218 
L 422.259342 21.50218 
" style="fill:none;stroke:#b0b0b0;stroke-dasharray:2.96,1.28;stroke-dashoffset:0;stroke-width:0.8;"/>
     </g>
     <g id="line2d_88">
      <g>
       <use style="stroke:#000000;stroke-width:0.8;" x="422.259342" xlink:href="#ma7856c80af" y="243.26218"/>
      </g>
     </g>
     <g id="text_34">
      <!-- Head -->
      <g transform="translate(424.750002 272.678166)rotate(-90)scale(0.1 -0.1)">
       <use transform="scale(0.996264)" xlink:href="#CMR17-72"/>
       <use transform="translate(69.07243 0)scale(0.996264)" xlink:href="#CMR17-101"/>
       <use transform="translate(109.55809 0)scale(0.996264)" xlink:href="#CMR17-97"/>
       <use transform="translate(155.248567 0)scale(0.996264)" xlink:href="#CMR17-100"/>
      </g>
     </g>
    </g>
    <g id="xtick_24">
     <g id="line2d_89">
      <path clip-path="url(#pc02fa65597)" d="M 436.646385 243.26218 
L 436.646385 21.50218 
" style="fill:none;stroke:#b0b0b0;stroke-dasharray:2.96,1.28;stroke-dashoffset:0;stroke-width:0.8;"/>
     </g>
     <g id="line2d_90">
      <g>
       <use style="stroke:#000000;stroke-width:0.8;" x="436.646385" xlink:href="#ma7856c80af" y="243.26218"/>
      </g>
     </g>
     <g id="text_35">
      <!-- Other -->
      <g transform="translate(439.137045 275.74999)rotate(-90)scale(0.1 -0.1)">
       <use transform="scale(0.996264)" xlink:href="#CMR17-79"/>
       <use transform="translate(71.714788 0)scale(0.996264)" xlink:href="#CMR17-116"/>
       <use transform="translate(106.995556 0)scale(0.996264)" xlink:href="#CMR17-104"/>
       <use transform="translate(157.890926 0)scale(0.996264)" xlink:href="#CMR17-101"/>
       <use transform="translate(198.376586 0)scale(0.996264)" xlink:href="#CMR17-114"/>
      </g>
     </g>
    </g>
    <g id="xtick_25">
     <g id="line2d_91">
      <path clip-path="url(#pc02fa65597)" d="M 451.033427 243.26218 
L 451.033427 21.50218 
" style="fill:none;stroke:#b0b0b0;stroke-dasharray:2.96,1.28;stroke-dashoffset:0;stroke-width:0.8;"/>
     </g>
     <g id="line2d_92">
      <g>
       <use style="stroke:#000000;stroke-width:0.8;" x="451.033427" xlink:href="#ma7856c80af" y="243.26218"/>
      </g>
     </g>
     <g id="text_36">
      <!-- Left arm -->
      <g transform="translate(453.524087 288.341687)rotate(-90)scale(0.1 -0.1)">
       <use transform="scale(0.996264)" xlink:href="#CMR17-76"/>
       <use transform="translate(57.381408 0)scale(0.996264)" xlink:href="#CMR17-101"/>
       <use transform="translate(97.867068 0)scale(0.996264)" xlink:href="#CMR17-102"/>
       <use transform="translate(125.340581 0)scale(0.996264)" xlink:href="#CMR17-116"/>
       <use transform="translate(190.697315 0)scale(0.996264)" xlink:href="#CMR17-97"/>
       <use transform="translate(236.387792 0)scale(0.996264)" xlink:href="#CMR17-114"/>
       <use transform="translate(271.66856 0)scale(0.996264)" xlink:href="#CMR17-109"/>
      </g>
     </g>
    </g>
    <g id="xtick_26">
     <g id="line2d_93">
      <path clip-path="url(#pc02fa65597)" d="M 465.420469 243.26218 
L 465.420469 21.50218 
" style="fill:none;stroke:#b0b0b0;stroke-dasharray:2.96,1.28;stroke-dashoffset:0;stroke-width:0.8;"/>
     </g>
     <g id="line2d_94">
      <g>
       <use style="stroke:#000000;stroke-width:0.8;" x="465.420469" xlink:href="#ma7856c80af" y="243.26218"/>
      </g>
     </g>
     <g id="text_37">
      <!-- Right arm -->
      <g transform="translate(467.911129 294.983452)rotate(-90)scale(0.1 -0.1)">
       <use transform="scale(0.996264)" xlink:href="#CMR17-82"/>
       <use transform="translate(67.791102 0)scale(0.996264)" xlink:href="#CMR17-105"/>
       <use transform="translate(92.66216 0)scale(0.996264)" xlink:href="#CMR17-103"/>
       <use transform="translate(138.352638 0)scale(0.996264)" xlink:href="#CMR17-104"/>
       <use transform="translate(186.645553 0)scale(0.996264)" xlink:href="#CMR17-116"/>
       <use transform="translate(252.002288 0)scale(0.996264)" xlink:href="#CMR17-97"/>
       <use transform="translate(297.692765 0)scale(0.996264)" xlink:href="#CMR17-114"/>
       <use transform="translate(332.973532 0)scale(0.996264)" xlink:href="#CMR17-109"/>
      </g>
     </g>
    </g>
    <g id="xtick_27">
     <g id="line2d_95">
      <path clip-path="url(#pc02fa65597)" d="M 479.807512 243.26218 
L 479.807512 21.50218 
" style="fill:none;stroke:#b0b0b0;stroke-dasharray:2.96,1.28;stroke-dashoffset:0;stroke-width:0.8;"/>
     </g>
     <g id="line2d_96">
      <g>
       <use style="stroke:#000000;stroke-width:0.8;" x="479.807512" xlink:href="#ma7856c80af" y="243.26218"/>
      </g>
     </g>
     <g id="text_38">
      <!-- Right leg -->
      <g transform="translate(482.298172 289.974434)rotate(-90)scale(0.1 -0.1)">
       <use transform="scale(0.996264)" xlink:href="#CMR17-82"/>
       <use transform="translate(67.791102 0)scale(0.996264)" xlink:href="#CMR17-105"/>
       <use transform="translate(92.66216 0)scale(0.996264)" xlink:href="#CMR17-103"/>
       <use transform="translate(138.352638 0)scale(0.996264)" xlink:href="#CMR17-104"/>
       <use transform="translate(186.645553 0)scale(0.996264)" xlink:href="#CMR17-116"/>
       <use transform="translate(252.002288 0)scale(0.996264)" xlink:href="#CMR17-108"/>
       <use transform="translate(276.873346 0)scale(0.996264)" xlink:href="#CMR17-101"/>
       <use transform="translate(317.359007 0)scale(0.996264)" xlink:href="#CMR17-103"/>
      </g>
     </g>
    </g>
    <g id="xtick_28">
     <g id="line2d_97">
      <path clip-path="url(#pc02fa65597)" d="M 494.194554 243.26218 
L 494.194554 21.50218 
" style="fill:none;stroke:#b0b0b0;stroke-dasharray:2.96,1.28;stroke-dashoffset:0;stroke-width:0.8;"/>
     </g>
     <g id="line2d_98">
      <g>
       <use style="stroke:#000000;stroke-width:0.8;" x="494.194554" xlink:href="#ma7856c80af" y="243.26218"/>
      </g>
     </g>
     <g id="text_39">
      <!-- Pelvis -->
      <g transform="translate(496.685214 275.916024)rotate(-90)scale(0.1 -0.1)">
       <use transform="scale(0.996264)" xlink:href="#CMR17-80"/>
       <use transform="translate(59.983847 0)scale(0.996264)" xlink:href="#CMR17-101"/>
       <use transform="translate(100.469507 0)scale(0.996264)" xlink:href="#CMR17-108"/>
       <use transform="translate(125.340566 0)scale(0.996264)" xlink:href="#CMR17-118"/>
       <use transform="translate(173.633481 0)scale(0.996264)" xlink:href="#CMR17-105"/>
       <use transform="translate(198.50454 0)scale(0.996264)" xlink:href="#CMR17-115"/>
      </g>
     </g>
    </g>
   </g>
   <g id="matplotlib.axis_8">
    <g id="ytick_22">
     <g id="line2d_99">
      <path clip-path="url(#pc02fa65597)" d="M 400.678779 243.26218 
L 501.388075 243.26218 
" style="fill:none;stroke:#b0b0b0;stroke-dasharray:2.96,1.28;stroke-dashoffset:0;stroke-width:0.8;"/>
     </g>
     <g id="line2d_100">
      <g>
       <use style="stroke:#000000;stroke-width:0.8;" x="400.678779" xlink:href="#mf16360b296" y="243.26218"/>
      </g>
     </g>
    </g>
    <g id="ytick_23">
     <g id="line2d_101">
      <path clip-path="url(#pc02fa65597)" d="M 400.678779 206.364297 
L 501.388075 206.364297 
" style="fill:none;stroke:#b0b0b0;stroke-dasharray:2.96,1.28;stroke-dashoffset:0;stroke-width:0.8;"/>
     </g>
     <g id="line2d_102">
      <g>
       <use style="stroke:#000000;stroke-width:0.8;" x="400.678779" xlink:href="#mf16360b296" y="206.364297"/>
      </g>
     </g>
    </g>
    <g id="ytick_24">
     <g id="line2d_103">
      <path clip-path="url(#pc02fa65597)" d="M 400.678779 169.466415 
L 501.388075 169.466415 
" style="fill:none;stroke:#b0b0b0;stroke-dasharray:2.96,1.28;stroke-dashoffset:0;stroke-width:0.8;"/>
     </g>
     <g id="line2d_104">
      <g>
       <use style="stroke:#000000;stroke-width:0.8;" x="400.678779" xlink:href="#mf16360b296" y="169.466415"/>
      </g>
     </g>
    </g>
    <g id="ytick_25">
     <g id="line2d_105">
      <path clip-path="url(#pc02fa65597)" d="M 400.678779 132.568533 
L 501.388075 132.568533 
" style="fill:none;stroke:#b0b0b0;stroke-dasharray:2.96,1.28;stroke-dashoffset:0;stroke-width:0.8;"/>
     </g>
     <g id="line2d_106">
      <g>
       <use style="stroke:#000000;stroke-width:0.8;" x="400.678779" xlink:href="#mf16360b296" y="132.568533"/>
      </g>
     </g>
    </g>
    <g id="ytick_26">
     <g id="line2d_107">
      <path clip-path="url(#pc02fa65597)" d="M 400.678779 95.67065 
L 501.388075 95.67065 
" style="fill:none;stroke:#b0b0b0;stroke-dasharray:2.96,1.28;stroke-dashoffset:0;stroke-width:0.8;"/>
     </g>
     <g id="line2d_108">
      <g>
       <use style="stroke:#000000;stroke-width:0.8;" x="400.678779" xlink:href="#mf16360b296" y="95.67065"/>
      </g>
     </g>
    </g>
    <g id="ytick_27">
     <g id="line2d_109">
      <path clip-path="url(#pc02fa65597)" d="M 400.678779 58.772768 
L 501.388075 58.772768 
" style="fill:none;stroke:#b0b0b0;stroke-dasharray:2.96,1.28;stroke-dashoffset:0;stroke-width:0.8;"/>
     </g>
     <g id="line2d_110">
      <g>
       <use style="stroke:#000000;stroke-width:0.8;" x="400.678779" xlink:href="#mf16360b296" y="58.772768"/>
      </g>
     </g>
    </g>
    <g id="ytick_28">
     <g id="line2d_111">
      <path clip-path="url(#pc02fa65597)" d="M 400.678779 21.874886 
L 501.388075 21.874886 
" style="fill:none;stroke:#b0b0b0;stroke-dasharray:2.96,1.28;stroke-dashoffset:0;stroke-width:0.8;"/>
     </g>
     <g id="line2d_112">
      <g>
       <use style="stroke:#000000;stroke-width:0.8;" x="400.678779" xlink:href="#mf16360b296" y="21.874886"/>
      </g>
     </g>
    </g>
   </g>
   <g id="patch_39">
    <path clip-path="url(#pc02fa65597)" d="M 404.275539 243.26218 
L 411.46906 243.26218 
L 411.46906 57.841003 
L 404.275539 57.841003 
z
" style="fill:#909090;"/>
   </g>
   <g id="patch_40">
    <path clip-path="url(#pc02fa65597)" d="M 418.662582 243.26218 
L 425.856103 243.26218 
L 425.856103 141.389239 
L 418.662582 141.389239 
z
" style="fill:#909090;"/>
   </g>
   <g id="patch_41">
    <path clip-path="url(#pc02fa65597)" d="M 433.049624 243.26218 
L 440.243145 243.26218 
L 440.243145 196.052768 
L 433.049624 196.052768 
z
" style="fill:#909090;"/>
   </g>
   <g id="patch_42">
    <path clip-path="url(#pc02fa65597)" d="M 447.436666 243.26218 
L 454.630188 243.26218 
L 454.630188 224.937474 
L 447.436666 224.937474 
z
" style="fill:#909090;"/>
   </g>
   <g id="patch_43">
    <path clip-path="url(#pc02fa65597)" d="M 461.823709 243.26218 
L 469.01723 243.26218 
L 469.01723 230.83865 
L 461.823709 230.83865 
z
" style="fill:#909090;"/>
   </g>
   <g id="patch_44">
    <path clip-path="url(#pc02fa65597)" d="M 476.210751 243.26218 
L 483.404272 243.26218 
L 483.404272 240.156297 
L 476.210751 240.156297 
z
" style="fill:#909090;"/>
   </g>
   <g id="patch_45">
    <path clip-path="url(#pc02fa65597)" d="M 490.597793 243.26218 
L 497.791315 243.26218 
L 497.791315 242.641003 
L 490.597793 242.641003 
z
" style="fill:#909090;"/>
   </g>
   <g id="patch_46">
    <path d="M 400.678779 243.26218 
L 400.678779 21.50218 
" style="fill:none;stroke:#000000;stroke-linecap:square;stroke-linejoin:miter;stroke-width:0.8;"/>
   </g>
   <g id="patch_47">
    <path d="M 501.388075 243.26218 
L 501.388075 21.50218 
" style="fill:none;stroke:#000000;stroke-linecap:square;stroke-linejoin:miter;stroke-width:0.8;"/>
   </g>
   <g id="patch_48">
    <path d="M 400.678779 243.26218 
L 501.388075 243.26218 
" style="fill:none;stroke:#000000;stroke-linecap:square;stroke-linejoin:miter;stroke-width:0.8;"/>
   </g>
   <g id="patch_49">
    <path d="M 400.678779 21.50218 
L 501.388075 21.50218 
" style="fill:none;stroke:#000000;stroke-linecap:square;stroke-linejoin:miter;stroke-width:0.8;"/>
   </g>
   <g id="text_40">
    <!-- Rater 3 -->
    <g transform="translate(431.768368 15.50218)scale(0.12 -0.12)">
     <use transform="scale(0.996264)" xlink:href="#CMR17-82"/>
     <use transform="translate(67.791102 0)scale(0.996264)" xlink:href="#CMR17-97"/>
     <use transform="translate(113.481579 0)scale(0.996264)" xlink:href="#CMR17-116"/>
     <use transform="translate(148.762347 0)scale(0.996264)" xlink:href="#CMR17-101"/>
     <use transform="translate(189.248007 0)scale(0.996264)" xlink:href="#CMR17-114"/>
     <use transform="translate(254.604741 0)scale(0.996264)" xlink:href="#CMR17-51"/>
    </g>
   </g>
  </g>
 </g>
 <defs>
  <clipPath id="p63dbf650d6">
   <rect height="221.76" width="100.709297" x="38.125311" y="21.50218"/>
  </clipPath>
  <clipPath id="p1053af4efa">
   <rect height="221.76" width="100.709297" x="158.976467" y="21.50218"/>
  </clipPath>
  <clipPath id="p949ddf8650">
   <rect height="221.76" width="100.709297" x="279.827623" y="21.50218"/>
  </clipPath>
  <clipPath id="pc02fa65597">
   <rect height="221.76" width="100.709297" x="400.678779" y="21.50218"/>
  </clipPath>
 </defs>
</svg>
