<?xml version="1.0" encoding="utf-8" standalone="no"?>
<!DOCTYPE svg PUBLIC "-//W3C//DTD SVG 1.1//EN"
  "http://www.w3.org/Graphics/SVG/1.1/DTD/svg11.dtd">
<!-- Created with matplotlib (https://matplotlib.org/) -->
<svg height="271.708017pt" version="1.1" viewBox="0 0 371.135413 271.708017" width="371.135413pt" xmlns="http://www.w3.org/2000/svg" xmlns:xlink="http://www.w3.org/1999/xlink">
 <defs>
  <style type="text/css">
*{stroke-linecap:butt;stroke-linejoin:round;}
  </style>
 </defs>
 <g id="figure_1">
  <g id="patch_1">
   <path d="M 0 271.708017 
L 371.135413 271.708017 
L 371.135413 0 
L 0 0 
z
" style="fill:#ffffff;"/>
  </g>
  <g id="axes_1">
   <g id="patch_2">
    <path d="M 49.09357 230.64 
L 357.935413 230.64 
L 357.935413 13.2 
L 49.09357 13.2 
z
" style="fill:#ffffff;"/>
   </g>
   <g id="matplotlib.axis_1">
    <g id="xtick_1">
     <g id="line2d_1">
      <path clip-path="url(#p6d5a8a6786)" d="M 49.09357 230.64 
L 49.09357 13.2 
" style="fill:none;stroke:#cccccc;stroke-dasharray:3.7,1.6;stroke-dashoffset:0;"/>
     </g>
     <g id="text_1">
      <!-- $0$ -->
      <defs>
       <path d="M 42 31.84375 
C 42 37.96875 41.90625 48.421875 37.703125 56.453125 
C 34 63.484375 28.09375 66 22.90625 66 
C 18.09375 66 12 63.78125 8.203125 56.5625 
C 4.203125 49.015625 3.796875 39.671875 3.796875 31.84375 
C 3.796875 26.109375 3.90625 17.375 7 9.734375 
C 11.296875 -0.609375 19 -2 22.90625 -2 
C 27.5 -2 34.5 -0.109375 38.59375 9.4375 
C 41.59375 16.375 42 24.5 42 31.84375 
z
M 22.90625 -0.40625 
C 16.5 -0.40625 12.703125 5.125 11.296875 12.75 
C 10.203125 18.6875 10.203125 27.328125 10.203125 32.953125 
C 10.203125 40.6875 10.203125 47.109375 11.5 53.234375 
C 13.40625 61.78125 19 64.390625 22.90625 64.390625 
C 27 64.390625 32.296875 61.671875 34.203125 53.4375 
C 35.5 47.71875 35.59375 40.984375 35.59375 32.953125 
C 35.59375 26.421875 35.59375 18.375 34.40625 12.453125 
C 32.296875 1.5 26.40625 -0.40625 22.90625 -0.40625 
z
" id="CMR17-48"/>
      </defs>
      <g style="fill:#262626;" transform="translate(46.353836 247.750347)scale(0.11 -0.11)">
       <use transform="scale(0.996264)" xlink:href="#CMR17-48"/>
      </g>
     </g>
    </g>
    <g id="xtick_2">
     <g id="line2d_2">
      <path clip-path="url(#p6d5a8a6786)" d="M 110.861939 230.64 
L 110.861939 13.2 
" style="fill:none;stroke:#cccccc;stroke-dasharray:3.7,1.6;stroke-dashoffset:0;"/>
     </g>
     <g id="text_2">
      <!-- $5$ -->
      <defs>
       <path d="M 11.40625 58.59375 
C 12.40625 58.1875 16.5 56.890625 20.703125 56.890625 
C 30 56.890625 35.09375 61.890625 38 64.6875 
C 38 65.484375 38 66 37.40625 66 
C 37.296875 66 37.09375 66 36.296875 65.59375 
C 32.796875 64.09375 28.703125 63 23.703125 63 
C 20.703125 63 16.203125 63.359375 11.296875 65.484375 
C 10.203125 66 10 66 9.90625 66 
C 9.40625 66 9.296875 65.890625 9.296875 63.90625 
L 9.296875 34.859375 
C 9.296875 33.015625 9.296875 32.5 10.296875 32.5 
C 10.796875 32.5 11 32.703125 11.5 33.421875 
C 14.703125 38.046875 19.09375 40 24.09375 40 
C 27.59375 40 35.09375 37.734375 35.09375 20.203125 
C 35.09375 16.984375 35.09375 11.1875 32.09375 6.59375 
C 29.59375 2.484375 25.703125 0.390625 21.40625 0.390625 
C 14.796875 0.390625 8.09375 4.984375 6.296875 12.6875 
C 6.703125 12.59375 7.5 12.390625 7.90625 12.390625 
C 9.203125 12.390625 11.703125 13.09375 11.703125 16.1875 
C 11.703125 18.890625 9.796875 20 7.90625 20 
C 5.59375 20 4.09375 18.59375 4.09375 15.796875 
C 4.09375 7.09375 11 -2 21.59375 -2 
C 31.90625 -2 41.703125 6.890625 41.703125 19.796875 
C 41.703125 32.09375 33.90625 41.59375 24.203125 41.59375 
C 19.09375 41.59375 14.796875 39.6875 11.40625 36 
z
" id="CMR17-53"/>
      </defs>
      <g style="fill:#262626;" transform="translate(108.122205 247.750347)scale(0.11 -0.11)">
       <use transform="scale(0.996264)" xlink:href="#CMR17-53"/>
      </g>
     </g>
    </g>
    <g id="xtick_3">
     <g id="line2d_3">
      <path clip-path="url(#p6d5a8a6786)" d="M 172.630307 230.64 
L 172.630307 13.2 
" style="fill:none;stroke:#cccccc;stroke-dasharray:3.7,1.6;stroke-dashoffset:0;"/>
     </g>
     <g id="text_3">
      <!-- $10$ -->
      <defs>
       <path d="M 26.59375 63.796875 
C 26.59375 65.890625 26.5 66 25.09375 66 
C 21.203125 61.359375 15.296875 59.890625 9.703125 59.6875 
C 9.40625 59.6875 8.90625 59.6875 8.796875 59.5 
C 8.703125 59.296875 8.703125 59.09375 8.703125 57 
C 11.796875 57 17 57.59375 21 59.984375 
L 21 7.296875 
C 21 3.796875 20.796875 2.59375 12.203125 2.59375 
L 9.203125 2.59375 
L 9.203125 0 
C 14 0.09375 19 0.1875 23.796875 0.1875 
C 28.59375 0.1875 33.59375 0.09375 38.40625 0 
L 38.40625 2.59375 
L 35.40625 2.59375 
C 26.796875 2.59375 26.59375 3.6875 26.59375 7.296875 
z
" id="CMR17-49"/>
      </defs>
      <g style="fill:#262626;" transform="translate(167.15084 247.750347)scale(0.11 -0.11)">
       <use transform="scale(0.996264)" xlink:href="#CMR17-49"/>
       <use transform="translate(45.690477 0)scale(0.996264)" xlink:href="#CMR17-48"/>
      </g>
     </g>
    </g>
    <g id="xtick_4">
     <g id="line2d_4">
      <path clip-path="url(#p6d5a8a6786)" d="M 234.398676 230.64 
L 234.398676 13.2 
" style="fill:none;stroke:#cccccc;stroke-dasharray:3.7,1.6;stroke-dashoffset:0;"/>
     </g>
     <g id="text_4">
      <!-- $15$ -->
      <g style="fill:#262626;" transform="translate(228.919208 247.750347)scale(0.11 -0.11)">
       <use transform="scale(0.996264)" xlink:href="#CMR17-49"/>
       <use transform="translate(45.690477 0)scale(0.996264)" xlink:href="#CMR17-53"/>
      </g>
     </g>
    </g>
    <g id="xtick_5">
     <g id="line2d_5">
      <path clip-path="url(#p6d5a8a6786)" d="M 296.167044 230.64 
L 296.167044 13.2 
" style="fill:none;stroke:#cccccc;stroke-dasharray:3.7,1.6;stroke-dashoffset:0;"/>
     </g>
     <g id="text_5">
      <!-- $20$ -->
      <defs>
       <path d="M 41.703125 15.46875 
L 39.90625 15.46875 
C 38.90625 8.390625 38.09375 7.1875 37.703125 6.59375 
C 37.203125 5.796875 30 5.796875 28.59375 5.796875 
L 9.40625 5.796875 
C 13 9.6875 20 16.765625 28.5 24.9375 
C 34.59375 30.71875 41.703125 37.5 41.703125 47.390625 
C 41.703125 59.1875 32.296875 66 21.796875 66 
C 10.796875 66 4.09375 56.296875 4.09375 47.296875 
C 4.09375 43.390625 7 42.890625 8.203125 42.890625 
C 9.203125 42.890625 12.203125 43.484375 12.203125 46.984375 
C 12.203125 50.09375 9.59375 51 8.203125 51 
C 7.59375 51 7 50.890625 6.59375 50.6875 
C 8.5 59.1875 14.296875 63.390625 20.40625 63.390625 
C 29.09375 63.390625 34.796875 56.5 34.796875 47.390625 
C 34.796875 38.703125 29.703125 31.21875 24 24.734375 
L 4.09375 2.296875 
L 4.09375 0 
L 39.296875 0 
z
" id="CMR17-50"/>
      </defs>
      <g style="fill:#262626;" transform="translate(290.687577 247.750347)scale(0.11 -0.11)">
       <use transform="scale(0.996264)" xlink:href="#CMR17-50"/>
       <use transform="translate(45.690477 0)scale(0.996264)" xlink:href="#CMR17-48"/>
      </g>
     </g>
    </g>
    <g id="xtick_6">
     <g id="line2d_6">
      <path clip-path="url(#p6d5a8a6786)" d="M 357.935413 230.64 
L 357.935413 13.2 
" style="fill:none;stroke:#cccccc;stroke-dasharray:3.7,1.6;stroke-dashoffset:0;"/>
     </g>
     <g id="text_6">
      <!-- $25$ -->
      <g style="fill:#262626;" transform="translate(352.455946 247.750347)scale(0.11 -0.11)">
       <use transform="scale(0.996264)" xlink:href="#CMR17-50"/>
       <use transform="translate(45.690477 0)scale(0.996264)" xlink:href="#CMR17-53"/>
      </g>
     </g>
    </g>
    <g id="text_7">
     <!-- TEST test -->
     <defs>
      <path d="M 62.203125 67.6875 
L 4.5 67.6875 
L 2.796875 45.6875 
L 4.59375 45.6875 
C 5.90625 62.203125 7.296875 65.09375 22.703125 65.09375 
C 24.5 65.09375 27.40625 65.09375 28.203125 64.984375 
C 30.09375 64.6875 30.09375 63.5 30.09375 61.203125 
L 30.09375 7.265625 
C 30.09375 3.6875 29.796875 2.59375 21.5 2.59375 
L 18.703125 2.59375 
L 18.703125 0 
C 23.5 0.09375 28.5 0.1875 33.40625 0.1875 
C 38.296875 0.1875 43.296875 0.09375 48.09375 0 
L 48.09375 2.59375 
L 45.296875 2.59375 
C 37 2.59375 36.703125 3.6875 36.703125 7.265625 
L 36.703125 61.203125 
C 36.703125 63.390625 36.703125 64.59375 38.5 64.984375 
C 39.296875 65.09375 42.203125 65.09375 44 65.09375 
C 59.296875 65.09375 60.796875 62.203125 62.09375 45.6875 
L 63.90625 45.6875 
z
" id="CMR17-84"/>
      <path d="M 60.703125 25.21875 
L 58.90625 25.21875 
C 56.703125 10.5625 55.40625 2.59375 37.796875 2.59375 
L 23.90625 2.59375 
C 19.90625 2.59375 19.703125 3.09375 19.703125 6.484375 
L 19.703125 34 
L 29.09375 34 
C 38.5 34 39.40625 30.609375 39.40625 22.328125 
L 41.203125 22.328125 
L 41.203125 48.21875 
L 39.40625 48.21875 
C 39.40625 39.96875 38.5 36.59375 29.09375 36.59375 
L 19.703125 36.59375 
L 19.703125 61.3125 
C 19.703125 64.703125 19.90625 65.1875 23.90625 65.1875 
L 37.59375 65.1875 
C 53.09375 65.1875 54.90625 59.03125 56.296875 45.828125 
L 58.09375 45.828125 
L 55.703125 67.796875 
L 5.09375 67.796875 
L 5.09375 65.1875 
C 12 65.1875 13.09375 65.1875 13.09375 60.71875 
L 13.09375 7.078125 
C 13.09375 2.59375 12 2.59375 5.09375 2.59375 
L 5.09375 0 
L 57.09375 0 
z
" id="CMR17-69"/>
      <path d="M 43.796875 67.984375 
C 43.796875 69.796875 43.703125 69.890625 43.09375 69.890625 
C 42.5 69.890625 42.296875 69.484375 41.90625 68.59375 
L 38.90625 61.953125 
C 35.09375 67.5 29.296875 70 23 70 
C 12.796875 70 4.59375 61.84375 4.59375 51.578125 
C 4.59375 48.453125 5.296875 44.015625 8.703125 39.78125 
C 12.40625 35.15625 15.90625 34.34375 23.90625 32.234375 
C 26.90625 31.421875 31.90625 30.109375 32.90625 29.703125 
C 38.59375 27.296875 41.59375 21.25 41.59375 15.609375 
C 41.59375 8.34375 36.5 0.59375 27.796875 0.59375 
C 17.09375 0.59375 7.09375 6.640625 6.40625 20.75 
C 6.296875 22.359375 6.203125 22.453125 5.5 22.453125 
C 4.703125 22.453125 4.59375 22.359375 4.59375 20.34375 
L 4.59375 0 
C 4.59375 -1.8125 4.703125 -1.90625 5.296875 -1.90625 
C 6 -1.90625 6.203125 -1.40625 7.59375 1.703125 
C 7.703125 2 7.703125 2.203125 9.59375 6.03125 
C 14.59375 -0.609375 23 -2 27.796875 -2 
C 38.703125 -2 46.40625 7.140625 46.40625 17.828125 
C 46.40625 23.0625 44.5 27.09375 43.40625 28.90625 
C 39.203125 35.359375 34.703125 36.5625 29.90625 37.765625 
C 29.203125 38.078125 29 38.078125 23.40625 39.484375 
C 18 40.890625 15.703125 41.59375 13.203125 44.3125 
C 10.40625 47.4375 9.40625 50.671875 9.40625 53.890625 
C 9.40625 60.4375 14.59375 67.59375 23.09375 67.59375 
C 33.703125 67.59375 40.296875 60.03125 41.796875 47.4375 
C 42.09375 45.625 42.203125 45.53125 42.90625 45.53125 
C 43.796875 45.53125 43.796875 45.828125 43.796875 47.546875 
z
" id="CMR17-83"/>
      <path d="M 15.09375 40.390625 
L 29.09375 40.390625 
L 29.09375 43 
L 15.09375 43 
L 15.09375 62 
L 13.296875 62 
C 13.09375 51.4375 9.59375 42.1875 1.09375 41.984375 
L 1.09375 40.390625 
L 9.796875 40.390625 
L 9.796875 12.15625 
C 9.796875 10.234375 9.796875 -1 21.40625 -1 
C 27.296875 -1 30.703125 4.8125 30.703125 12.25 
L 30.703125 17.984375 
L 28.90625 17.984375 
L 28.90625 12.34375 
C 28.90625 5.421875 26.203125 0.796875 22 0.796875 
C 19.09375 0.796875 15.09375 2.796875 15.09375 11.953125 
z
" id="CMR17-116"/>
      <path d="M 38.09375 23.484375 
C 38.5 23.890625 38.5 24.09375 38.5 25.09375 
C 38.5 35.171875 33.09375 44 21.703125 44 
C 11.09375 44 2.703125 33.984375 2.703125 21.78125 
C 2.703125 8.65625 12.203125 -1 22.796875 -1 
C 34 -1 38.40625 9.671875 38.40625 11.796875 
C 38.40625 12.5 37.796875 12.5 37.59375 12.5 
C 36.90625 12.5 36.796875 12.296875 36.40625 11.078125 
C 34.203125 4.21875 28.703125 0.796875 23.5 0.796875 
C 19.203125 0.796875 14.90625 3.21875 12.203125 7.65625 
C 9.09375 12.796875 9.09375 18.75 9.09375 23.484375 
z
M 9.203125 25 
C 9.90625 39.234375 17.59375 42.390625 21.59375 42.390625 
C 28.40625 42.390625 33 36.0625 33.09375 25 
z
" id="CMR17-101"/>
      <path d="M 30.90625 42 
C 30.90625 43.796875 30.796875 43.890625 30.203125 43.890625 
C 29.796875 43.890625 29.703125 43.796875 28.5 42.296875 
C 28.203125 41.890625 27.296875 40.890625 27 40.5 
C 23.796875 43.890625 19.296875 44 17.59375 44 
C 6.5 44 2.5 38.1875 2.5 32.390625 
C 2.5 23.390625 12.703125 21.296875 15.59375 20.6875 
C 21.90625 19.390625 24.09375 19 26.203125 17.1875 
C 27.5 16 29.703125 13.796875 29.703125 10.1875 
C 29.703125 6 27.296875 0.59375 18.09375 0.59375 
C 9.40625 0.59375 6.296875 7.1875 4.5 16 
C 4.203125 17.390625 4.203125 17.5 3.40625 17.5 
C 2.59375 17.5 2.5 17.390625 2.5 15.390625 
L 2.5 1 
C 2.5 -0.8125 2.59375 -0.90625 3.203125 -0.90625 
C 3.703125 -0.90625 3.796875 -0.8125 4.296875 0 
C 4.90625 0.890625 6.40625 3.296875 7 4.296875 
C 9 1.59375 12.5 -1 18.09375 -1 
C 28 -1 33.296875 4.390625 33.296875 12.1875 
C 33.296875 17.296875 30.59375 20 29.296875 21.1875 
C 26.296875 24.296875 22.796875 25 18.59375 25.796875 
C 13.09375 27 6.09375 28.390625 6.09375 34.5 
C 6.09375 37.09375 7.5 42.59375 17.59375 42.59375 
C 28.296875 42.59375 28.90625 32.59375 29.09375 29.390625 
C 29.203125 28.890625 29.703125 28.796875 30 28.796875 
C 30.90625 28.796875 30.90625 29.09375 30.90625 30.796875 
z
" id="CMR17-115"/>
     </defs>
     <g style="fill:#262626;" transform="translate(176.412929 262.183421)scale(0.12 -0.12)">
      <use transform="scale(0.996264)" xlink:href="#CMR17-84"/>
      <use transform="translate(66.509881 0)scale(0.996264)" xlink:href="#CMR17-69"/>
      <use transform="translate(129.096181 0)scale(0.996264)" xlink:href="#CMR17-83"/>
      <use transform="translate(179.991551 0)scale(0.996264)" xlink:href="#CMR17-84"/>
      <use transform="translate(276.577398 0)scale(0.996264)" xlink:href="#CMR17-116"/>
      <use transform="translate(311.858166 0)scale(0.996264)" xlink:href="#CMR17-101"/>
      <use transform="translate(352.343826 0)scale(0.996264)" xlink:href="#CMR17-115"/>
      <use transform="translate(388.145164 0)scale(0.996264)" xlink:href="#CMR17-116"/>
     </g>
    </g>
   </g>
   <g id="matplotlib.axis_2">
    <g id="ytick_1">
     <g id="line2d_7">
      <path clip-path="url(#p6d5a8a6786)" d="M 49.09357 230.64 
L 357.935413 230.64 
" style="fill:none;stroke:#cccccc;stroke-dasharray:3.7,1.6;stroke-dashoffset:0;"/>
     </g>
     <g id="text_8">
      <!-- 0 -->
      <g style="fill:#262626;" transform="translate(34.114103 234.445173)scale(0.11 -0.11)">
       <use transform="scale(0.996264)" xlink:href="#CMR17-48"/>
      </g>
     </g>
    </g>
    <g id="ytick_2">
     <g id="line2d_8">
      <path clip-path="url(#p6d5a8a6786)" d="M 49.09357 187.152 
L 357.935413 187.152 
" style="fill:none;stroke:#cccccc;stroke-dasharray:3.7,1.6;stroke-dashoffset:0;"/>
     </g>
     <g id="text_9">
      <!-- 20 -->
      <g style="fill:#262626;" transform="translate(28.634635 190.957173)scale(0.11 -0.11)">
       <use transform="scale(0.996264)" xlink:href="#CMR17-50"/>
       <use transform="translate(45.690477 0)scale(0.996264)" xlink:href="#CMR17-48"/>
      </g>
     </g>
    </g>
    <g id="ytick_3">
     <g id="line2d_9">
      <path clip-path="url(#p6d5a8a6786)" d="M 49.09357 143.664 
L 357.935413 143.664 
" style="fill:none;stroke:#cccccc;stroke-dasharray:3.7,1.6;stroke-dashoffset:0;"/>
     </g>
     <g id="text_10">
      <!-- 40 -->
      <defs>
       <path d="M 33.59375 64.796875 
C 33.59375 66.890625 33.5 67 31.703125 67 
L 2 19.59375 
L 2 17 
L 27.796875 17 
L 27.796875 7.1875 
C 27.796875 3.59375 27.59375 2.59375 20.59375 2.59375 
L 18.703125 2.59375 
L 18.703125 0 
C 21.90625 0.1875 27.296875 0.1875 30.703125 0.1875 
C 34.09375 0.1875 39.5 0.1875 42.703125 0 
L 42.703125 2.59375 
L 40.796875 2.59375 
C 33.796875 2.59375 33.59375 3.59375 33.59375 7.1875 
L 33.59375 17 
L 43.796875 17 
L 43.796875 19.59375 
L 33.59375 19.59375 
z
M 28.09375 58.171875 
L 28.09375 19.59375 
L 4 19.59375 
z
" id="CMR17-52"/>
      </defs>
      <g style="fill:#262626;" transform="translate(28.634635 147.469173)scale(0.11 -0.11)">
       <use transform="scale(0.996264)" xlink:href="#CMR17-52"/>
       <use transform="translate(45.690477 0)scale(0.996264)" xlink:href="#CMR17-48"/>
      </g>
     </g>
    </g>
    <g id="ytick_4">
     <g id="line2d_10">
      <path clip-path="url(#p6d5a8a6786)" d="M 49.09357 100.176 
L 357.935413 100.176 
" style="fill:none;stroke:#cccccc;stroke-dasharray:3.7,1.6;stroke-dashoffset:0;"/>
     </g>
     <g id="text_11">
      <!-- 60 -->
      <defs>
       <path d="M 10.59375 34.34375 
C 10.59375 58 21.796875 63.6875 28.296875 63.6875 
C 30.40625 63.6875 35.5 63.265625 37.5 59.09375 
C 35.90625 59.09375 32.90625 59.09375 32.90625 55.59375 
C 32.90625 52.890625 35.09375 52 36.5 52 
C 37.40625 52 40.09375 52.390625 40.09375 55.796875 
C 40.09375 62.296875 35.09375 66 28.203125 66 
C 16.296875 66 3.796875 53.296875 3.796875 31.421875 
C 3.796875 4.015625 15.09375 -2 23.09375 -2 
C 32.796875 -2 42 6.734375 42 20.234375 
C 42 32.828125 33.90625 42 23.703125 42 
C 17.59375 42 13.09375 37.96875 10.59375 30.921875 
z
M 23.09375 0.390625 
C 10.796875 0.390625 10.796875 18.9375 10.796875 22.65625 
C 10.796875 29.90625 14.203125 40.390625 23.5 40.390625 
C 25.203125 40.390625 30.09375 40.390625 33.40625 33.4375 
C 35.203125 29.515625 35.203125 25.375 35.203125 20.34375 
C 35.203125 14.90625 35.203125 10.875 33.09375 6.84375 
C 30.90625 2.703125 27.703125 0.390625 23.09375 0.390625 
z
" id="CMR17-54"/>
      </defs>
      <g style="fill:#262626;" transform="translate(28.634635 103.981173)scale(0.11 -0.11)">
       <use transform="scale(0.996264)" xlink:href="#CMR17-54"/>
       <use transform="translate(45.690477 0)scale(0.996264)" xlink:href="#CMR17-48"/>
      </g>
     </g>
    </g>
    <g id="ytick_5">
     <g id="line2d_11">
      <path clip-path="url(#p6d5a8a6786)" d="M 49.09357 56.688 
L 357.935413 56.688 
" style="fill:none;stroke:#cccccc;stroke-dasharray:3.7,1.6;stroke-dashoffset:0;"/>
     </g>
     <g id="text_12">
      <!-- 80 -->
      <defs>
       <path d="M 27.203125 35.765625 
C 33.5 38.96875 39.90625 43.796875 39.90625 51.53125 
C 39.90625 60.6875 31.09375 66 23 66 
C 13.90625 66 5.90625 59.375 5.90625 50.234375 
C 5.90625 47.71875 6.5 43.390625 10.40625 39.578125 
C 11.40625 38.578125 15.59375 35.5625 18.296875 33.65625 
C 13.796875 31.34375 3.296875 25.8125 3.296875 14.765625 
C 3.296875 4.40625 13.09375 -2 22.796875 -2 
C 33.5 -2 42.5 5.71875 42.5 15.96875 
C 42.5 25.109375 36.40625 29.328125 32.40625 32.046875 
z
M 14.09375 44.609375 
C 13.296875 45.109375 9.296875 48.21875 9.296875 52.9375 
C 9.296875 59.078125 15.59375 63.6875 22.796875 63.6875 
C 30.703125 63.6875 36.5 58.0625 36.5 51.53125 
C 36.5 42.1875 26.09375 36.859375 25.59375 36.859375 
C 25.5 36.859375 25.40625 36.859375 24.59375 37.46875 
z
M 32.5 24 
C 34 22.90625 38.796875 19.578125 38.796875 13.453125 
C 38.796875 6.015625 31.40625 0.390625 23 0.390625 
C 13.90625 0.390625 7 6.921875 7 14.859375 
C 7 22.796875 13.09375 29.4375 20 32.546875 
z
" id="CMR17-56"/>
      </defs>
      <g style="fill:#262626;" transform="translate(28.634635 60.493173)scale(0.11 -0.11)">
       <use transform="scale(0.996264)" xlink:href="#CMR17-56"/>
       <use transform="translate(45.690477 0)scale(0.996264)" xlink:href="#CMR17-48"/>
      </g>
     </g>
    </g>
    <g id="ytick_6">
     <g id="line2d_12">
      <path clip-path="url(#p6d5a8a6786)" d="M 49.09357 13.2 
L 357.935413 13.2 
" style="fill:none;stroke:#cccccc;stroke-dasharray:3.7,1.6;stroke-dashoffset:0;"/>
     </g>
     <g id="text_13">
      <!-- 100 -->
      <g style="fill:#262626;" transform="translate(23.155168 17.005173)scale(0.11 -0.11)">
       <use transform="scale(0.996264)" xlink:href="#CMR17-49"/>
       <use transform="translate(45.690477 0)scale(0.996264)" xlink:href="#CMR17-48"/>
       <use transform="translate(91.380954 0)scale(0.996264)" xlink:href="#CMR17-48"/>
      </g>
     </g>
    </g>
    <g id="text_14">
     <!-- Correct classification [pct] -->
     <defs>
      <path d="M 62.09375 67.984375 
C 62.09375 69.796875 62 69.890625 61.40625 69.890625 
C 61 69.890625 60.90625 69.796875 60.203125 68.59375 
L 55.796875 60.140625 
C 50.90625 66.390625 44.90625 70 37.203125 70 
C 20.09375 70 4.59375 54.796875 4.59375 34.046875 
C 4.59375 13.078125 20.09375 -2 37.296875 -2 
C 52.59375 -2 62.09375 11.578125 62.09375 23.15625 
C 62.09375 24.171875 62.09375 24.578125 61.203125 24.578125 
C 60.40625 24.578125 60.40625 24.265625 60.296875 23.359375 
C 59.5 9.25 49.5 0.59375 38.703125 0.59375 
C 28.5 0.59375 12.203125 7.84375 12.203125 34.046875 
C 12.203125 60.34375 28.796875 67.390625 38.5 67.390625 
C 49.796875 67.390625 58 57.515625 59.90625 43.515625 
C 60.09375 42.296875 60.09375 42.109375 61 42.109375 
C 62.09375 42.109375 62.09375 42.296875 62.09375 44.125 
z
" id="CMR17-67"/>
      <path d="M 43.09375 21.1875 
C 43.09375 34 33.796875 44 22.90625 44 
C 12 44 2.703125 34 2.703125 21.1875 
C 2.703125 8.59375 12 -1 22.90625 -1 
C 33.796875 -1 43.09375 8.59375 43.09375 21.1875 
z
M 22.90625 0.796875 
C 18.203125 0.796875 14.203125 3.59375 11.90625 7.5 
C 9.40625 12 9.09375 17.59375 9.09375 22 
C 9.09375 26.1875 9.296875 31.390625 11.90625 35.890625 
C 13.90625 39.1875 17.796875 42.390625 22.90625 42.390625 
C 27.40625 42.390625 31.203125 39.890625 33.59375 36.390625 
C 36.703125 31.6875 36.703125 25.09375 36.703125 22 
C 36.703125 18.09375 36.5 12.09375 33.796875 7.296875 
C 31 2.6875 26.703125 0.796875 22.90625 0.796875 
z
" id="CMR17-111"/>
      <path d="M 15 23.703125 
C 15 33.34375 19.09375 42.390625 26.59375 42.390625 
C 27.296875 42.390625 28 42.296875 28.703125 41.984375 
C 28.703125 41.984375 26.5 41.28125 26.5 38.671875 
C 26.5 36.265625 28.40625 35.265625 29.90625 35.265625 
C 31.09375 35.265625 33.296875 35.96875 33.296875 38.78125 
C 33.296875 41.984375 30.09375 44 26.703125 44 
C 19.09375 44 15.796875 36.5625 14.796875 33.046875 
L 14.703125 33.046875 
L 14.703125 44 
L 3.09375 42.890625 
L 3.09375 40.28125 
C 9 40.28125 9.90625 39.6875 9.90625 34.859375 
L 9.90625 6.921875 
C 9.90625 3.09375 9.5 2.59375 3.09375 2.59375 
L 3.09375 0 
C 5.5 0.1875 10.09375 0.1875 12.703125 0.1875 
C 15.59375 0.1875 20.703125 0.1875 23.40625 0 
L 23.40625 2.59375 
C 16.203125 2.59375 15 2.59375 15 7.109375 
z
" id="CMR17-114"/>
      <path d="M 34.90625 35 
C 33 35 30.203125 35 30.203125 31.484375 
C 30.203125 28.6875 32.5 27.890625 33.796875 27.890625 
C 34.5 27.890625 37.40625 28.1875 37.40625 31.6875 
C 37.40625 38.6875 30.59375 44 22.90625 44 
C 12.296875 44 3.296875 34.390625 3.296875 21.546875 
C 3.296875 8.140625 12.703125 -1 22.90625 -1 
C 35.296875 -1 38.40625 10.5625 38.40625 11.671875 
C 38.40625 12.078125 38.296875 12.375 37.59375 12.375 
C 36.90625 12.375 36.796875 12.28125 36.40625 10.96875 
C 33.796875 2.8125 28.09375 0.796875 23.796875 0.796875 
C 17.40625 0.796875 9.703125 6.734375 9.703125 21.640625 
C 9.703125 36.84375 17.09375 42.1875 23 42.1875 
C 26.90625 42.1875 32.703125 40.34375 34.90625 35 
z
" id="CMR17-99"/>
      <path d="M 15.296875 69 
L 3.40625 67.890625 
L 3.40625 65.296875 
C 9.296875 65.296875 10.203125 64.703125 10.203125 59.921875 
L 10.203125 6.859375 
C 10.203125 3.09375 9.796875 2.59375 3.40625 2.59375 
L 3.40625 0 
C 5.796875 0.1875 10.203125 0.1875 12.703125 0.1875 
C 15.296875 0.1875 19.703125 0.1875 22.09375 0 
L 22.09375 2.59375 
C 15.703125 2.59375 15.296875 2.984375 15.296875 6.859375 
z
" id="CMR17-108"/>
      <path d="M 36 25.875 
C 36 32 36 35.546875 31.796875 39.59375 
C 28.09375 42.984375 23.796875 44 20.40625 44 
C 12.5 44 6.796875 37.625 6.796875 30.890625 
C 6.796875 27.1875 9.796875 27 10.40625 27 
C 11.703125 27 14 27.796875 14 30.59375 
C 14 33.09375 12.09375 34.1875 10.40625 34.1875 
C 10 34.1875 9.5 34.09375 9.203125 34 
C 11.296875 40.53125 16.703125 42.390625 20.203125 42.390625 
C 25.203125 42.390625 30.703125 37.828125 30.703125 29.296875 
L 30.703125 25.5 
C 24.796875 25.296875 17.703125 24.5 12.09375 21.453125 
C 5.796875 17.921875 4 12.84375 4 9 
C 4 1.203125 13 -1 18.296875 -1 
C 23.796875 -1 28.90625 2.109375 31.09375 7.890625 
C 31.296875 3.421875 34.09375 -0.609375 38.5 -0.609375 
C 40.59375 -0.609375 45.90625 0.796875 45.90625 8.796875 
L 45.90625 14.46875 
L 44.09375 14.46875 
L 44.09375 8.703125 
C 44.09375 2.515625 41.40625 1.703125 40.09375 1.703125 
C 36 1.703125 36 6.96875 36 11.4375 
z
M 30.703125 13.859375 
C 30.703125 5.046875 24.5 0.59375 19 0.59375 
C 14 0.59375 10.09375 4.34375 10.09375 9 
C 10.09375 12.046875 11.40625 17.40625 17.203125 20.65625 
C 22 23.390625 27.5 23.796875 30.703125 24 
z
" id="CMR17-97"/>
      <path d="M 15.5 61.890625 
C 15.5 64.09375 13.703125 66 11.40625 66 
C 9.203125 66 7.296875 64.1875 7.296875 61.890625 
C 7.296875 59.6875 9.09375 57.796875 11.40625 57.796875 
C 13.59375 57.796875 15.5 59.59375 15.5 61.890625 
z
M 3.796875 42.890625 
L 3.796875 40.296875 
C 9.40625 40.296875 10.203125 39.6875 10.203125 34.859375 
L 10.203125 6.921875 
C 10.203125 3.09375 9.796875 2.59375 3.40625 2.59375 
L 3.40625 0 
C 5.796875 0.1875 10.09375 0.1875 12.59375 0.1875 
C 15 0.1875 19.09375 0.1875 21.40625 0 
L 21.40625 2.59375 
C 15.5 2.59375 15.296875 3.203125 15.296875 6.8125 
L 15.296875 44 
z
" id="CMR17-105"/>
      <path d="M 39.90625 44 
C 37.5 43.890625 30.09375 43.390625 28.203125 43.1875 
C 27.59375 43.09375 27.40625 43.09375 26.203125 43.09375 
L 14.796875 43.09375 
L 14.796875 54.953125 
C 14.796875 64.484375 22.40625 69 28.40625 69 
C 30.296875 69 34.59375 68.484375 36.796875 65 
C 35.796875 65 32.59375 65 32.59375 61.484375 
C 32.59375 59.09375 34.203125 57.890625 36.203125 57.890625 
C 38 57.890625 39.796875 58.890625 39.796875 61.59375 
C 39.796875 66.640625 35 70.59375 28.796875 70.59375 
C 20.90625 70.59375 9.90625 66.015625 9.90625 54.953125 
L 9.90625 43.09375 
L 1.90625 43.09375 
L 1.90625 40.484375 
L 9.90625 40.484375 
L 9.90625 6.90625 
C 9.90625 3.09375 9.5 2.59375 3.09375 2.59375 
L 3.09375 0 
C 5.5 0.1875 9.90625 0.1875 12.40625 0.1875 
C 15 0.1875 19.40625 0.1875 21.796875 0 
L 21.796875 2.59375 
C 15.40625 2.59375 15 3 15 6.90625 
L 15 40.484375 
L 29.703125 40.484375 
C 34 40.484375 34.796875 39.59375 34.796875 35.171875 
L 34.796875 6.90625 
C 34.796875 3.09375 34.40625 2.59375 28 2.59375 
L 28 0 
C 30.40625 0.1875 34.796875 0.1875 37.296875 0.1875 
C 39.90625 0.1875 44.296875 0.1875 46.703125 0 
L 46.703125 2.59375 
C 40.296875 2.59375 39.90625 3 39.90625 6.90625 
z
" id="CMR17-12"/>
      <path d="M 41.5 30.53125 
C 41.5 35.65625 40.5 44 28.703125 44 
C 20.796875 44 16.703125 37.875 15.203125 33.84375 
L 15.09375 33.84375 
L 15.09375 44 
L 3.296875 42.890625 
L 3.296875 40.28125 
C 9.203125 40.28125 10.09375 39.6875 10.09375 34.859375 
L 10.09375 6.921875 
C 10.09375 3.09375 9.703125 2.59375 3.296875 2.59375 
L 3.296875 0 
C 5.703125 0.1875 10.09375 0.1875 12.703125 0.1875 
C 15.296875 0.1875 19.796875 0.1875 22.203125 0 
L 22.203125 2.59375 
C 15.796875 2.59375 15.40625 3 15.40625 6.921875 
L 15.40625 26.21875 
C 15.40625 35.453125 21 42.390625 28 42.390625 
C 35.40625 42.390625 36.203125 35.765625 36.203125 30.9375 
L 36.203125 6.921875 
C 36.203125 3.09375 35.796875 2.59375 29.40625 2.59375 
L 29.40625 0 
C 31.796875 0.1875 36.203125 0.1875 38.796875 0.1875 
C 41.40625 0.1875 45.90625 0.1875 48.296875 0 
L 48.296875 2.59375 
C 41.90625 2.59375 41.5 3 41.5 6.921875 
z
" id="CMR17-110"/>
      <path d="M 23.5 -25 
L 23.5 -21.5 
L 14.09375 -21.5 
L 14.09375 71.484375 
L 23.5 71.484375 
L 23.5 75 
L 10.59375 75 
L 10.59375 -25 
z
" id="CMR17-91"/>
      <path d="M 22 -17.40625 
C 15.59375 -17.40625 15.203125 -17 15.203125 -13.03125 
L 15.203125 5.9375 
C 18.09375 1.703125 22.296875 -1 27.59375 -1 
C 37.59375 -1 47.703125 7.859375 47.703125 21.59375 
C 47.703125 34.3125 39 44 28.703125 44 
C 22.703125 44 17.796875 40.671875 15 36.640625 
L 15 44 
L 3.09375 42.890625 
L 3.09375 40.265625 
C 9 40.265625 9.90625 39.671875 9.90625 34.8125 
L 9.90625 -13.03125 
C 9.90625 -16.890625 9.5 -17.40625 3.09375 -17.40625 
L 3.09375 -20 
C 5.5 -19.8125 9.90625 -19.8125 12.5 -19.8125 
C 15.09375 -19.8125 19.59375 -19.8125 22 -20 
z
M 15.203125 31.484375 
C 15.203125 32.90625 15.203125 35.015625 19.09375 38.765625 
C 19.59375 39.15625 23 42.1875 28 42.1875 
C 35.296875 42.1875 41.296875 33 41.296875 21.5 
C 41.296875 9.984375 34.90625 0.59375 27 0.59375 
C 23.40625 0.59375 19.5 2.3125 16.5 7.046875 
C 15.203125 9.28125 15.203125 9.875 15.203125 11.5 
z
" id="CMR17-112"/>
      <path d="M 14.296875 75 
L 1.40625 75 
L 1.40625 71.484375 
L 10.796875 71.484375 
L 10.796875 -21.5 
L 1.40625 -21.5 
L 1.40625 -25 
L 14.296875 -25 
z
" id="CMR17-93"/>
     </defs>
     <g style="fill:#262626;" transform="translate(16.166376 188.806672)rotate(-90)scale(0.12 -0.12)">
      <use transform="scale(0.996264)" xlink:href="#CMR17-67"/>
      <use transform="translate(66.509881 0)scale(0.996264)" xlink:href="#CMR17-111"/>
      <use transform="translate(112.200358 0)scale(0.996264)" xlink:href="#CMR17-114"/>
      <use transform="translate(147.481125 0)scale(0.996264)" xlink:href="#CMR17-114"/>
      <use transform="translate(182.761893 0)scale(0.996264)" xlink:href="#CMR17-101"/>
      <use transform="translate(223.247554 0)scale(0.996264)" xlink:href="#CMR17-99"/>
      <use transform="translate(263.733214 0)scale(0.996264)" xlink:href="#CMR17-116"/>
      <use transform="translate(329.089948 0)scale(0.996264)" xlink:href="#CMR17-99"/>
      <use transform="translate(369.575609 0)scale(0.996264)" xlink:href="#CMR17-108"/>
      <use transform="translate(394.446667 0)scale(0.996264)" xlink:href="#CMR17-97"/>
      <use transform="translate(440.137144 0)scale(0.996264)" xlink:href="#CMR17-115"/>
      <use transform="translate(475.938482 0)scale(0.996264)" xlink:href="#CMR17-115"/>
      <use transform="translate(511.73982 0)scale(0.996264)" xlink:href="#CMR17-105"/>
      <use transform="translate(536.610878 0)scale(0.996264)" xlink:href="#CMR17-12"/>
      <use transform="translate(586.353102 0)scale(0.996264)" xlink:href="#CMR17-99"/>
      <use transform="translate(626.838762 0)scale(0.996264)" xlink:href="#CMR17-97"/>
      <use transform="translate(672.529239 0)scale(0.996264)" xlink:href="#CMR17-116"/>
      <use transform="translate(707.810007 0)scale(0.996264)" xlink:href="#CMR17-105"/>
      <use transform="translate(732.681065 0)scale(0.996264)" xlink:href="#CMR17-111"/>
      <use transform="translate(778.371543 0)scale(0.996264)" xlink:href="#CMR17-110"/>
      <use transform="translate(859.342879 0)scale(0.996264)" xlink:href="#CMR17-91"/>
      <use transform="translate(884.213937 0)scale(0.996264)" xlink:href="#CMR17-112"/>
      <use transform="translate(937.711746 0)scale(0.996264)" xlink:href="#CMR17-99"/>
      <use transform="translate(978.197406 0)scale(0.996264)" xlink:href="#CMR17-116"/>
      <use transform="translate(1013.478174 0)scale(0.996264)" xlink:href="#CMR17-93"/>
     </g>
    </g>
   </g>
   <g id="PolyCollection_1">
    <defs>
     <path d="M 49.09357 -183.504409 
L 49.09357 -158.216069 
L 52.213184 -160.088389 
L 55.332799 -161.953581 
L 58.452414 -163.790817 
L 61.572028 -165.612622 
L 64.691643 -167.467173 
L 67.811257 -169.260413 
L 70.930872 -171.077776 
L 74.050487 -173.003201 
L 77.170101 -174.718794 
L 80.289716 -176.369847 
L 83.40933 -178.041311 
L 86.528945 -179.775858 
L 89.648559 -181.431101 
L 92.768174 -183.068565 
L 95.887789 -184.693927 
L 99.007403 -186.304193 
L 102.127018 -187.78726 
L 105.246632 -189.28266 
L 108.366247 -190.795731 
L 111.485861 -192.436231 
L 114.605476 -193.876353 
L 117.725091 -195.318241 
L 120.844705 -196.590241 
L 123.96432 -198.044792 
L 127.083934 -199.455465 
L 130.203549 -200.744103 
L 133.323163 -202.034521 
L 136.442778 -203.182649 
L 139.562393 -204.361249 
L 142.682007 -205.575307 
L 145.801622 -206.746269 
L 148.921236 -207.962653 
L 152.040851 -209.031099 
L 155.160465 -210.136566 
L 158.28008 -211.180064 
L 161.399695 -212.094439 
L 164.519309 -213.104126 
L 167.638924 -214.032257 
L 170.758538 -215.003878 
L 173.878153 -215.943406 
L 176.997768 -216.768859 
L 180.117382 -217.566401 
L 183.236997 -218.278422 
L 186.356611 -219.056876 
L 189.476226 -219.898512 
L 192.59584 -220.650387 
L 195.715455 -221.390597 
L 198.83507 -222.119495 
L 201.954684 -222.876242 
L 205.074299 -223.542341 
L 208.193913 -224.236826 
L 211.313528 -224.890048 
L 214.433142 -225.55801 
L 217.552757 -226.21524 
L 220.672372 -226.741015 
L 223.791986 -227.382766 
L 226.911601 -227.948791 
L 230.031215 -228.500139 
L 233.15083 -229.043713 
L 236.270444 -229.580342 
L 239.390059 -230.107748 
L 242.509674 -230.701059 
L 245.629288 -231.190292 
L 248.748903 -231.670664 
L 251.868517 -232.155807 
L 254.988132 -232.716757 
L 258.107747 -233.259214 
L 261.227361 -233.709502 
L 264.346976 -234.13482 
L 267.46659 -234.553748 
L 270.586205 -234.966353 
L 273.705819 -235.384886 
L 276.825434 -235.818259 
L 279.945049 -236.24444 
L 283.064663 -236.663512 
L 286.184278 -237.075561 
L 289.303892 -237.481129 
L 292.423507 -237.880082 
L 295.543121 -238.272245 
L 298.662736 -238.657705 
L 301.782351 -239.036547 
L 304.901965 -239.408858 
L 308.02158 -239.774723 
L 311.141194 -240.134229 
L 314.260809 -240.487462 
L 317.380423 -240.834507 
L 320.500038 -241.175449 
L 323.619653 -241.510373 
L 326.739267 -241.839365 
L 329.858882 -242.162509 
L 332.978496 -242.479887 
L 336.098111 -242.791585 
L 339.217726 -243.097686 
L 342.33734 -243.39827 
L 345.456955 -243.693422 
L 348.576569 -243.983222 
L 351.696184 -244.267752 
L 354.815798 -244.547091 
L 357.935413 -244.821383 
L 357.935413 -253.34248 
L 357.935413 -253.34248 
L 354.815798 -253.159091 
L 351.696184 -252.96936 
L 348.576569 -252.773082 
L 345.456955 -252.570042 
L 342.33734 -252.359962 
L 339.217726 -252.142549 
L 336.098111 -251.917687 
L 332.978496 -251.685115 
L 329.858882 -251.444561 
L 326.739267 -251.19582 
L 323.619653 -250.938635 
L 320.500038 -250.672741 
L 317.380423 -250.397868 
L 314.260809 -250.113738 
L 311.141194 -249.820067 
L 308.02158 -249.516564 
L 304.901965 -249.202931 
L 301.782351 -248.878863 
L 298.662736 -248.54405 
L 295.543121 -248.198172 
L 292.423507 -247.840905 
L 289.303892 -247.471918 
L 286.184278 -247.090871 
L 283.064663 -246.697421 
L 279.945049 -246.287816 
L 276.825434 -245.881438 
L 273.705819 -245.473827 
L 270.586205 -245.050039 
L 267.46659 -244.576964 
L 264.346976 -244.087934 
L 261.227361 -243.582997 
L 258.107747 -243.062706 
L 254.988132 -242.544907 
L 251.868517 -242.041394 
L 248.748903 -241.508703 
L 245.629288 -240.99198 
L 242.509674 -240.419474 
L 239.390059 -239.818195 
L 236.270444 -239.198429 
L 233.15083 -238.560173 
L 230.031215 -237.910877 
L 226.911601 -237.26902 
L 223.791986 -236.609257 
L 220.672372 -235.939831 
L 217.552757 -235.230079 
L 214.433142 -234.513305 
L 211.313528 -233.792271 
L 208.193913 -233.079505 
L 205.074299 -232.366524 
L 201.954684 -231.637205 
L 198.83507 -230.772832 
L 195.715455 -229.970618 
L 192.59584 -229.143953 
L 189.476226 -228.318417 
L 186.356611 -227.40603 
L 183.236997 -226.525866 
L 180.117382 -225.661298 
L 176.997768 -224.787022 
L 173.878153 -223.900711 
L 170.758538 -222.916021 
L 167.638924 -222.009507 
L 164.519309 -221.028548 
L 161.399695 -220.003049 
L 158.28008 -218.969293 
L 155.160465 -217.960175 
L 152.040851 -217.000249 
L 148.921236 -216.072472 
L 145.801622 -215.055604 
L 142.682007 -214.06125 
L 139.562393 -213.070765 
L 136.442778 -212.062123 
L 133.323163 -211.100885 
L 130.203549 -210.168755 
L 127.083934 -209.159114 
L 123.96432 -208.151655 
L 120.844705 -207.182598 
L 117.725091 -206.114016 
L 114.605476 -205.008078 
L 111.485861 -204.053048 
L 108.366247 -203.047758 
L 105.246632 -202.001237 
L 102.127018 -201.074892 
L 99.007403 -199.998975 
L 95.887789 -198.850512 
L 92.768174 -197.893087 
L 89.648559 -196.966652 
L 86.528945 -196.018814 
L 83.40933 -194.94412 
L 80.289716 -193.94716 
L 77.170101 -192.973189 
L 74.050487 -191.990917 
L 70.930872 -190.949486 
L 67.811257 -189.769114 
L 64.691643 -188.845679 
L 61.572028 -187.915725 
L 58.452414 -186.954658 
L 55.332799 -185.918552 
L 52.213184 -184.740052 
L 49.09357 -183.504409 
z
" id="m19edb2f652" style="stroke:#ffffff;stroke-opacity:0.15;"/>
    </defs>
    <g clip-path="url(#p6d5a8a6786)">
     <use style="fill:#101010;fill-opacity:0.15;stroke:#ffffff;stroke-opacity:0.15;" x="0" xlink:href="#m19edb2f652" y="271.708017"/>
    </g>
   </g>
   <g id="PolyCollection_2">
    <defs>
     <path d="M 49.09357 -163.930173 
L 49.09357 -146.168075 
L 52.213184 -146.431267 
L 55.332799 -146.655002 
L 58.452414 -146.878764 
L 61.572028 -147.106245 
L 64.691643 -147.340721 
L 67.811257 -147.66387 
L 70.930872 -147.950013 
L 74.050487 -148.166133 
L 77.170101 -148.461035 
L 80.289716 -148.81459 
L 83.40933 -149.066295 
L 86.528945 -149.349347 
L 89.648559 -149.611615 
L 92.768174 -149.868548 
L 95.887789 -150.126393 
L 99.007403 -150.386388 
L 102.127018 -150.618858 
L 105.246632 -150.897523 
L 108.366247 -151.105243 
L 111.485861 -151.301446 
L 114.605476 -151.497639 
L 117.725091 -151.693821 
L 120.844705 -151.877428 
L 123.96432 -152.011533 
L 127.083934 -152.23493 
L 130.203549 -152.379617 
L 133.323163 -152.516991 
L 136.442778 -152.749993 
L 139.562393 -152.993859 
L 142.682007 -153.237856 
L 145.801622 -153.477781 
L 148.921236 -153.650825 
L 152.040851 -153.841113 
L 155.160465 -154.020296 
L 158.28008 -154.211586 
L 161.399695 -154.375059 
L 164.519309 -154.453486 
L 167.638924 -154.657885 
L 170.758538 -154.588852 
L 173.878153 -154.594984 
L 176.997768 -154.711314 
L 180.117382 -154.870323 
L 183.236997 -154.830828 
L 186.356611 -154.853219 
L 189.476226 -154.903117 
L 192.59584 -154.981227 
L 195.715455 -155.023094 
L 198.83507 -155.016531 
L 201.954684 -155.022765 
L 205.074299 -154.98398 
L 208.193913 -155.003394 
L 211.313528 -154.920707 
L 214.433142 -154.803604 
L 217.552757 -154.767959 
L 220.672372 -154.624541 
L 223.791986 -154.496817 
L 226.911601 -154.346588 
L 230.031215 -154.232568 
L 233.15083 -154.11937 
L 236.270444 -154.006163 
L 239.390059 -153.926003 
L 242.509674 -153.777787 
L 245.629288 -153.706449 
L 248.748903 -153.646143 
L 251.868517 -153.543742 
L 254.988132 -153.498081 
L 258.107747 -153.424662 
L 261.227361 -153.193488 
L 264.346976 -152.978497 
L 267.46659 -152.861545 
L 270.586205 -152.748305 
L 273.705819 -152.635058 
L 276.825434 -152.521805 
L 279.945049 -152.430635 
L 283.064663 -152.292751 
L 286.184278 -152.176116 
L 289.303892 -152.044442 
L 292.423507 -151.858068 
L 295.543121 -151.674472 
L 298.662736 -151.491379 
L 301.782351 -151.362013 
L 304.901965 -151.282787 
L 308.02158 -151.203559 
L 311.141194 -151.084227 
L 314.260809 -150.943217 
L 317.380423 -150.833329 
L 320.500038 -150.653928 
L 323.619653 -150.464175 
L 326.739267 -150.287688 
L 329.858882 -150.128182 
L 332.978496 -149.96817 
L 336.098111 -149.808157 
L 339.217726 -149.648145 
L 342.33734 -149.488263 
L 345.456955 -149.330572 
L 348.576569 -149.192959 
L 351.696184 -149.023248 
L 354.815798 -148.85354 
L 357.935413 -148.692792 
L 357.935413 -175.760824 
L 357.935413 -175.760824 
L 354.815798 -175.487311 
L 351.696184 -175.213454 
L 348.576569 -174.939254 
L 345.456955 -174.664716 
L 342.33734 -174.389843 
L 339.217726 -174.114339 
L 336.098111 -173.837943 
L 332.978496 -173.561219 
L 329.858882 -173.284172 
L 326.739267 -173.006804 
L 323.619653 -172.744364 
L 320.500038 -172.492429 
L 317.380423 -172.240239 
L 314.260809 -171.987796 
L 311.141194 -171.7025 
L 308.02158 -171.446613 
L 304.901965 -171.215324 
L 301.782351 -170.983532 
L 298.662736 -170.752164 
L 295.543121 -170.520283 
L 292.423507 -170.288205 
L 289.303892 -170.055934 
L 286.184278 -169.823471 
L 283.064663 -169.590818 
L 279.945049 -169.345263 
L 276.825434 -169.055147 
L 273.705819 -168.764747 
L 270.586205 -168.482423 
L 267.46659 -168.242778 
L 264.346976 -168.001751 
L 261.227361 -167.732189 
L 258.107747 -167.462401 
L 254.988132 -167.20345 
L 251.868517 -166.953422 
L 248.748903 -166.704306 
L 245.629288 -166.477383 
L 242.509674 -166.257278 
L 239.390059 -166.045933 
L 236.270444 -165.819555 
L 233.15083 -165.560721 
L 230.031215 -165.331942 
L 226.911601 -165.063575 
L 223.791986 -164.704726 
L 220.672372 -164.472463 
L 217.552757 -164.236116 
L 214.433142 -164.010208 
L 211.313528 -163.912143 
L 208.193913 -163.674789 
L 205.074299 -163.408838 
L 201.954684 -163.146831 
L 198.83507 -162.954645 
L 195.715455 -162.805663 
L 192.59584 -162.640908 
L 189.476226 -162.531538 
L 186.356611 -162.370933 
L 183.236997 -162.281711 
L 180.117382 -162.164256 
L 176.997768 -162.044478 
L 173.878153 -161.788611 
L 170.758538 -161.777004 
L 167.638924 -161.619262 
L 164.519309 -161.507512 
L 161.399695 -161.388117 
L 158.28008 -161.351454 
L 155.160465 -161.32378 
L 152.040851 -161.285974 
L 148.921236 -161.230014 
L 145.801622 -161.233388 
L 142.682007 -161.297902 
L 139.562393 -161.323765 
L 136.442778 -161.369123 
L 133.323163 -161.406287 
L 130.203549 -161.504432 
L 127.083934 -161.532863 
L 123.96432 -161.643364 
L 120.844705 -161.719581 
L 117.725091 -161.724997 
L 114.605476 -161.805587 
L 111.485861 -161.849173 
L 108.366247 -161.973304 
L 105.246632 -162.007111 
L 102.127018 -162.110413 
L 99.007403 -162.213151 
L 95.887789 -162.315867 
L 92.768174 -162.491857 
L 89.648559 -162.579412 
L 86.528945 -162.635282 
L 83.40933 -162.730376 
L 80.289716 -162.835723 
L 77.170101 -162.983246 
L 74.050487 -163.068198 
L 70.930872 -163.170349 
L 67.811257 -163.287592 
L 64.691643 -163.41526 
L 61.572028 -163.54085 
L 58.452414 -163.64104 
L 55.332799 -163.73744 
L 52.213184 -163.833818 
L 49.09357 -163.930173 
z
" id="me5e9a2c53e" style="stroke:#ffffff;stroke-opacity:0.15;"/>
    </defs>
    <g clip-path="url(#p6d5a8a6786)">
     <use style="fill:#909090;fill-opacity:0.15;stroke:#ffffff;stroke-opacity:0.15;" x="0" xlink:href="#me5e9a2c53e" y="271.708017"/>
    </g>
   </g>
   <g id="line2d_13">
    <path clip-path="url(#p6d5a8a6786)" d="M 49.09357 100.782733 
L 52.213184 99.30155 
L 55.332799 97.829091 
L 58.452414 96.365868 
L 61.572028 94.912379 
L 64.691643 93.469107 
L 67.811257 92.03652 
L 70.930872 90.615071 
L 74.050487 89.205197 
L 77.170101 87.807319 
L 80.289716 86.42184 
L 83.40933 85.049148 
L 86.528945 83.689612 
L 89.648559 82.343583 
L 92.768174 81.011397 
L 95.887789 79.693369 
L 99.007403 78.389798 
L 102.127018 77.100965 
L 105.246632 75.82713 
L 108.366247 74.56854 
L 111.485861 73.325419 
L 114.605476 72.097978 
L 117.725091 70.886405 
L 120.844705 69.690875 
L 123.96432 68.511543 
L 127.083934 67.348548 
L 130.203549 66.202013 
L 133.323163 65.072043 
L 136.442778 63.958726 
L 139.562393 62.862138 
L 142.682007 61.782334 
L 145.801622 60.71936 
L 148.921236 59.673241 
L 152.040851 58.643994 
L 155.160465 57.631618 
L 158.28008 56.636099 
L 161.399695 55.657411 
L 164.519309 54.695516 
L 167.638924 53.750363 
L 170.758538 52.821891 
L 173.878153 51.910025 
L 176.997768 51.014682 
L 180.117382 50.135768 
L 183.236997 49.27318 
L 186.356611 48.426805 
L 189.476226 47.596522 
L 192.59584 46.782202 
L 195.715455 45.983708 
L 198.83507 45.200896 
L 201.954684 44.433613 
L 205.074299 43.681704 
L 208.193913 42.945005 
L 211.313528 42.223346 
L 214.433142 41.516555 
L 217.552757 40.824452 
L 220.672372 40.146855 
L 223.791986 39.483577 
L 226.911601 38.834429 
L 230.031215 38.199216 
L 233.15083 37.577743 
L 236.270444 36.969811 
L 239.390059 36.37522 
L 242.509674 35.793768 
L 245.629288 35.22525 
L 248.748903 34.66946 
L 251.868517 34.126194 
L 254.988132 33.595244 
L 258.107747 33.076403 
L 261.227361 32.569464 
L 264.346976 32.074218 
L 267.46659 31.59046 
L 270.586205 31.117982 
L 273.705819 30.656577 
L 276.825434 30.206042 
L 279.945049 29.766171 
L 283.064663 29.336762 
L 286.184278 28.917613 
L 289.303892 28.508523 
L 292.423507 28.109293 
L 295.543121 27.719727 
L 298.662736 27.33963 
L 301.782351 26.968807 
L 304.901965 26.607068 
L 308.02158 26.254224 
L 311.141194 25.910088 
L 314.260809 25.574474 
L 317.380423 25.247201 
L 320.500038 24.928088 
L 323.619653 24.616959 
L 326.739267 24.313637 
L 329.858882 24.01795 
L 332.978496 23.729729 
L 336.098111 23.448807 
L 339.217726 23.175017 
L 342.33734 22.908199 
L 345.456955 22.648193 
L 348.576569 22.394843 
L 351.696184 22.147993 
L 354.815798 21.907494 
L 357.935413 21.673196 
" style="fill:none;stroke:#101010;stroke-linecap:round;stroke-width:2.25;"/>
   </g>
   <g id="line2d_14">
    <path clip-path="url(#p6d5a8a6786)" d="M 49.09357 116.690232 
L 52.213184 116.608102 
L 55.332799 116.525978 
L 58.452414 116.44386 
L 61.572028 116.361749 
L 64.691643 116.279643 
L 67.811257 116.197545 
L 70.930872 116.115452 
L 74.050487 116.033367 
L 77.170101 115.951288 
L 80.289716 115.869216 
L 83.40933 115.787151 
L 86.528945 115.705093 
L 89.648559 115.623042 
L 92.768174 115.540998 
L 95.887789 115.458962 
L 99.007403 115.376932 
L 102.127018 115.294911 
L 105.246632 115.212897 
L 108.366247 115.13089 
L 111.485861 115.048892 
L 114.605476 114.966901 
L 117.725091 114.884918 
L 120.844705 114.802943 
L 123.96432 114.720976 
L 127.083934 114.639018 
L 130.203549 114.557068 
L 133.323163 114.475126 
L 136.442778 114.393193 
L 139.562393 114.311268 
L 142.682007 114.229352 
L 145.801622 114.147445 
L 148.921236 114.065546 
L 152.040851 113.983657 
L 155.160465 113.901777 
L 158.28008 113.819905 
L 161.399695 113.738043 
L 164.519309 113.656191 
L 167.638924 113.574348 
L 170.758538 113.492514 
L 173.878153 113.41069 
L 176.997768 113.328875 
L 180.117382 113.247071 
L 183.236997 113.165276 
L 186.356611 113.083491 
L 189.476226 113.001717 
L 192.59584 112.919952 
L 195.715455 112.838198 
L 198.83507 112.756454 
L 201.954684 112.67472 
L 205.074299 112.592997 
L 208.193913 112.511285 
L 211.313528 112.429583 
L 214.433142 112.347893 
L 217.552757 112.266213 
L 220.672372 112.184544 
L 223.791986 112.102886 
L 226.911601 112.021239 
L 230.031215 111.939603 
L 233.15083 111.857979 
L 236.270444 111.776367 
L 239.390059 111.694766 
L 242.509674 111.613176 
L 245.629288 111.531598 
L 248.748903 111.450032 
L 251.868517 111.368478 
L 254.988132 111.286936 
L 258.107747 111.205406 
L 261.227361 111.123888 
L 264.346976 111.042382 
L 267.46659 110.960889 
L 270.586205 110.879408 
L 273.705819 110.79794 
L 276.825434 110.716484 
L 279.945049 110.635041 
L 283.064663 110.553611 
L 286.184278 110.472194 
L 289.303892 110.390789 
L 292.423507 110.309398 
L 295.543121 110.22802 
L 298.662736 110.146655 
L 301.782351 110.065304 
L 304.901965 109.983966 
L 308.02158 109.902641 
L 311.141194 109.82133 
L 314.260809 109.740033 
L 317.380423 109.658749 
L 320.500038 109.57748 
L 323.619653 109.496224 
L 326.739267 109.414983 
L 329.858882 109.333755 
L 332.978496 109.252542 
L 336.098111 109.171344 
L 339.217726 109.090159 
L 342.33734 109.008989 
L 345.456955 108.927834 
L 348.576569 108.846693 
L 351.696184 108.765568 
L 354.815798 108.684457 
L 357.935413 108.603361 
" style="fill:none;stroke:#909090;stroke-linecap:round;stroke-width:2.25;"/>
   </g>
   <g id="patch_3">
    <path d="M 49.09357 230.64 
L 49.09357 13.2 
" style="fill:none;stroke:#262626;stroke-linecap:square;stroke-linejoin:miter;stroke-width:1.25;"/>
   </g>
   <g id="patch_4">
    <path d="M 357.935413 230.64 
L 357.935413 13.2 
" style="fill:none;stroke:#262626;stroke-linecap:square;stroke-linejoin:miter;stroke-width:1.25;"/>
   </g>
   <g id="patch_5">
    <path d="M 49.09357 230.64 
L 357.935413 230.64 
" style="fill:none;stroke:#262626;stroke-linecap:square;stroke-linejoin:miter;stroke-width:1.25;"/>
   </g>
   <g id="patch_6">
    <path d="M 49.09357 13.2 
L 357.935413 13.2 
" style="fill:none;stroke:#262626;stroke-linecap:square;stroke-linejoin:miter;stroke-width:1.25;"/>
   </g>
  </g>
 </g>
 <defs>
  <clipPath id="p6d5a8a6786">
   <rect height="217.44" width="308.841843" x="49.09357" y="13.2"/>
  </clipPath>
 </defs>
</svg>
