<?xml version="1.0" encoding="utf-8" standalone="no"?>
<!DOCTYPE svg PUBLIC "-//W3C//DTD SVG 1.1//EN"
  "http://www.w3.org/Graphics/SVG/1.1/DTD/svg11.dtd">
<!-- Created with matplotlib (https://matplotlib.org/) -->
<svg height="271.708017pt" version="1.1" viewBox="0 0 842.333675 271.708017" width="842.333675pt" xmlns="http://www.w3.org/2000/svg" xmlns:xlink="http://www.w3.org/1999/xlink">
 <defs>
  <style type="text/css">
*{stroke-linecap:butt;stroke-linejoin:round;}
  </style>
 </defs>
 <g id="figure_1">
  <g id="patch_1">
   <path d="M 0 271.708017 
L 842.333675 271.708017 
L 842.333675 0 
L 0 0 
z
" style="fill:#ffffff;"/>
  </g>
  <g id="axes_1">
   <g id="patch_2">
    <path d="M 57.029068 230.64 
L 829.133675 230.64 
L 829.133675 13.2 
L 57.029068 13.2 
z
" style="fill:#eaeaf2;"/>
   </g>
   <g id="matplotlib.axis_1">
    <g id="xtick_1">
     <g id="line2d_1">
      <path clip-path="url(#pe937f4100b)" d="M 57.029068 230.64 
L 57.029068 13.2 
" style="fill:none;stroke:#ffffff;stroke-linecap:round;"/>
     </g>
     <g id="text_1">
      <!-- $0$ -->
      <defs>
       <path d="M 42 31.84375 
C 42 37.96875 41.90625 48.421875 37.703125 56.453125 
C 34 63.484375 28.09375 66 22.90625 66 
C 18.09375 66 12 63.78125 8.203125 56.5625 
C 4.203125 49.015625 3.796875 39.671875 3.796875 31.84375 
C 3.796875 26.109375 3.90625 17.375 7 9.734375 
C 11.296875 -0.609375 19 -2 22.90625 -2 
C 27.5 -2 34.5 -0.109375 38.59375 9.4375 
C 41.59375 16.375 42 24.5 42 31.84375 
z
M 22.90625 -0.40625 
C 16.5 -0.40625 12.703125 5.125 11.296875 12.75 
C 10.203125 18.6875 10.203125 27.328125 10.203125 32.953125 
C 10.203125 40.6875 10.203125 47.109375 11.5 53.234375 
C 13.40625 61.78125 19 64.390625 22.90625 64.390625 
C 27 64.390625 32.296875 61.671875 34.203125 53.4375 
C 35.5 47.71875 35.59375 40.984375 35.59375 32.953125 
C 35.59375 26.421875 35.59375 18.375 34.40625 12.453125 
C 32.296875 1.5 26.40625 -0.40625 22.90625 -0.40625 
z
" id="CMR17-48"/>
      </defs>
      <g style="fill:#262626;" transform="translate(54.289334 247.750347)scale(0.11 -0.11)">
       <use transform="scale(0.996264)" xlink:href="#CMR17-48"/>
      </g>
     </g>
    </g>
    <g id="xtick_2">
     <g id="line2d_2">
      <path clip-path="url(#pe937f4100b)" d="M 211.449989 230.64 
L 211.449989 13.2 
" style="fill:none;stroke:#ffffff;stroke-linecap:round;"/>
     </g>
     <g id="text_2">
      <!-- $5$ -->
      <defs>
       <path d="M 11.40625 58.59375 
C 12.40625 58.1875 16.5 56.890625 20.703125 56.890625 
C 30 56.890625 35.09375 61.890625 38 64.6875 
C 38 65.484375 38 66 37.40625 66 
C 37.296875 66 37.09375 66 36.296875 65.59375 
C 32.796875 64.09375 28.703125 63 23.703125 63 
C 20.703125 63 16.203125 63.359375 11.296875 65.484375 
C 10.203125 66 10 66 9.90625 66 
C 9.40625 66 9.296875 65.890625 9.296875 63.90625 
L 9.296875 34.859375 
C 9.296875 33.015625 9.296875 32.5 10.296875 32.5 
C 10.796875 32.5 11 32.703125 11.5 33.421875 
C 14.703125 38.046875 19.09375 40 24.09375 40 
C 27.59375 40 35.09375 37.734375 35.09375 20.203125 
C 35.09375 16.984375 35.09375 11.1875 32.09375 6.59375 
C 29.59375 2.484375 25.703125 0.390625 21.40625 0.390625 
C 14.796875 0.390625 8.09375 4.984375 6.296875 12.6875 
C 6.703125 12.59375 7.5 12.390625 7.90625 12.390625 
C 9.203125 12.390625 11.703125 13.09375 11.703125 16.1875 
C 11.703125 18.890625 9.796875 20 7.90625 20 
C 5.59375 20 4.09375 18.59375 4.09375 15.796875 
C 4.09375 7.09375 11 -2 21.59375 -2 
C 31.90625 -2 41.703125 6.890625 41.703125 19.796875 
C 41.703125 32.09375 33.90625 41.59375 24.203125 41.59375 
C 19.09375 41.59375 14.796875 39.6875 11.40625 36 
z
" id="CMR17-53"/>
      </defs>
      <g style="fill:#262626;" transform="translate(208.710255 247.750347)scale(0.11 -0.11)">
       <use transform="scale(0.996264)" xlink:href="#CMR17-53"/>
      </g>
     </g>
    </g>
    <g id="xtick_3">
     <g id="line2d_3">
      <path clip-path="url(#pe937f4100b)" d="M 365.870911 230.64 
L 365.870911 13.2 
" style="fill:none;stroke:#ffffff;stroke-linecap:round;"/>
     </g>
     <g id="text_3">
      <!-- $10$ -->
      <defs>
       <path d="M 26.59375 63.796875 
C 26.59375 65.890625 26.5 66 25.09375 66 
C 21.203125 61.359375 15.296875 59.890625 9.703125 59.6875 
C 9.40625 59.6875 8.90625 59.6875 8.796875 59.5 
C 8.703125 59.296875 8.703125 59.09375 8.703125 57 
C 11.796875 57 17 57.59375 21 59.984375 
L 21 7.296875 
C 21 3.796875 20.796875 2.59375 12.203125 2.59375 
L 9.203125 2.59375 
L 9.203125 0 
C 14 0.09375 19 0.1875 23.796875 0.1875 
C 28.59375 0.1875 33.59375 0.09375 38.40625 0 
L 38.40625 2.59375 
L 35.40625 2.59375 
C 26.796875 2.59375 26.59375 3.6875 26.59375 7.296875 
z
" id="CMR17-49"/>
      </defs>
      <g style="fill:#262626;" transform="translate(360.391443 247.750347)scale(0.11 -0.11)">
       <use transform="scale(0.996264)" xlink:href="#CMR17-49"/>
       <use transform="translate(45.690477 0)scale(0.996264)" xlink:href="#CMR17-48"/>
      </g>
     </g>
    </g>
    <g id="xtick_4">
     <g id="line2d_4">
      <path clip-path="url(#pe937f4100b)" d="M 520.291832 230.64 
L 520.291832 13.2 
" style="fill:none;stroke:#ffffff;stroke-linecap:round;"/>
     </g>
     <g id="text_4">
      <!-- $15$ -->
      <g style="fill:#262626;" transform="translate(514.812365 247.750347)scale(0.11 -0.11)">
       <use transform="scale(0.996264)" xlink:href="#CMR17-49"/>
       <use transform="translate(45.690477 0)scale(0.996264)" xlink:href="#CMR17-53"/>
      </g>
     </g>
    </g>
    <g id="xtick_5">
     <g id="line2d_5">
      <path clip-path="url(#pe937f4100b)" d="M 674.712754 230.64 
L 674.712754 13.2 
" style="fill:none;stroke:#ffffff;stroke-linecap:round;"/>
     </g>
     <g id="text_5">
      <!-- $20$ -->
      <defs>
       <path d="M 41.703125 15.46875 
L 39.90625 15.46875 
C 38.90625 8.390625 38.09375 7.1875 37.703125 6.59375 
C 37.203125 5.796875 30 5.796875 28.59375 5.796875 
L 9.40625 5.796875 
C 13 9.6875 20 16.765625 28.5 24.9375 
C 34.59375 30.71875 41.703125 37.5 41.703125 47.390625 
C 41.703125 59.1875 32.296875 66 21.796875 66 
C 10.796875 66 4.09375 56.296875 4.09375 47.296875 
C 4.09375 43.390625 7 42.890625 8.203125 42.890625 
C 9.203125 42.890625 12.203125 43.484375 12.203125 46.984375 
C 12.203125 50.09375 9.59375 51 8.203125 51 
C 7.59375 51 7 50.890625 6.59375 50.6875 
C 8.5 59.1875 14.296875 63.390625 20.40625 63.390625 
C 29.09375 63.390625 34.796875 56.5 34.796875 47.390625 
C 34.796875 38.703125 29.703125 31.21875 24 24.734375 
L 4.09375 2.296875 
L 4.09375 0 
L 39.296875 0 
z
" id="CMR17-50"/>
      </defs>
      <g style="fill:#262626;" transform="translate(669.233286 247.750347)scale(0.11 -0.11)">
       <use transform="scale(0.996264)" xlink:href="#CMR17-50"/>
       <use transform="translate(45.690477 0)scale(0.996264)" xlink:href="#CMR17-48"/>
      </g>
     </g>
    </g>
    <g id="xtick_6">
     <g id="line2d_6">
      <path clip-path="url(#pe937f4100b)" d="M 829.133675 230.64 
L 829.133675 13.2 
" style="fill:none;stroke:#ffffff;stroke-linecap:round;"/>
     </g>
     <g id="text_6">
      <!-- $25$ -->
      <g style="fill:#262626;" transform="translate(823.654208 247.750347)scale(0.11 -0.11)">
       <use transform="scale(0.996264)" xlink:href="#CMR17-50"/>
       <use transform="translate(45.690477 0)scale(0.996264)" xlink:href="#CMR17-53"/>
      </g>
     </g>
    </g>
    <g id="text_7">
     <!-- TEST test -->
     <defs>
      <path d="M 62.203125 67.6875 
L 4.5 67.6875 
L 2.796875 45.6875 
L 4.59375 45.6875 
C 5.90625 62.203125 7.296875 65.09375 22.703125 65.09375 
C 24.5 65.09375 27.40625 65.09375 28.203125 64.984375 
C 30.09375 64.6875 30.09375 63.5 30.09375 61.203125 
L 30.09375 7.265625 
C 30.09375 3.6875 29.796875 2.59375 21.5 2.59375 
L 18.703125 2.59375 
L 18.703125 0 
C 23.5 0.09375 28.5 0.1875 33.40625 0.1875 
C 38.296875 0.1875 43.296875 0.09375 48.09375 0 
L 48.09375 2.59375 
L 45.296875 2.59375 
C 37 2.59375 36.703125 3.6875 36.703125 7.265625 
L 36.703125 61.203125 
C 36.703125 63.390625 36.703125 64.59375 38.5 64.984375 
C 39.296875 65.09375 42.203125 65.09375 44 65.09375 
C 59.296875 65.09375 60.796875 62.203125 62.09375 45.6875 
L 63.90625 45.6875 
z
" id="CMR17-84"/>
      <path d="M 60.703125 25.21875 
L 58.90625 25.21875 
C 56.703125 10.5625 55.40625 2.59375 37.796875 2.59375 
L 23.90625 2.59375 
C 19.90625 2.59375 19.703125 3.09375 19.703125 6.484375 
L 19.703125 34 
L 29.09375 34 
C 38.5 34 39.40625 30.609375 39.40625 22.328125 
L 41.203125 22.328125 
L 41.203125 48.21875 
L 39.40625 48.21875 
C 39.40625 39.96875 38.5 36.59375 29.09375 36.59375 
L 19.703125 36.59375 
L 19.703125 61.3125 
C 19.703125 64.703125 19.90625 65.1875 23.90625 65.1875 
L 37.59375 65.1875 
C 53.09375 65.1875 54.90625 59.03125 56.296875 45.828125 
L 58.09375 45.828125 
L 55.703125 67.796875 
L 5.09375 67.796875 
L 5.09375 65.1875 
C 12 65.1875 13.09375 65.1875 13.09375 60.71875 
L 13.09375 7.078125 
C 13.09375 2.59375 12 2.59375 5.09375 2.59375 
L 5.09375 0 
L 57.09375 0 
z
" id="CMR17-69"/>
      <path d="M 43.796875 67.984375 
C 43.796875 69.796875 43.703125 69.890625 43.09375 69.890625 
C 42.5 69.890625 42.296875 69.484375 41.90625 68.59375 
L 38.90625 61.953125 
C 35.09375 67.5 29.296875 70 23 70 
C 12.796875 70 4.59375 61.84375 4.59375 51.578125 
C 4.59375 48.453125 5.296875 44.015625 8.703125 39.78125 
C 12.40625 35.15625 15.90625 34.34375 23.90625 32.234375 
C 26.90625 31.421875 31.90625 30.109375 32.90625 29.703125 
C 38.59375 27.296875 41.59375 21.25 41.59375 15.609375 
C 41.59375 8.34375 36.5 0.59375 27.796875 0.59375 
C 17.09375 0.59375 7.09375 6.640625 6.40625 20.75 
C 6.296875 22.359375 6.203125 22.453125 5.5 22.453125 
C 4.703125 22.453125 4.59375 22.359375 4.59375 20.34375 
L 4.59375 0 
C 4.59375 -1.8125 4.703125 -1.90625 5.296875 -1.90625 
C 6 -1.90625 6.203125 -1.40625 7.59375 1.703125 
C 7.703125 2 7.703125 2.203125 9.59375 6.03125 
C 14.59375 -0.609375 23 -2 27.796875 -2 
C 38.703125 -2 46.40625 7.140625 46.40625 17.828125 
C 46.40625 23.0625 44.5 27.09375 43.40625 28.90625 
C 39.203125 35.359375 34.703125 36.5625 29.90625 37.765625 
C 29.203125 38.078125 29 38.078125 23.40625 39.484375 
C 18 40.890625 15.703125 41.59375 13.203125 44.3125 
C 10.40625 47.4375 9.40625 50.671875 9.40625 53.890625 
C 9.40625 60.4375 14.59375 67.59375 23.09375 67.59375 
C 33.703125 67.59375 40.296875 60.03125 41.796875 47.4375 
C 42.09375 45.625 42.203125 45.53125 42.90625 45.53125 
C 43.796875 45.53125 43.796875 45.828125 43.796875 47.546875 
z
" id="CMR17-83"/>
      <path d="M 15.09375 40.390625 
L 29.09375 40.390625 
L 29.09375 43 
L 15.09375 43 
L 15.09375 62 
L 13.296875 62 
C 13.09375 51.4375 9.59375 42.1875 1.09375 41.984375 
L 1.09375 40.390625 
L 9.796875 40.390625 
L 9.796875 12.15625 
C 9.796875 10.234375 9.796875 -1 21.40625 -1 
C 27.296875 -1 30.703125 4.8125 30.703125 12.25 
L 30.703125 17.984375 
L 28.90625 17.984375 
L 28.90625 12.34375 
C 28.90625 5.421875 26.203125 0.796875 22 0.796875 
C 19.09375 0.796875 15.09375 2.796875 15.09375 11.953125 
z
" id="CMR17-116"/>
      <path d="M 38.09375 23.484375 
C 38.5 23.890625 38.5 24.09375 38.5 25.09375 
C 38.5 35.171875 33.09375 44 21.703125 44 
C 11.09375 44 2.703125 33.984375 2.703125 21.78125 
C 2.703125 8.65625 12.203125 -1 22.796875 -1 
C 34 -1 38.40625 9.671875 38.40625 11.796875 
C 38.40625 12.5 37.796875 12.5 37.59375 12.5 
C 36.90625 12.5 36.796875 12.296875 36.40625 11.078125 
C 34.203125 4.21875 28.703125 0.796875 23.5 0.796875 
C 19.203125 0.796875 14.90625 3.21875 12.203125 7.65625 
C 9.09375 12.796875 9.09375 18.75 9.09375 23.484375 
z
M 9.203125 25 
C 9.90625 39.234375 17.59375 42.390625 21.59375 42.390625 
C 28.40625 42.390625 33 36.0625 33.09375 25 
z
" id="CMR17-101"/>
      <path d="M 30.90625 42 
C 30.90625 43.796875 30.796875 43.890625 30.203125 43.890625 
C 29.796875 43.890625 29.703125 43.796875 28.5 42.296875 
C 28.203125 41.890625 27.296875 40.890625 27 40.5 
C 23.796875 43.890625 19.296875 44 17.59375 44 
C 6.5 44 2.5 38.1875 2.5 32.390625 
C 2.5 23.390625 12.703125 21.296875 15.59375 20.6875 
C 21.90625 19.390625 24.09375 19 26.203125 17.1875 
C 27.5 16 29.703125 13.796875 29.703125 10.1875 
C 29.703125 6 27.296875 0.59375 18.09375 0.59375 
C 9.40625 0.59375 6.296875 7.1875 4.5 16 
C 4.203125 17.390625 4.203125 17.5 3.40625 17.5 
C 2.59375 17.5 2.5 17.390625 2.5 15.390625 
L 2.5 1 
C 2.5 -0.8125 2.59375 -0.90625 3.203125 -0.90625 
C 3.703125 -0.90625 3.796875 -0.8125 4.296875 0 
C 4.90625 0.890625 6.40625 3.296875 7 4.296875 
C 9 1.59375 12.5 -1 18.09375 -1 
C 28 -1 33.296875 4.390625 33.296875 12.1875 
C 33.296875 17.296875 30.59375 20 29.296875 21.1875 
C 26.296875 24.296875 22.796875 25 18.59375 25.796875 
C 13.09375 27 6.09375 28.390625 6.09375 34.5 
C 6.09375 37.09375 7.5 42.59375 17.59375 42.59375 
C 28.296875 42.59375 28.90625 32.59375 29.09375 29.390625 
C 29.203125 28.890625 29.703125 28.796875 30 28.796875 
C 30.90625 28.796875 30.90625 29.09375 30.90625 30.796875 
z
" id="CMR17-115"/>
     </defs>
     <g style="fill:#262626;" transform="translate(415.979809 262.183421)scale(0.12 -0.12)">
      <use transform="scale(0.996264)" xlink:href="#CMR17-84"/>
      <use transform="translate(66.509881 0)scale(0.996264)" xlink:href="#CMR17-69"/>
      <use transform="translate(129.096181 0)scale(0.996264)" xlink:href="#CMR17-83"/>
      <use transform="translate(179.991551 0)scale(0.996264)" xlink:href="#CMR17-84"/>
      <use transform="translate(276.577398 0)scale(0.996264)" xlink:href="#CMR17-116"/>
      <use transform="translate(311.858166 0)scale(0.996264)" xlink:href="#CMR17-101"/>
      <use transform="translate(352.343826 0)scale(0.996264)" xlink:href="#CMR17-115"/>
      <use transform="translate(388.145164 0)scale(0.996264)" xlink:href="#CMR17-116"/>
     </g>
    </g>
   </g>
   <g id="matplotlib.axis_2">
    <g id="ytick_1">
     <g id="line2d_7">
      <path clip-path="url(#pe937f4100b)" d="M 57.029068 230.64 
L 829.133675 230.64 
" style="fill:none;stroke:#ffffff;stroke-linecap:round;"/>
     </g>
     <g id="text_8">
      <!-- 0 -->
      <g style="fill:#262626;" transform="translate(42.0496 234.445173)scale(0.11 -0.11)">
       <use transform="scale(0.996264)" xlink:href="#CMR17-48"/>
      </g>
     </g>
    </g>
    <g id="ytick_2">
     <g id="line2d_8">
      <path clip-path="url(#pe937f4100b)" d="M 57.029068 187.152 
L 829.133675 187.152 
" style="fill:none;stroke:#ffffff;stroke-linecap:round;"/>
     </g>
     <g id="text_9">
      <!-- 20 -->
      <g style="fill:#262626;" transform="translate(36.570133 190.957173)scale(0.11 -0.11)">
       <use transform="scale(0.996264)" xlink:href="#CMR17-50"/>
       <use transform="translate(45.690477 0)scale(0.996264)" xlink:href="#CMR17-48"/>
      </g>
     </g>
    </g>
    <g id="ytick_3">
     <g id="line2d_9">
      <path clip-path="url(#pe937f4100b)" d="M 57.029068 143.664 
L 829.133675 143.664 
" style="fill:none;stroke:#ffffff;stroke-linecap:round;"/>
     </g>
     <g id="text_10">
      <!-- 40 -->
      <defs>
       <path d="M 33.59375 64.796875 
C 33.59375 66.890625 33.5 67 31.703125 67 
L 2 19.59375 
L 2 17 
L 27.796875 17 
L 27.796875 7.1875 
C 27.796875 3.59375 27.59375 2.59375 20.59375 2.59375 
L 18.703125 2.59375 
L 18.703125 0 
C 21.90625 0.1875 27.296875 0.1875 30.703125 0.1875 
C 34.09375 0.1875 39.5 0.1875 42.703125 0 
L 42.703125 2.59375 
L 40.796875 2.59375 
C 33.796875 2.59375 33.59375 3.59375 33.59375 7.1875 
L 33.59375 17 
L 43.796875 17 
L 43.796875 19.59375 
L 33.59375 19.59375 
z
M 28.09375 58.171875 
L 28.09375 19.59375 
L 4 19.59375 
z
" id="CMR17-52"/>
      </defs>
      <g style="fill:#262626;" transform="translate(36.570133 147.469173)scale(0.11 -0.11)">
       <use transform="scale(0.996264)" xlink:href="#CMR17-52"/>
       <use transform="translate(45.690477 0)scale(0.996264)" xlink:href="#CMR17-48"/>
      </g>
     </g>
    </g>
    <g id="ytick_4">
     <g id="line2d_10">
      <path clip-path="url(#pe937f4100b)" d="M 57.029068 100.176 
L 829.133675 100.176 
" style="fill:none;stroke:#ffffff;stroke-linecap:round;"/>
     </g>
     <g id="text_11">
      <!-- 60 -->
      <defs>
       <path d="M 10.59375 34.34375 
C 10.59375 58 21.796875 63.6875 28.296875 63.6875 
C 30.40625 63.6875 35.5 63.265625 37.5 59.09375 
C 35.90625 59.09375 32.90625 59.09375 32.90625 55.59375 
C 32.90625 52.890625 35.09375 52 36.5 52 
C 37.40625 52 40.09375 52.390625 40.09375 55.796875 
C 40.09375 62.296875 35.09375 66 28.203125 66 
C 16.296875 66 3.796875 53.296875 3.796875 31.421875 
C 3.796875 4.015625 15.09375 -2 23.09375 -2 
C 32.796875 -2 42 6.734375 42 20.234375 
C 42 32.828125 33.90625 42 23.703125 42 
C 17.59375 42 13.09375 37.96875 10.59375 30.921875 
z
M 23.09375 0.390625 
C 10.796875 0.390625 10.796875 18.9375 10.796875 22.65625 
C 10.796875 29.90625 14.203125 40.390625 23.5 40.390625 
C 25.203125 40.390625 30.09375 40.390625 33.40625 33.4375 
C 35.203125 29.515625 35.203125 25.375 35.203125 20.34375 
C 35.203125 14.90625 35.203125 10.875 33.09375 6.84375 
C 30.90625 2.703125 27.703125 0.390625 23.09375 0.390625 
z
" id="CMR17-54"/>
      </defs>
      <g style="fill:#262626;" transform="translate(36.570133 103.981173)scale(0.11 -0.11)">
       <use transform="scale(0.996264)" xlink:href="#CMR17-54"/>
       <use transform="translate(45.690477 0)scale(0.996264)" xlink:href="#CMR17-48"/>
      </g>
     </g>
    </g>
    <g id="ytick_5">
     <g id="line2d_11">
      <path clip-path="url(#pe937f4100b)" d="M 57.029068 56.688 
L 829.133675 56.688 
" style="fill:none;stroke:#ffffff;stroke-linecap:round;"/>
     </g>
     <g id="text_12">
      <!-- 80 -->
      <defs>
       <path d="M 27.203125 35.765625 
C 33.5 38.96875 39.90625 43.796875 39.90625 51.53125 
C 39.90625 60.6875 31.09375 66 23 66 
C 13.90625 66 5.90625 59.375 5.90625 50.234375 
C 5.90625 47.71875 6.5 43.390625 10.40625 39.578125 
C 11.40625 38.578125 15.59375 35.5625 18.296875 33.65625 
C 13.796875 31.34375 3.296875 25.8125 3.296875 14.765625 
C 3.296875 4.40625 13.09375 -2 22.796875 -2 
C 33.5 -2 42.5 5.71875 42.5 15.96875 
C 42.5 25.109375 36.40625 29.328125 32.40625 32.046875 
z
M 14.09375 44.609375 
C 13.296875 45.109375 9.296875 48.21875 9.296875 52.9375 
C 9.296875 59.078125 15.59375 63.6875 22.796875 63.6875 
C 30.703125 63.6875 36.5 58.0625 36.5 51.53125 
C 36.5 42.1875 26.09375 36.859375 25.59375 36.859375 
C 25.5 36.859375 25.40625 36.859375 24.59375 37.46875 
z
M 32.5 24 
C 34 22.90625 38.796875 19.578125 38.796875 13.453125 
C 38.796875 6.015625 31.40625 0.390625 23 0.390625 
C 13.90625 0.390625 7 6.921875 7 14.859375 
C 7 22.796875 13.09375 29.4375 20 32.546875 
z
" id="CMR17-56"/>
      </defs>
      <g style="fill:#262626;" transform="translate(36.570133 60.493173)scale(0.11 -0.11)">
       <use transform="scale(0.996264)" xlink:href="#CMR17-56"/>
       <use transform="translate(45.690477 0)scale(0.996264)" xlink:href="#CMR17-48"/>
      </g>
     </g>
    </g>
    <g id="ytick_6">
     <g id="line2d_12">
      <path clip-path="url(#pe937f4100b)" d="M 57.029068 13.2 
L 829.133675 13.2 
" style="fill:none;stroke:#ffffff;stroke-linecap:round;"/>
     </g>
     <g id="text_13">
      <!-- 100 -->
      <g style="fill:#262626;" transform="translate(31.090666 17.005173)scale(0.11 -0.11)">
       <use transform="scale(0.996264)" xlink:href="#CMR17-49"/>
       <use transform="translate(45.690477 0)scale(0.996264)" xlink:href="#CMR17-48"/>
       <use transform="translate(91.380954 0)scale(0.996264)" xlink:href="#CMR17-48"/>
      </g>
     </g>
    </g>
    <g id="text_14">
     <!-- $e(t_0)$ [s] -->
     <defs>
      <path d="M 17.90625 23 
C 20.59375 23 27.40625 23.1875 32.203125 25 
C 39.796875 27.90625 40.5 33.75 40.5 35.546875 
C 40.5 39.984375 36.703125 44 30.09375 44 
C 19.59375 44 4.5 34.453125 4.5 16.65625 
C 4.5 6.25 10.5 -1 19.59375 -1 
C 33.203125 -1 41.796875 9.515625 41.796875 10.796875 
C 41.796875 11.390625 41.203125 11.890625 40.796875 11.890625 
C 40.5 11.890625 40.40625 11.796875 39.5 10.90625 
C 33.09375 2.484375 23.59375 1 19.796875 1 
C 14.09375 1 11.09375 5.453125 11.09375 12.78125 
C 11.09375 14.171875 11.09375 16.65625 12.59375 23 
z
M 13.09375 25 
C 17.40625 40.484375 26.90625 41.984375 30.09375 41.984375 
C 34.5 41.984375 37.5 39.375 37.5 35.546875 
C 37.5 25 21.5 25 17.296875 25 
z
" id="CMMI12-101"/>
      <path d="M 30.59375 -24.40625 
C 30.59375 -24.3125 30.59375 -24.109375 30.296875 -23.8125 
C 25.703125 -19.109375 13.40625 -6.296875 13.40625 24.9375 
C 13.40625 56.171875 25.5 68.875 30.40625 73.890625 
C 30.40625 73.984375 30.59375 74.1875 30.59375 74.484375 
C 30.59375 74.796875 30.296875 75 29.90625 75 
C 28.796875 75 20.296875 67.578125 15.40625 56.5625 
C 10.40625 45.453125 9 34.65625 9 25.046875 
C 9 17.828125 9.703125 5.625 15.703125 -7.296875 
C 20.5 -17.703125 28.703125 -25 29.90625 -25 
C 30.40625 -25 30.59375 -24.8125 30.59375 -24.40625 
z
" id="CMR17-40"/>
      <path d="M 20.09375 40.09375 
L 29.296875 40.09375 
C 31.203125 40.09375 32.203125 40.09375 32.203125 41.890625 
C 32.203125 43 31.59375 43 29.59375 43 
L 20.796875 43 
L 24.5 57.25 
C 24.90625 58.625 24.90625 58.8125 24.90625 59.5 
C 24.90625 61.09375 23.59375 62 22.296875 62 
C 21.5 62 19.203125 61.6875 18.40625 58.53125 
L 14.5 43 
L 5.09375 43 
C 3.09375 43 2.203125 43 2.203125 41.09375 
C 2.203125 40.09375 2.90625 40.09375 4.796875 40.09375 
L 13.703125 40.09375 
L 7.09375 13.765625 
C 6.296875 10.265625 6 9.265625 6 7.96875 
C 6 3.28125 9.296875 -1 14.90625 -1 
C 25 -1 30.40625 13.5625 30.40625 14.265625 
C 30.40625 14.859375 30 15.15625 29.40625 15.15625 
C 29.203125 15.15625 28.796875 15.15625 28.59375 14.75 
C 28.5 14.65625 28.40625 14.5625 27.703125 12.96875 
C 25.59375 7.96875 21 1 15.203125 1 
C 12.203125 1 12 3.484375 12 5.6875 
C 12 5.78125 12 7.671875 12.296875 8.875 
z
" id="CMMI12-116"/>
      <path d="M 26.296875 24.9375 
C 26.296875 32.140625 25.59375 44.359375 19.59375 57.265625 
C 14.796875 67.6875 6.59375 75 5.40625 75 
C 5.09375 75 4.703125 74.890625 4.703125 74.390625 
C 4.703125 74.1875 4.796875 74.09375 4.90625 73.890625 
C 9.703125 68.875 21.90625 56.171875 21.90625 25.046875 
C 21.90625 -6.1875 9.796875 -18.90625 4.90625 -23.90625 
C 4.796875 -24.109375 4.703125 -24.203125 4.703125 -24.40625 
C 4.703125 -24.90625 5.09375 -25 5.40625 -25 
C 6.5 -25 15 -17.609375 19.90625 -6.59375 
C 24.90625 4.515625 26.296875 15.328125 26.296875 24.9375 
z
" id="CMR17-41"/>
      <path d="M 23.5 -25 
L 23.5 -21.5 
L 14.09375 -21.5 
L 14.09375 71.484375 
L 23.5 71.484375 
L 23.5 75 
L 10.59375 75 
L 10.59375 -25 
z
" id="CMR17-91"/>
      <path d="M 14.296875 75 
L 1.40625 75 
L 1.40625 71.484375 
L 10.796875 71.484375 
L 10.796875 -21.5 
L 1.40625 -21.5 
L 1.40625 -25 
L 14.296875 -25 
z
" id="CMR17-93"/>
     </defs>
     <g style="fill:#262626;" transform="translate(23.215032 152.245215)rotate(-90)scale(0.2 -0.2)">
      <use transform="translate(0 14.943915)scale(0.996264)" xlink:href="#CMMI12-101"/>
      <use transform="translate(45.212001 14.943915)scale(0.996264)" xlink:href="#CMR17-40"/>
      <use transform="translate(80.492769 14.943915)scale(0.996264)" xlink:href="#CMMI12-116"/>
      <use transform="translate(115.719099 0)scale(0.697382)" xlink:href="#CMR17-48"/>
      <use transform="translate(148.200413 14.943915)scale(0.996264)" xlink:href="#CMR17-41"/>
      <use transform="translate(213.557147 14.943915)scale(0.996264)" xlink:href="#CMR17-91"/>
      <use transform="translate(238.428206 14.943915)scale(0.996264)" xlink:href="#CMR17-115"/>
      <use transform="translate(274.229543 14.943915)scale(0.996264)" xlink:href="#CMR17-93"/>
     </g>
    </g>
   </g>
   <g id="PolyCollection_1">
    <defs>
     <path d="M 57.029068 -184.610273 
L 57.029068 -157.463065 
L 64.828104 -159.366657 
L 72.62714 -161.249526 
L 80.426177 -163.149704 
L 88.225213 -165.028368 
L 96.02425 -166.897793 
L 103.823286 -168.757755 
L 111.622323 -170.607516 
L 119.421359 -172.347237 
L 127.220395 -174.002304 
L 135.019432 -175.712554 
L 142.818468 -177.446853 
L 150.617505 -179.158449 
L 158.416541 -180.883158 
L 166.215578 -182.607714 
L 174.014614 -184.309818 
L 181.813651 -185.830805 
L 189.612687 -187.450847 
L 197.411723 -188.99197 
L 205.21076 -190.511945 
L 213.009796 -192.037587 
L 220.808833 -193.633755 
L 228.607869 -195.208672 
L 236.406906 -196.545462 
L 244.205942 -197.982902 
L 252.004979 -199.414276 
L 259.804015 -200.651848 
L 267.603051 -201.969979 
L 275.402088 -203.211592 
L 283.201124 -204.436943 
L 291.000161 -205.557906 
L 298.799197 -206.730757 
L 306.598234 -208.011306 
L 314.39727 -209.050258 
L 322.196307 -210.125061 
L 329.995343 -211.242221 
L 337.794379 -212.3226 
L 345.593416 -213.318586 
L 353.392452 -214.306697 
L 361.191489 -215.152756 
L 368.990525 -215.970336 
L 376.789562 -216.813158 
L 384.588598 -217.569706 
L 392.387635 -218.339834 
L 400.186671 -219.102965 
L 407.985707 -219.814581 
L 415.784744 -220.650862 
L 423.58378 -221.456506 
L 431.382817 -222.139922 
L 439.181853 -222.833221 
L 446.98089 -223.528521 
L 454.779926 -224.168017 
L 462.578962 -224.829298 
L 470.377999 -225.491439 
L 478.177035 -226.105384 
L 485.976072 -226.642367 
L 493.775108 -227.171958 
L 501.574145 -227.694208 
L 509.373181 -228.300265 
L 517.172218 -228.919536 
L 524.971254 -229.525807 
L 532.77029 -230.105866 
L 540.569327 -230.626202 
L 548.368363 -231.135963 
L 556.1674 -231.63881 
L 563.966436 -232.134746 
L 571.765473 -232.616181 
L 579.564509 -233.085029 
L 587.363546 -233.574635 
L 595.162582 -234.039367 
L 602.961618 -234.517998 
L 610.760655 -234.981563 
L 618.559691 -235.41543 
L 626.358728 -235.853061 
L 634.157764 -236.256 
L 641.956801 -236.668311 
L 649.755837 -237.084108 
L 657.554874 -237.533723 
L 665.35391 -237.974889 
L 673.152946 -238.407723 
L 680.951983 -238.832343 
L 688.751019 -239.248866 
L 696.550056 -239.657409 
L 704.349092 -240.058092 
L 712.148129 -240.451029 
L 719.947165 -240.820699 
L 727.746201 -241.152099 
L 735.545238 -241.477819 
L 743.344274 -241.797937 
L 751.143311 -242.11253 
L 758.942347 -242.421674 
L 766.741384 -242.725447 
L 774.54042 -243.023925 
L 782.339457 -243.317183 
L 790.138493 -243.605297 
L 797.937529 -243.888341 
L 805.736566 -244.166389 
L 813.535602 -244.439517 
L 821.334639 -244.707838 
L 829.133675 -244.971703 
L 829.133675 -253.34272 
L 829.133675 -253.34272 
L 821.334639 -253.156301 
L 813.535602 -252.96333 
L 805.736566 -252.763589 
L 797.937529 -252.556854 
L 790.138493 -252.342897 
L 782.339457 -252.131483 
L 774.54042 -251.913383 
L 766.741384 -251.688063 
L 758.942347 -251.452571 
L 751.143311 -251.202319 
L 743.344274 -250.94351 
L 735.545238 -250.675873 
L 727.746201 -250.399133 
L 719.947165 -250.113006 
L 712.148129 -249.817145 
L 704.349092 -249.514002 
L 696.550056 -249.203466 
L 688.751019 -248.882702 
L 680.951983 -248.561918 
L 673.152946 -248.231135 
L 665.35391 -247.889913 
L 657.554874 -247.537961 
L 649.755837 -247.174982 
L 641.956801 -246.798817 
L 634.157764 -246.408245 
L 626.358728 -245.99964 
L 618.559691 -245.574054 
L 610.760655 -245.134436 
L 602.961618 -244.680784 
L 595.162582 -244.212821 
L 587.363546 -243.729963 
L 579.564509 -243.189939 
L 571.765473 -242.650335 
L 563.966436 -242.138002 
L 556.1674 -241.608897 
L 548.368363 -241.046005 
L 540.569327 -240.456953 
L 532.77029 -239.874422 
L 524.971254 -239.24713 
L 517.172218 -238.596785 
L 509.373181 -237.994845 
L 501.574145 -237.323918 
L 493.775108 -236.653452 
L 485.976072 -235.942963 
L 478.177035 -235.211147 
L 470.377999 -234.487412 
L 462.578962 -233.747657 
L 454.779926 -233.012774 
L 446.98089 -232.241014 
L 439.181853 -231.473739 
L 431.382817 -230.672075 
L 423.58378 -229.872824 
L 415.784744 -229.007215 
L 407.985707 -228.147533 
L 400.186671 -227.343148 
L 392.387635 -226.493602 
L 384.588598 -225.56114 
L 376.789562 -224.560014 
L 368.990525 -223.63885 
L 361.191489 -222.643861 
L 353.392452 -221.637253 
L 345.593416 -220.68853 
L 337.794379 -219.70298 
L 329.995343 -218.81863 
L 322.196307 -217.875463 
L 314.39727 -216.851605 
L 306.598234 -215.895026 
L 298.799197 -214.993086 
L 291.000161 -214.08805 
L 283.201124 -213.067486 
L 275.402088 -212.103768 
L 267.603051 -211.271416 
L 259.804015 -210.341429 
L 252.004979 -209.469092 
L 244.205942 -208.457023 
L 236.406906 -207.502086 
L 228.607869 -206.444866 
L 220.808833 -205.343045 
L 213.009796 -204.456035 
L 205.21076 -203.414966 
L 197.411723 -202.35741 
L 189.612687 -201.392194 
L 181.813651 -200.426785 
L 174.014614 -199.451068 
L 166.215578 -198.537125 
L 158.416541 -197.502494 
L 150.617505 -196.521747 
L 142.818468 -195.497724 
L 135.019432 -194.566454 
L 127.220395 -193.627203 
L 119.421359 -192.677953 
L 111.622323 -191.72705 
L 103.823286 -190.716555 
L 96.02425 -189.709046 
L 88.225213 -188.705644 
L 80.426177 -187.693014 
L 72.62714 -186.672841 
L 64.828104 -185.645275 
L 57.029068 -184.610273 
z
" id="mc3f9228e6d" style="stroke:#ffffff;stroke-opacity:0.15;"/>
    </defs>
    <g clip-path="url(#pe937f4100b)">
     <use style="fill:#101010;fill-opacity:0.15;stroke:#ffffff;stroke-opacity:0.15;" x="0" xlink:href="#mc3f9228e6d" y="271.708017"/>
    </g>
   </g>
   <g id="PolyCollection_2">
    <defs>
     <path d="M 57.029068 -164.422213 
L 57.029068 -145.528332 
L 64.828104 -145.821496 
L 72.62714 -146.12079 
L 80.426177 -146.460222 
L 88.225213 -146.740992 
L 96.02425 -147.019588 
L 103.823286 -147.296954 
L 111.622323 -147.587244 
L 119.421359 -147.884248 
L 127.220395 -148.181629 
L 135.019432 -148.479141 
L 142.818468 -148.776673 
L 150.617505 -149.005742 
L 158.416541 -149.271733 
L 166.215578 -149.560772 
L 174.014614 -149.863382 
L 181.813651 -150.137064 
L 189.612687 -150.338215 
L 197.411723 -150.530745 
L 205.21076 -150.810251 
L 213.009796 -151.100693 
L 220.808833 -151.386542 
L 228.607869 -151.615827 
L 236.406906 -151.847588 
L 244.205942 -152.081076 
L 252.004979 -152.325026 
L 259.804015 -152.57181 
L 267.603051 -152.8074 
L 275.402088 -153.04387 
L 283.201124 -153.294074 
L 291.000161 -153.545548 
L 298.799197 -153.703531 
L 306.598234 -153.899003 
L 314.39727 -154.038582 
L 322.196307 -154.14975 
L 329.995343 -154.348651 
L 337.794379 -154.495473 
L 345.593416 -154.556626 
L 353.392452 -154.645253 
L 361.191489 -154.719206 
L 368.990525 -154.714777 
L 376.789562 -154.675806 
L 384.588598 -154.702092 
L 392.387635 -154.709743 
L 400.186671 -154.760762 
L 407.985707 -154.70787 
L 415.784744 -154.764039 
L 423.58378 -154.748971 
L 431.382817 -154.697879 
L 439.181853 -154.629953 
L 446.98089 -154.541626 
L 454.779926 -154.516335 
L 462.578962 -154.49065 
L 470.377999 -154.383442 
L 478.177035 -154.181779 
L 485.976072 -154.060404 
L 493.775108 -154.011772 
L 501.574145 -153.9527 
L 509.373181 -153.794255 
L 517.172218 -153.74499 
L 524.971254 -153.646443 
L 532.77029 -153.511844 
L 540.569327 -153.341915 
L 548.368363 -153.183537 
L 556.1674 -153.025594 
L 563.966436 -152.865039 
L 571.765473 -152.782058 
L 579.564509 -152.678944 
L 587.363546 -152.525781 
L 595.162582 -152.372607 
L 602.961618 -152.269705 
L 610.760655 -152.132824 
L 618.559691 -152.047817 
L 626.358728 -151.963119 
L 634.157764 -151.879566 
L 641.956801 -151.723551 
L 649.755837 -151.566698 
L 657.554874 -151.448606 
L 665.35391 -151.233605 
L 673.152946 -151.019612 
L 680.951983 -150.858488 
L 688.751019 -150.754376 
L 696.550056 -150.650857 
L 704.349092 -150.547337 
L 712.148129 -150.443816 
L 719.947165 -150.340293 
L 727.746201 -150.23677 
L 735.545238 -150.133245 
L 743.344274 -150.02972 
L 751.143311 -149.927056 
L 758.942347 -149.801301 
L 766.741384 -149.654788 
L 774.54042 -149.508276 
L 782.339457 -149.361765 
L 790.138493 -149.2099 
L 797.937529 -149.039577 
L 805.736566 -148.869258 
L 813.535602 -148.705386 
L 821.334639 -148.531976 
L 829.133675 -148.358573 
L 829.133675 -175.876412 
L 829.133675 -175.876412 
L 821.334639 -175.58786 
L 813.535602 -175.295125 
L 805.736566 -175.020481 
L 797.937529 -174.752705 
L 790.138493 -174.484609 
L 782.339457 -174.210767 
L 774.54042 -173.919735 
L 766.741384 -173.628338 
L 758.942347 -173.336581 
L 751.143311 -173.044467 
L 743.344274 -172.752001 
L 735.545238 -172.459187 
L 727.746201 -172.172597 
L 719.947165 -171.939951 
L 712.148129 -171.682853 
L 704.349092 -171.431764 
L 696.550056 -171.183918 
L 688.751019 -170.954994 
L 680.951983 -170.707539 
L 673.152946 -170.436502 
L 665.35391 -170.16448 
L 657.554874 -169.848725 
L 649.755837 -169.575254 
L 641.956801 -169.345203 
L 634.157764 -169.073264 
L 626.358728 -168.801076 
L 618.559691 -168.536503 
L 610.760655 -168.348483 
L 602.961618 -168.073632 
L 595.162582 -167.779406 
L 587.363546 -167.512043 
L 579.564509 -167.272732 
L 571.765473 -167.063732 
L 563.966436 -166.783899 
L 556.1674 -166.491487 
L 548.368363 -166.236353 
L 540.569327 -165.972388 
L 532.77029 -165.726846 
L 524.971254 -165.492988 
L 517.172218 -165.263815 
L 509.373181 -165.034071 
L 501.574145 -164.801166 
L 493.775108 -164.55436 
L 485.976072 -164.276307 
L 478.177035 -164.095544 
L 470.377999 -163.881468 
L 462.578962 -163.651845 
L 454.779926 -163.419617 
L 446.98089 -163.234908 
L 439.181853 -163.055816 
L 431.382817 -162.919399 
L 423.58378 -162.768467 
L 415.784744 -162.535615 
L 407.985707 -162.354782 
L 400.186671 -162.265251 
L 392.387635 -162.079428 
L 384.588598 -161.872084 
L 376.789562 -161.733427 
L 368.990525 -161.66637 
L 361.191489 -161.654395 
L 353.392452 -161.63167 
L 345.593416 -161.510935 
L 337.794379 -161.487587 
L 329.995343 -161.391048 
L 322.196307 -161.398827 
L 314.39727 -161.39686 
L 306.598234 -161.427068 
L 298.799197 -161.465157 
L 291.000161 -161.421257 
L 283.201124 -161.460259 
L 275.402088 -161.509995 
L 267.603051 -161.512538 
L 259.804015 -161.572681 
L 252.004979 -161.649239 
L 244.205942 -161.796536 
L 236.406906 -161.883063 
L 228.607869 -161.934948 
L 220.808833 -161.986826 
L 213.009796 -162.055561 
L 205.21076 -162.183983 
L 197.411723 -162.261065 
L 189.612687 -162.424584 
L 181.813651 -162.544844 
L 174.014614 -162.630265 
L 166.215578 -162.715669 
L 158.416541 -162.804827 
L 150.617505 -162.955152 
L 142.818468 -163.118991 
L 135.019432 -163.3045 
L 127.220395 -163.465166 
L 119.421359 -163.549909 
L 111.622323 -163.698468 
L 103.823286 -163.848615 
L 96.02425 -163.998338 
L 88.225213 -164.091587 
L 80.426177 -164.174386 
L 72.62714 -164.257168 
L 64.828104 -164.339933 
L 57.029068 -164.422213 
z
" id="mc5119b5695" style="stroke:#ffffff;stroke-opacity:0.15;"/>
    </defs>
    <g clip-path="url(#pe937f4100b)">
     <use style="fill:#909090;fill-opacity:0.15;stroke:#ffffff;stroke-opacity:0.15;" x="0" xlink:href="#mc5119b5695" y="271.708017"/>
    </g>
   </g>
   <g id="line2d_13">
    <path clip-path="url(#pe937f4100b)" d="M 57.029068 100.782733 
L 64.828104 99.30155 
L 72.62714 97.829091 
L 80.426177 96.365868 
L 88.225213 94.912379 
L 96.02425 93.469107 
L 103.823286 92.03652 
L 111.622323 90.615071 
L 119.421359 89.205197 
L 127.220395 87.807319 
L 135.019432 86.42184 
L 142.818468 85.049148 
L 150.617505 83.689612 
L 158.416541 82.343583 
L 166.215578 81.011397 
L 174.014614 79.693369 
L 181.813651 78.389798 
L 189.612687 77.100965 
L 197.411723 75.82713 
L 205.21076 74.56854 
L 213.009796 73.325419 
L 220.808833 72.097978 
L 228.607869 70.886405 
L 236.406906 69.690875 
L 244.205942 68.511543 
L 252.004979 67.348548 
L 259.804015 66.202013 
L 267.603051 65.072043 
L 275.402088 63.958726 
L 283.201124 62.862138 
L 291.000161 61.782334 
L 298.799197 60.71936 
L 306.598234 59.673241 
L 314.39727 58.643994 
L 322.196307 57.631618 
L 329.995343 56.636099 
L 337.794379 55.657411 
L 345.593416 54.695516 
L 353.392452 53.750363 
L 361.191489 52.821891 
L 368.990525 51.910025 
L 376.789562 51.014682 
L 384.588598 50.135768 
L 392.387635 49.27318 
L 400.186671 48.426805 
L 407.985707 47.596522 
L 415.784744 46.782202 
L 423.58378 45.983708 
L 431.382817 45.200896 
L 439.181853 44.433613 
L 446.98089 43.681704 
L 454.779926 42.945005 
L 462.578962 42.223346 
L 470.377999 41.516555 
L 478.177035 40.824452 
L 485.976072 40.146855 
L 493.775108 39.483577 
L 501.574145 38.834429 
L 509.373181 38.199216 
L 517.172218 37.577743 
L 524.971254 36.969811 
L 532.77029 36.37522 
L 540.569327 35.793768 
L 548.368363 35.22525 
L 556.1674 34.66946 
L 563.966436 34.126194 
L 571.765473 33.595244 
L 579.564509 33.076403 
L 587.363546 32.569464 
L 595.162582 32.074218 
L 602.961618 31.59046 
L 610.760655 31.117982 
L 618.559691 30.656577 
L 626.358728 30.206042 
L 634.157764 29.766171 
L 641.956801 29.336762 
L 649.755837 28.917613 
L 657.554874 28.508523 
L 665.35391 28.109293 
L 673.152946 27.719727 
L 680.951983 27.33963 
L 688.751019 26.968807 
L 696.550056 26.607068 
L 704.349092 26.254224 
L 712.148129 25.910088 
L 719.947165 25.574474 
L 727.746201 25.247201 
L 735.545238 24.928088 
L 743.344274 24.616959 
L 751.143311 24.313637 
L 758.942347 24.01795 
L 766.741384 23.729729 
L 774.54042 23.448807 
L 782.339457 23.175017 
L 790.138493 22.908199 
L 797.937529 22.648193 
L 805.736566 22.394843 
L 813.535602 22.147993 
L 821.334639 21.907494 
L 829.133675 21.673196 
" style="fill:none;stroke:#101010;stroke-linecap:round;stroke-width:2.25;"/>
   </g>
   <g id="line2d_14">
    <path clip-path="url(#pe937f4100b)" d="M 57.029068 116.690232 
L 64.828104 116.608102 
L 72.62714 116.525978 
L 80.426177 116.44386 
L 88.225213 116.361749 
L 96.02425 116.279643 
L 103.823286 116.197545 
L 111.622323 116.115452 
L 119.421359 116.033367 
L 127.220395 115.951288 
L 135.019432 115.869216 
L 142.818468 115.787151 
L 150.617505 115.705093 
L 158.416541 115.623042 
L 166.215578 115.540998 
L 174.014614 115.458962 
L 181.813651 115.376932 
L 189.612687 115.294911 
L 197.411723 115.212897 
L 205.21076 115.13089 
L 213.009796 115.048892 
L 220.808833 114.966901 
L 228.607869 114.884918 
L 236.406906 114.802943 
L 244.205942 114.720976 
L 252.004979 114.639018 
L 259.804015 114.557068 
L 267.603051 114.475126 
L 275.402088 114.393193 
L 283.201124 114.311268 
L 291.000161 114.229352 
L 298.799197 114.147445 
L 306.598234 114.065546 
L 314.39727 113.983657 
L 322.196307 113.901777 
L 329.995343 113.819905 
L 337.794379 113.738043 
L 345.593416 113.656191 
L 353.392452 113.574348 
L 361.191489 113.492514 
L 368.990525 113.41069 
L 376.789562 113.328875 
L 384.588598 113.247071 
L 392.387635 113.165276 
L 400.186671 113.083491 
L 407.985707 113.001717 
L 415.784744 112.919952 
L 423.58378 112.838198 
L 431.382817 112.756454 
L 439.181853 112.67472 
L 446.98089 112.592997 
L 454.779926 112.511285 
L 462.578962 112.429583 
L 470.377999 112.347893 
L 478.177035 112.266213 
L 485.976072 112.184544 
L 493.775108 112.102886 
L 501.574145 112.021239 
L 509.373181 111.939603 
L 517.172218 111.857979 
L 524.971254 111.776367 
L 532.77029 111.694766 
L 540.569327 111.613176 
L 548.368363 111.531598 
L 556.1674 111.450032 
L 563.966436 111.368478 
L 571.765473 111.286936 
L 579.564509 111.205406 
L 587.363546 111.123888 
L 595.162582 111.042382 
L 602.961618 110.960889 
L 610.760655 110.879408 
L 618.559691 110.79794 
L 626.358728 110.716484 
L 634.157764 110.635041 
L 641.956801 110.553611 
L 649.755837 110.472194 
L 657.554874 110.390789 
L 665.35391 110.309398 
L 673.152946 110.22802 
L 680.951983 110.146655 
L 688.751019 110.065304 
L 696.550056 109.983966 
L 704.349092 109.902641 
L 712.148129 109.82133 
L 719.947165 109.740033 
L 727.746201 109.658749 
L 735.545238 109.57748 
L 743.344274 109.496224 
L 751.143311 109.414983 
L 758.942347 109.333755 
L 766.741384 109.252542 
L 774.54042 109.171344 
L 782.339457 109.090159 
L 790.138493 109.008989 
L 797.937529 108.927834 
L 805.736566 108.846693 
L 813.535602 108.765568 
L 821.334639 108.684457 
L 829.133675 108.603361 
" style="fill:none;stroke:#909090;stroke-linecap:round;stroke-width:2.25;"/>
   </g>
   <g id="patch_3">
    <path d="M 57.029068 230.64 
L 57.029068 13.2 
" style="fill:none;stroke:#ffffff;stroke-linecap:square;stroke-linejoin:miter;stroke-width:1.25;"/>
   </g>
   <g id="patch_4">
    <path d="M 829.133675 230.64 
L 829.133675 13.2 
" style="fill:none;stroke:#ffffff;stroke-linecap:square;stroke-linejoin:miter;stroke-width:1.25;"/>
   </g>
   <g id="patch_5">
    <path d="M 57.029068 230.64 
L 829.133675 230.64 
" style="fill:none;stroke:#ffffff;stroke-linecap:square;stroke-linejoin:miter;stroke-width:1.25;"/>
   </g>
   <g id="patch_6">
    <path d="M 57.029068 13.2 
L 829.133675 13.2 
" style="fill:none;stroke:#ffffff;stroke-linecap:square;stroke-linejoin:miter;stroke-width:1.25;"/>
   </g>
  </g>
 </g>
 <defs>
  <clipPath id="pe937f4100b">
   <rect height="217.44" width="772.104608" x="57.029068" y="13.2"/>
  </clipPath>
 </defs>
</svg>
